{
copyright = "2009 - 2011, The League of Moveable Type";
date = "2012-05-22 22:56:09 +0000";
designer = "The League of Moveable Type";
designerURL = "http://theleagueofmoveabletype.com";
familyName = "League Gothic";
fontMaster = (
{
ascender = 735;
capHeight = 735;
customParameters = (
{
name = openTypeHheaAscender;
value = 735;
},
{
name = openTypeHheaDescender;
value = "-265";
}
);
descender = "-265";
id = "1AB499B8-18A8-432D-A211-B6882CCB886D";
verticalStems = (
101,
108
);
weightValue = 400;
widthValue = 5;
xHeight = 547;
}
);
glyphs = (
{
glyphname = A;
lastChange = "2012-05-22 22:56:21 +0000";
layers = (
{
anchors = (
{
name = ogonek;
position = "{337, 10}";
},
{
name = top;
position = "{187, 735}";
}
);
layerId = "1AB499B8-18A8-432D-A211-B6882CCB886D";
name = Regular;
paths = (
{
closed = 1;
nodes = (
"10 0 LINE",
"121 735 LINE",
"253 735 LINE",
"364 0 LINE",
"259 0 LINE",
"239 150 LINE",
"135 150 LINE",
"115 0 LINE"
);
},
{
closed = 1;
nodes = (
"193 496 LINE",
"190 515 LINE",
"184 515 LINE",
"181 496 LINE",
"150 264 LINE",
"224 264 LINE"
);
}
);
width = 374;
}
);
leftKerningGroup = A;
rightKerningGroup = A;
unicode = 0041;
},
{
glyphname = Aacute;
lastChange = "2012-05-22 22:56:21 +0000";
layers = (
{
layerId = "1AB499B8-18A8-432D-A211-B6882CCB886D";
name = Regular;
paths = (
{
closed = 1;
nodes = (
"10 0 LINE",
"121 735 LINE",
"253 735 LINE",
"364 0 LINE",
"259 0 LINE",
"239 150 LINE",
"135 150 LINE",
"115 0 LINE"
);
},
{
closed = 1;
nodes = (
"193 496 LINE",
"190 515 LINE",
"184 515 LINE",
"181 496 LINE",
"150 264 LINE",
"224 264 LINE"
);
},
{
closed = 1;
nodes = (
"300 890 LINE",
"221 800 LINE",
"143 800 LINE",
"195 890 LINE"
);
}
);
width = 374;
}
);
leftKerningGroup = A;
rightKerningGroup = A;
unicode = 00C1;
},
{
glyphname = Abreve;
lastChange = "2012-05-22 22:56:21 +0000";
layers = (
{
layerId = "1AB499B8-18A8-432D-A211-B6882CCB886D";
name = Regular;
paths = (
{
closed = 1;
nodes = (
"10 0 LINE",
"121 735 LINE",
"253 735 LINE",
"364 0 LINE",
"259 0 LINE",
"239 150 LINE",
"135 150 LINE",
"115 0 LINE"
);
},
{
closed = 1;
nodes = (
"193 496 LINE",
"190 515 LINE",
"184 515 LINE",
"181 496 LINE",
"150 264 LINE",
"224 264 LINE"
);
},
{
closed = 1;
nodes = (
"298 871 LINE",
"281 854 OFFCURVE",
"261 840 OFFCURVE",
"234 831 CURVE",
"221 826 OFFCURVE",
"205 824 OFFCURVE",
"188 824 CURVE SMOOTH",
"153 824 OFFCURVE",
"126 835 OFFCURVE",
"107 847 CURVE SMOOTH",
"96 854 OFFCURVE",
"86 862 OFFCURVE",
"78 871 CURVE",
"132 917 LINE",
"139 908 OFFCURVE",
"150 901 OFFCURVE",
"164 897 CURVE SMOOTH",
"171 895 OFFCURVE",
"179 894 OFFCURVE",
"188 894 CURVE SMOOTH",
"207 894 OFFCURVE",
"220 898 OFFCURVE",
"231 905 CURVE",
"237 908 OFFCURVE",
"242 912 OFFCURVE",
"246 917 CURVE"
);
}
);
width = 374;
}
);
unicode = 0102;
},
{
glyphname = Acircumflex;
lastChange = "2012-05-22 22:56:21 +0000";
layers = (
{
layerId = "1AB499B8-18A8-432D-A211-B6882CCB886D";
name = Regular;
paths = (
{
closed = 1;
nodes = (
"10 0 LINE",
"121 735 LINE",
"253 735 LINE",
"364 0 LINE",
"259 0 LINE",
"239 150 LINE",
"135 150 LINE",
"115 0 LINE"
);
},
{
closed = 1;
nodes = (
"193 496 LINE",
"190 515 LINE",
"184 515 LINE",
"181 496 LINE",
"150 264 LINE",
"224 264 LINE"
);
},
{
closed = 1;
nodes = (
"241 890 LINE",
"310 800 LINE",
"218 800 LINE",
"187 835 LINE",
"157 800 LINE",
"65 800 LINE",
"134 890 LINE"
);
}
);
width = 374;
}
);
leftKerningGroup = A;
rightKerningGroup = A;
unicode = 00C2;
},
{
glyphname = Adieresis;
lastChange = "2012-05-22 22:56:21 +0000";
layers = (
{
layerId = "1AB499B8-18A8-432D-A211-B6882CCB886D";
name = Regular;
paths = (
{
closed = 1;
nodes = (
"10 0 LINE",
"121 735 LINE",
"253 735 LINE",
"364 0 LINE",
"259 0 LINE",
"239 150 LINE",
"135 150 LINE",
"115 0 LINE"
);
},
{
closed = 1;
nodes = (
"193 496 LINE",
"190 515 LINE",
"184 515 LINE",
"181 496 LINE",
"150 264 LINE",
"224 264 LINE"
);
},
{
closed = 1;
nodes = (
"70 898 LINE",
"163 898 LINE",
"163 800 LINE",
"70 800 LINE"
);
},
{
closed = 1;
nodes = (
"211 898 LINE",
"304 898 LINE",
"304 800 LINE",
"211 800 LINE"
);
}
);
width = 374;
}
);
leftKerningGroup = A;
rightKerningGroup = A;
unicode = 00C4;
},
{
glyphname = Agrave;
lastChange = "2012-05-22 22:56:21 +0000";
layers = (
{
layerId = "1AB499B8-18A8-432D-A211-B6882CCB886D";
name = Regular;
paths = (
{
closed = 1;
nodes = (
"10 0 LINE",
"121 735 LINE",
"253 735 LINE",
"364 0 LINE",
"259 0 LINE",
"239 150 LINE",
"135 150 LINE",
"115 0 LINE"
);
},
{
closed = 1;
nodes = (
"193 496 LINE",
"190 515 LINE",
"184 515 LINE",
"181 496 LINE",
"150 264 LINE",
"224 264 LINE"
);
},
{
closed = 1;
nodes = (
"174 890 LINE",
"226 800 LINE",
"148 800 LINE",
"69 890 LINE"
);
}
);
width = 374;
}
);
leftKerningGroup = A;
rightKerningGroup = A;
unicode = 00C0;
},
{
glyphname = Amacron;
lastChange = "2012-05-22 22:56:21 +0000";
layers = (
{
layerId = "1AB499B8-18A8-432D-A211-B6882CCB886D";
name = Regular;
paths = (
{
closed = 1;
nodes = (
"10 0 LINE",
"121 735 LINE",
"253 735 LINE",
"364 0 LINE",
"259 0 LINE",
"239 150 LINE",
"135 150 LINE",
"115 0 LINE"
);
},
{
closed = 1;
nodes = (
"193 496 LINE",
"190 515 LINE",
"184 515 LINE",
"181 496 LINE",
"150 264 LINE",
"224 264 LINE"
);
},
{
closed = 1;
nodes = (
"91 909 LINE",
"285 909 LINE",
"285 830 LINE",
"91 830 LINE"
);
}
);
width = 374;
}
);
unicode = 0100;
},
{
glyphname = Aogonek;
lastChange = "2012-05-22 22:56:21 +0000";
layers = (
{
layerId = "1AB499B8-18A8-432D-A211-B6882CCB886D";
name = Regular;
paths = (
{
closed = 1;
nodes = (
"10 0 LINE",
"121 735 LINE",
"253 735 LINE",
"364 0 LINE",
"259 0 LINE",
"239 150 LINE",
"135 150 LINE",
"115 0 LINE"
);
},
{
closed = 1;
nodes = (
"193 496 LINE",
"190 515 LINE",
"184 515 LINE",
"181 496 LINE",
"150 264 LINE",
"224 264 LINE"
);
},
{
closed = 1;
nodes = (
"203 -75 OFFCURVE",
"219 -50 OFFCURVE",
"236 -31 CURVE",
"245 -20 OFFCURVE",
"256 -9 OFFCURVE",
"269 0 CURVE",
"317 0 LINE",
"300 -15 OFFCURVE",
"288 -30 OFFCURVE",
"279 -50 CURVE",
"274 -60 OFFCURVE",
"272 -71 OFFCURVE",
"272 -83 CURVE SMOOTH",
"272 -112 OFFCURVE",
"299 -121 OFFCURVE",
"322 -121 CURVE SMOOTH",
"339 -121 OFFCURVE",
"352 -117 OFFCURVE",
"364 -112 CURVE",
"356 -179 LINE",
"335 -186 OFFCURVE",
"322 -188 OFFCURVE",
"305 -188 CURVE SMOOTH",
"240 -188 OFFCURVE",
"203 -148 OFFCURVE",
"203 -103 CURVE SMOOTH"
);
}
);
width = 374;
}
);
unicode = 0104;
},
{
glyphname = Aring;
lastChange = "2012-05-22 22:56:21 +0000";
layers = (
{
layerId = "1AB499B8-18A8-432D-A211-B6882CCB886D";
name = Regular;
paths = (
{
closed = 1;
nodes = (
"10 0 LINE",
"121 735 LINE",
"253 735 LINE",
"364 0 LINE",
"259 0 LINE",
"239 150 LINE",
"135 150 LINE",
"115 0 LINE"
);
},
{
closed = 1;
nodes = (
"193 496 LINE",
"190 515 LINE",
"184 515 LINE",
"181 496 LINE",
"150 264 LINE",
"224 264 LINE"
);
},
{
closed = 1;
nodes = (
"113 901 OFFCURVE",
"147 930 OFFCURVE",
"188 930 CURVE SMOOTH",
"229 930 OFFCURVE",
"262 901 OFFCURVE",
"262 860 CURVE SMOOTH",
"262 819 OFFCURVE",
"229 790 OFFCURVE",
"188 790 CURVE SMOOTH",
"147 790 OFFCURVE",
"113 819 OFFCURVE",
"113 860 CURVE SMOOTH"
);
},
{
closed = 1;
nodes = (
"151 841 OFFCURVE",
"169 825 OFFCURVE",
"188 825 CURVE SMOOTH",
"207 825 OFFCURVE",
"225 841 OFFCURVE",
"225 860 CURVE SMOOTH",
"225 879 OFFCURVE",
"207 895 OFFCURVE",
"188 895 CURVE SMOOTH",
"169 895 OFFCURVE",
"151 879 OFFCURVE",
"151 860 CURVE SMOOTH"
);
}
);
width = 374;
}
);
leftKerningGroup = A;
rightKerningGroup = A;
unicode = 00C5;
},
{
glyphname = Atilde;
lastChange = "2012-05-22 22:56:21 +0000";
layers = (
{
layerId = "1AB499B8-18A8-432D-A211-B6882CCB886D";
name = Regular;
paths = (
{
closed = 1;
nodes = (
"10 0 LINE",
"121 735 LINE",
"253 735 LINE",
"364 0 LINE",
"259 0 LINE",
"239 150 LINE",
"135 150 LINE",
"115 0 LINE"
);
},
{
closed = 1;
nodes = (
"193 496 LINE",
"190 515 LINE",
"184 515 LINE",
"181 496 LINE",
"150 264 LINE",
"224 264 LINE"
);
},
{
closed = 1;
nodes = (
"128 813 OFFCURVE",
"117 809 OFFCURVE",
"106 805 CURVE",
"100 802 OFFCURVE",
"95 800 OFFCURVE",
"90 797 CURVE",
"90 871 LINE",
"99 878 OFFCURVE",
"111 883 OFFCURVE",
"123 887 CURVE SMOOTH",
"129 889 OFFCURVE",
"136 890 OFFCURVE",
"143 890 CURVE SMOOTH",
"158 890 OFFCURVE",
"173 887 OFFCURVE",
"187 882 CURVE",
"201 876 OFFCURVE",
"216 872 OFFCURVE",
"231 871 CURVE",
"246 871 OFFCURVE",
"257 875 OFFCURVE",
"268 879 CURVE",
"274 882 OFFCURVE",
"279 884 OFFCURVE",
"284 887 CURVE",
"284 813 LINE",
"275 805 OFFCURVE",
"263 800 OFFCURVE",
"251 797 CURVE",
"245 795 OFFCURVE",
"238 794 OFFCURVE",
"231 794 CURVE SMOOTH",
"216 794 OFFCURVE",
"201 797 OFFCURVE",
"188 803 CURVE SMOOTH",
"174 809 OFFCURVE",
"159 812 OFFCURVE",
"143 813 CURVE"
);
}
);
width = 374;
}
);
leftKerningGroup = A;
rightKerningGroup = A;
unicode = 00C3;
},
{
glyphname = AE;
lastChange = "2012-05-22 22:56:21 +0000";
layers = (
{
anchors = (
{
name = top;
position = "{269, 735}";
}
);
layerId = "1AB499B8-18A8-432D-A211-B6882CCB886D";
name = Regular;
paths = (
{
closed = 1;
nodes = (
"270 150 LINE",
"159 150 LINE",
"115 0 LINE",
"8 0 LINE",
"213 735 LINE",
"517 735 LINE",
"517 624 LINE",
"378 624 LINE",
"378 431 LINE",
"478 431 LINE",
"478 313 LINE",
"378 313 LINE",
"378 111 LINE",
"517 111 LINE",
"517 0 LINE",
"270 0 LINE"
);
},
{
closed = 1;
nodes = (
"192 264 LINE",
"270 264 LINE",
"270 515 LINE",
"265 515 LINE"
);
}
);
width = 537;
}
);
unicode = 00C6;
},
{
glyphname = B;
lastChange = "2012-05-22 22:56:21 +0000";
layers = (
{
layerId = "1AB499B8-18A8-432D-A211-B6882CCB886D";
name = Regular;
paths = (
{
closed = 1;
nodes = (
"40 0 LINE",
"40 735 LINE",
"135 735 LINE SMOOTH",
"199 735 OFFCURVE",
"249 723 OFFCURVE",
"282 692 CURVE SMOOTH",
"315 661 OFFCURVE",
"332 613 OFFCURVE",
"332 540 CURVE SMOOTH",
"332 505 OFFCURVE",
"329 479 OFFCURVE",
"318 455 CURVE SMOOTH",
"307 431 OFFCURVE",
"290 411 OFFCURVE",
"265 388 CURVE",
"292 373 OFFCURVE",
"312 345 OFFCURVE",
"328 298 CURVE SMOOTH",
"336 275 OFFCURVE",
"340 245 OFFCURVE",
"340 208 CURVE SMOOTH",
"340 153 OFFCURVE",
"330 104 OFFCURVE",
"305 66 CURVE SMOOTH",
"280 28 OFFCURVE",
"237 3 OFFCURVE",
"173 0 CURVE"
);
},
{
closed = 1;
nodes = (
"228 280 OFFCURVE",
"214 309 OFFCURVE",
"196 322 CURVE SMOOTH",
"178 335 OFFCURVE",
"157 333 OFFCURVE",
"148 333 CURVE",
"148 107 LINE",
"157 107 OFFCURVE",
"178 105 OFFCURVE",
"196 118 CURVE SMOOTH",
"214 131 OFFCURVE",
"228 160 OFFCURVE",
"228 220 CURVE SMOOTH"
);
},
{
closed = 1;
nodes = (
"228 581 OFFCURVE",
"214 605 OFFCURVE",
"196 617 CURVE SMOOTH",
"178 629 OFFCURVE",
"157 628 OFFCURVE",
"148 628 CURVE",
"148 432 LINE",
"157 432 OFFCURVE",
"178 431 OFFCURVE",
"196 443 CURVE SMOOTH",
"214 455 OFFCURVE",
"228 479 OFFCURVE",
"228 530 CURVE SMOOTH"
);
}
);
width = 364;
}
);
unicode = 0042;
},
{
glyphname = C;
lastChange = "2012-05-22 22:56:21 +0000";
layers = (
{
anchors = (
{
name = bottom;
position = "{173, 0}";
},
{
name = top;
position = "{173, 735}";
}
);
layerId = "1AB499B8-18A8-432D-A211-B6882CCB886D";
name = Regular;
paths = (
{
closed = 1;
nodes = (
"321 252 LINE",
"321 151 LINE SMOOTH",
"320 121 OFFCURVE",
"314 94 OFFCURVE",
"303 71 CURVE SMOOTH",
"294 51 OFFCURVE",
"280 32 OFFCURVE",
"260 17 CURVE SMOOTH",
"240 1 OFFCURVE",
"213 -8 OFFCURVE",
"177 -8 CURVE SMOOTH",
"141 -8 OFFCURVE",
"113 1 OFFCURVE",
"93 17 CURVE SMOOTH",
"73 32 OFFCURVE",
"60 51 OFFCURVE",
"51 71 CURVE SMOOTH",
"40 94 OFFCURVE",
"34 121 OFFCURVE",
"33 151 CURVE",
"33 584 LINE SMOOTH",
"34 613 OFFCURVE",
"40 640 OFFCURVE",
"51 663 CURVE SMOOTH",
"60 683 OFFCURVE",
"73 703 OFFCURVE",
"93 718 CURVE SMOOTH",
"113 733 OFFCURVE",
"141 743 OFFCURVE",
"177 743 CURVE SMOOTH",
"213 743 OFFCURVE",
"240 733 OFFCURVE",
"260 718 CURVE SMOOTH",
"280 703 OFFCURVE",
"294 683 OFFCURVE",
"303 663 CURVE SMOOTH",
"314 640 OFFCURVE",
"320 613 OFFCURVE",
"321 584 CURVE SMOOTH",
"321 483 LINE",
"220 483 LINE",
"220 584 LINE SMOOTH",
"220 604 OFFCURVE",
"215 618 OFFCURVE",
"204 630 CURVE",
"199 635 OFFCURVE",
"190 638 OFFCURVE",
"179 638 CURVE SMOOTH",
"160 638 OFFCURVE",
"151 624 OFFCURVE",
"146 611 CURVE SMOOTH",
"143 603 OFFCURVE",
"142 594 OFFCURVE",
"141 584 CURVE",
"141 151 LINE",
"142 130 OFFCURVE",
"148 116 OFFCURVE",
"158 105 CURVE",
"163 100 OFFCURVE",
"170 97 OFFCURVE",
"179 97 CURVE SMOOTH",
"202 97 OFFCURVE",
"211 109 OFFCURVE",
"216 124 CURVE",
"219 131 OFFCURVE",
"220 140 OFFCURVE",
"220 151 CURVE SMOOTH",
"220 252 LINE"
);
}
);
width = 346;
}
);
unicode = 0043;
},
{
glyphname = Cacute;
lastChange = "2012-05-22 22:56:21 +0000";
layers = (
{
layerId = "1AB499B8-18A8-432D-A211-B6882CCB886D";
name = Regular;
paths = (
{
closed = 1;
nodes = (
"321 252 LINE",
"321 151 LINE SMOOTH",
"320 121 OFFCURVE",
"314 94 OFFCURVE",
"303 71 CURVE SMOOTH",
"294 51 OFFCURVE",
"280 32 OFFCURVE",
"260 17 CURVE SMOOTH",
"240 1 OFFCURVE",
"213 -8 OFFCURVE",
"177 -8 CURVE SMOOTH",
"141 -8 OFFCURVE",
"113 1 OFFCURVE",
"93 17 CURVE SMOOTH",
"73 32 OFFCURVE",
"60 51 OFFCURVE",
"51 71 CURVE SMOOTH",
"40 94 OFFCURVE",
"34 121 OFFCURVE",
"33 151 CURVE",
"33 584 LINE SMOOTH",
"34 613 OFFCURVE",
"40 640 OFFCURVE",
"51 663 CURVE SMOOTH",
"60 683 OFFCURVE",
"73 703 OFFCURVE",
"93 718 CURVE SMOOTH",
"113 733 OFFCURVE",
"141 743 OFFCURVE",
"177 743 CURVE SMOOTH",
"213 743 OFFCURVE",
"240 733 OFFCURVE",
"260 718 CURVE SMOOTH",
"280 703 OFFCURVE",
"294 683 OFFCURVE",
"303 663 CURVE SMOOTH",
"314 640 OFFCURVE",
"320 613 OFFCURVE",
"321 584 CURVE SMOOTH",
"321 483 LINE",
"220 483 LINE",
"220 584 LINE SMOOTH",
"220 604 OFFCURVE",
"215 618 OFFCURVE",
"204 630 CURVE",
"199 635 OFFCURVE",
"190 638 OFFCURVE",
"179 638 CURVE SMOOTH",
"160 638 OFFCURVE",
"151 624 OFFCURVE",
"146 611 CURVE SMOOTH",
"143 603 OFFCURVE",
"142 594 OFFCURVE",
"141 584 CURVE",
"141 151 LINE",
"142 130 OFFCURVE",
"148 116 OFFCURVE",
"158 105 CURVE",
"163 100 OFFCURVE",
"170 97 OFFCURVE",
"179 97 CURVE SMOOTH",
"202 97 OFFCURVE",
"211 109 OFFCURVE",
"216 124 CURVE",
"219 131 OFFCURVE",
"220 140 OFFCURVE",
"220 151 CURVE SMOOTH",
"220 252 LINE"
);
},
{
closed = 1;
nodes = (
"253 915 LINE",
"174 825 LINE",
"96 825 LINE",
"148 915 LINE"
);
}
);
width = 346;
}
);
unicode = 0106;
},
{
glyphname = Ccaron;
lastChange = "2012-05-22 22:56:21 +0000";
layers = (
{
layerId = "1AB499B8-18A8-432D-A211-B6882CCB886D";
name = Regular;
paths = (
{
closed = 1;
nodes = (
"321 252 LINE",
"321 151 LINE SMOOTH",
"320 121 OFFCURVE",
"314 94 OFFCURVE",
"303 71 CURVE SMOOTH",
"294 51 OFFCURVE",
"280 32 OFFCURVE",
"260 17 CURVE SMOOTH",
"240 1 OFFCURVE",
"213 -8 OFFCURVE",
"177 -8 CURVE SMOOTH",
"141 -8 OFFCURVE",
"113 1 OFFCURVE",
"93 17 CURVE SMOOTH",
"73 32 OFFCURVE",
"60 51 OFFCURVE",
"51 71 CURVE SMOOTH",
"40 94 OFFCURVE",
"34 121 OFFCURVE",
"33 151 CURVE",
"33 584 LINE SMOOTH",
"34 613 OFFCURVE",
"40 640 OFFCURVE",
"51 663 CURVE SMOOTH",
"60 683 OFFCURVE",
"73 703 OFFCURVE",
"93 718 CURVE SMOOTH",
"113 733 OFFCURVE",
"141 743 OFFCURVE",
"177 743 CURVE SMOOTH",
"213 743 OFFCURVE",
"240 733 OFFCURVE",
"260 718 CURVE SMOOTH",
"280 703 OFFCURVE",
"294 683 OFFCURVE",
"303 663 CURVE SMOOTH",
"314 640 OFFCURVE",
"320 613 OFFCURVE",
"321 584 CURVE SMOOTH",
"321 483 LINE",
"220 483 LINE",
"220 584 LINE SMOOTH",
"220 604 OFFCURVE",
"215 618 OFFCURVE",
"204 630 CURVE",
"199 635 OFFCURVE",
"190 638 OFFCURVE",
"179 638 CURVE SMOOTH",
"160 638 OFFCURVE",
"151 624 OFFCURVE",
"146 611 CURVE SMOOTH",
"143 603 OFFCURVE",
"142 594 OFFCURVE",
"141 584 CURVE",
"141 151 LINE",
"142 130 OFFCURVE",
"148 116 OFFCURVE",
"158 105 CURVE",
"163 100 OFFCURVE",
"170 97 OFFCURVE",
"179 97 CURVE SMOOTH",
"202 97 OFFCURVE",
"211 109 OFFCURVE",
"216 124 CURVE",
"219 131 OFFCURVE",
"220 140 OFFCURVE",
"220 151 CURVE SMOOTH",
"220 252 LINE"
);
},
{
closed = 1;
nodes = (
"121 825 LINE",
"52 915 LINE",
"144 915 LINE",
"174 880 LINE",
"205 915 LINE",
"297 915 LINE",
"228 825 LINE"
);
}
);
width = 346;
}
);
unicode = 010C;
},
{
glyphname = Ccedilla;
lastChange = "2012-05-22 22:56:21 +0000";
layers = (
{
layerId = "1AB499B8-18A8-432D-A211-B6882CCB886D";
name = Regular;
paths = (
{
closed = 1;
nodes = (
"321 252 LINE",
"321 151 LINE SMOOTH",
"320 121 OFFCURVE",
"314 94 OFFCURVE",
"303 71 CURVE SMOOTH",
"294 51 OFFCURVE",
"280 32 OFFCURVE",
"260 17 CURVE SMOOTH",
"240 1 OFFCURVE",
"213 -8 OFFCURVE",
"177 -8 CURVE SMOOTH",
"141 -8 OFFCURVE",
"113 1 OFFCURVE",
"93 17 CURVE SMOOTH",
"73 32 OFFCURVE",
"60 51 OFFCURVE",
"51 71 CURVE SMOOTH",
"40 94 OFFCURVE",
"34 121 OFFCURVE",
"33 151 CURVE",
"33 584 LINE SMOOTH",
"34 613 OFFCURVE",
"40 640 OFFCURVE",
"51 663 CURVE SMOOTH",
"60 683 OFFCURVE",
"73 703 OFFCURVE",
"93 718 CURVE SMOOTH",
"113 733 OFFCURVE",
"141 743 OFFCURVE",
"177 743 CURVE SMOOTH",
"213 743 OFFCURVE",
"240 733 OFFCURVE",
"260 718 CURVE SMOOTH",
"280 703 OFFCURVE",
"294 683 OFFCURVE",
"303 663 CURVE SMOOTH",
"314 640 OFFCURVE",
"320 613 OFFCURVE",
"321 584 CURVE SMOOTH",
"321 483 LINE",
"220 483 LINE",
"220 584 LINE SMOOTH",
"220 604 OFFCURVE",
"215 618 OFFCURVE",
"204 630 CURVE",
"199 635 OFFCURVE",
"190 638 OFFCURVE",
"179 638 CURVE SMOOTH",
"160 638 OFFCURVE",
"151 624 OFFCURVE",
"146 611 CURVE SMOOTH",
"143 603 OFFCURVE",
"142 594 OFFCURVE",
"141 584 CURVE",
"141 151 LINE",
"142 130 OFFCURVE",
"148 116 OFFCURVE",
"158 105 CURVE",
"163 100 OFFCURVE",
"170 97 OFFCURVE",
"179 97 CURVE SMOOTH",
"202 97 OFFCURVE",
"211 109 OFFCURVE",
"216 124 CURVE",
"219 131 OFFCURVE",
"220 140 OFFCURVE",
"220 151 CURVE SMOOTH",
"220 252 LINE"
);
},
{
closed = 1;
nodes = (
"215 -123 LINE",
"193 -188 LINE",
"142 -188 LINE",
"162 -123 LINE",
"131 -123 LINE",
"131 -54 LINE",
"215 -54 LINE"
);
}
);
width = 346;
}
);
unicode = 00C7;
},
{
glyphname = Ccircumflex;
lastChange = "2012-05-22 22:56:21 +0000";
layers = (
{
layerId = "1AB499B8-18A8-432D-A211-B6882CCB886D";
name = Regular;
paths = (
{
closed = 1;
nodes = (
"321 252 LINE",
"321 151 LINE SMOOTH",
"320 121 OFFCURVE",
"314 94 OFFCURVE",
"303 71 CURVE SMOOTH",
"294 51 OFFCURVE",
"280 32 OFFCURVE",
"260 17 CURVE SMOOTH",
"240 1 OFFCURVE",
"213 -8 OFFCURVE",
"177 -8 CURVE SMOOTH",
"141 -8 OFFCURVE",
"113 1 OFFCURVE",
"93 17 CURVE SMOOTH",
"73 32 OFFCURVE",
"60 51 OFFCURVE",
"51 71 CURVE SMOOTH",
"40 94 OFFCURVE",
"34 121 OFFCURVE",
"33 151 CURVE",
"33 584 LINE SMOOTH",
"34 613 OFFCURVE",
"40 640 OFFCURVE",
"51 663 CURVE SMOOTH",
"60 683 OFFCURVE",
"73 703 OFFCURVE",
"93 718 CURVE SMOOTH",
"113 733 OFFCURVE",
"141 743 OFFCURVE",
"177 743 CURVE SMOOTH",
"213 743 OFFCURVE",
"240 733 OFFCURVE",
"260 718 CURVE SMOOTH",
"280 703 OFFCURVE",
"294 683 OFFCURVE",
"303 663 CURVE SMOOTH",
"314 640 OFFCURVE",
"320 613 OFFCURVE",
"321 584 CURVE SMOOTH",
"321 483 LINE",
"220 483 LINE",
"220 584 LINE SMOOTH",
"220 604 OFFCURVE",
"215 618 OFFCURVE",
"204 630 CURVE",
"199 635 OFFCURVE",
"190 638 OFFCURVE",
"179 638 CURVE SMOOTH",
"160 638 OFFCURVE",
"151 624 OFFCURVE",
"146 611 CURVE SMOOTH",
"143 603 OFFCURVE",
"142 594 OFFCURVE",
"141 584 CURVE",
"141 151 LINE",
"142 130 OFFCURVE",
"148 116 OFFCURVE",
"158 105 CURVE",
"163 100 OFFCURVE",
"170 97 OFFCURVE",
"179 97 CURVE SMOOTH",
"202 97 OFFCURVE",
"211 109 OFFCURVE",
"216 124 CURVE",
"219 131 OFFCURVE",
"220 140 OFFCURVE",
"220 151 CURVE SMOOTH",
"220 252 LINE"
);
},
{
closed = 1;
nodes = (
"228 915 LINE",
"297 825 LINE",
"205 825 LINE",
"174 860 LINE",
"144 825 LINE",
"52 825 LINE",
"121 915 LINE"
);
}
);
width = 346;
}
);
unicode = 0108;
},
{
glyphname = Cdotaccent;
lastChange = "2012-05-22 22:56:21 +0000";
layers = (
{
layerId = "1AB499B8-18A8-432D-A211-B6882CCB886D";
name = Regular;
paths = (
{
closed = 1;
nodes = (
"321 252 LINE",
"321 151 LINE SMOOTH",
"320 121 OFFCURVE",
"314 94 OFFCURVE",
"303 71 CURVE SMOOTH",
"294 51 OFFCURVE",
"280 32 OFFCURVE",
"260 17 CURVE SMOOTH",
"240 1 OFFCURVE",
"213 -8 OFFCURVE",
"177 -8 CURVE SMOOTH",
"141 -8 OFFCURVE",
"113 1 OFFCURVE",
"93 17 CURVE SMOOTH",
"73 32 OFFCURVE",
"60 51 OFFCURVE",
"51 71 CURVE SMOOTH",
"40 94 OFFCURVE",
"34 121 OFFCURVE",
"33 151 CURVE",
"33 584 LINE SMOOTH",
"34 613 OFFCURVE",
"40 640 OFFCURVE",
"51 663 CURVE SMOOTH",
"60 683 OFFCURVE",
"73 703 OFFCURVE",
"93 718 CURVE SMOOTH",
"113 733 OFFCURVE",
"141 743 OFFCURVE",
"177 743 CURVE SMOOTH",
"213 743 OFFCURVE",
"240 733 OFFCURVE",
"260 718 CURVE SMOOTH",
"280 703 OFFCURVE",
"294 683 OFFCURVE",
"303 663 CURVE SMOOTH",
"314 640 OFFCURVE",
"320 613 OFFCURVE",
"321 584 CURVE SMOOTH",
"321 483 LINE",
"220 483 LINE",
"220 584 LINE SMOOTH",
"220 604 OFFCURVE",
"215 618 OFFCURVE",
"204 630 CURVE",
"199 635 OFFCURVE",
"190 638 OFFCURVE",
"179 638 CURVE SMOOTH",
"160 638 OFFCURVE",
"151 624 OFFCURVE",
"146 611 CURVE SMOOTH",
"143 603 OFFCURVE",
"142 594 OFFCURVE",
"141 584 CURVE",
"141 151 LINE",
"142 130 OFFCURVE",
"148 116 OFFCURVE",
"158 105 CURVE",
"163 100 OFFCURVE",
"170 97 OFFCURVE",
"179 97 CURVE SMOOTH",
"202 97 OFFCURVE",
"211 109 OFFCURVE",
"216 124 CURVE",
"219 131 OFFCURVE",
"220 140 OFFCURVE",
"220 151 CURVE SMOOTH",
"220 252 LINE"
);
},
{
closed = 1;
nodes = (
"124 923 LINE",
"225 923 LINE",
"225 822 LINE",
"124 822 LINE"
);
}
);
width = 346;
}
);
unicode = 010A;
},
{
glyphname = D;
lastChange = "2012-05-22 22:56:21 +0000";
layers = (
{
anchors = (
{
name = center;
position = "{186, 368}";
},
{
name = top;
position = "{186, 735}";
}
);
layerId = "1AB499B8-18A8-432D-A211-B6882CCB886D";
name = Regular;
paths = (
{
closed = 1;
nodes = (
"340 223 OFFCURVE",
"336 132 OFFCURVE",
"308 76 CURVE SMOOTH",
"279 20 OFFCURVE",
"225 0 OFFCURVE",
"125 0 CURVE SMOOTH",
"40 0 LINE",
"40 735 LINE",
"125 735 LINE SMOOTH",
"225 735 OFFCURVE",
"279 715 OFFCURVE",
"308 659 CURVE SMOOTH",
"336 603 OFFCURVE",
"340 511 OFFCURVE",
"340 367 CURVE SMOOTH"
);
},
{
closed = 1;
nodes = (
"148 108 LINE",
"185 108 OFFCURVE",
"206 112 OFFCURVE",
"217 148 CURVE SMOOTH",
"222 165 OFFCURVE",
"226 191 OFFCURVE",
"227 226 CURVE SMOOTH",
"228 261 OFFCURVE",
"228 308 OFFCURVE",
"228 368 CURVE SMOOTH",
"228 428 OFFCURVE",
"228 475 OFFCURVE",
"227 510 CURVE SMOOTH",
"226 544 OFFCURVE",
"222 570 OFFCURVE",
"217 588 CURVE SMOOTH",
"206 623 OFFCURVE",
"185 627 OFFCURVE",
"148 627 CURVE"
);
}
);
width = 372;
}
);
unicode = 0044;
},
{
glyphname = Eth;
lastChange = "2012-05-22 22:56:21 +0000";
layers = (
{
layerId = "1AB499B8-18A8-432D-A211-B6882CCB886D";
name = Regular;
paths = (
{
closed = 1;
nodes = (
"10 431 LINE",
"40 431 LINE",
"40 735 LINE",
"125 735 LINE SMOOTH",
"225 735 OFFCURVE",
"279 715 OFFCURVE",
"308 659 CURVE SMOOTH",
"336 603 OFFCURVE",
"340 511 OFFCURVE",
"340 367 CURVE SMOOTH",
"340 223 OFFCURVE",
"336 132 OFFCURVE",
"308 76 CURVE SMOOTH",
"279 20 OFFCURVE",
"225 0 OFFCURVE",
"125 0 CURVE SMOOTH",
"40 0 LINE",
"40 320 LINE",
"10 320 LINE"
);
},
{
closed = 1;
nodes = (
"148 431 LINE",
"189 431 LINE",
"189 320 LINE",
"148 320 LINE",
"148 108 LINE",
"185 108 OFFCURVE",
"206 112 OFFCURVE",
"217 148 CURVE SMOOTH",
"222 165 OFFCURVE",
"226 191 OFFCURVE",
"227 226 CURVE SMOOTH",
"228 261 OFFCURVE",
"228 308 OFFCURVE",
"228 368 CURVE SMOOTH",
"228 428 OFFCURVE",
"228 475 OFFCURVE",
"227 510 CURVE SMOOTH",
"226 544 OFFCURVE",
"222 570 OFFCURVE",
"217 588 CURVE SMOOTH",
"206 623 OFFCURVE",
"185 627 OFFCURVE",
"148 627 CURVE"
);
}
);
width = 372;
}
);
unicode = 00D0;
},
{
glyphname = Dcaron;
lastChange = "2012-05-22 22:56:21 +0000";
layers = (
{
layerId = "1AB499B8-18A8-432D-A211-B6882CCB886D";
name = Regular;
paths = (
{
closed = 1;
nodes = (
"340 223 OFFCURVE",
"336 132 OFFCURVE",
"308 76 CURVE SMOOTH",
"279 20 OFFCURVE",
"225 0 OFFCURVE",
"125 0 CURVE SMOOTH",
"40 0 LINE",
"40 735 LINE",
"125 735 LINE SMOOTH",
"225 735 OFFCURVE",
"279 715 OFFCURVE",
"308 659 CURVE SMOOTH",
"336 603 OFFCURVE",
"340 511 OFFCURVE",
"340 367 CURVE SMOOTH"
);
},
{
closed = 1;
nodes = (
"148 108 LINE",
"185 108 OFFCURVE",
"206 112 OFFCURVE",
"217 148 CURVE SMOOTH",
"222 165 OFFCURVE",
"226 191 OFFCURVE",
"227 226 CURVE SMOOTH",
"228 261 OFFCURVE",
"228 308 OFFCURVE",
"228 368 CURVE SMOOTH",
"228 428 OFFCURVE",
"228 475 OFFCURVE",
"227 510 CURVE SMOOTH",
"226 544 OFFCURVE",
"222 570 OFFCURVE",
"217 588 CURVE SMOOTH",
"206 623 OFFCURVE",
"185 627 OFFCURVE",
"148 627 CURVE"
);
},
{
closed = 1;
nodes = (
"134 825 LINE",
"65 915 LINE",
"157 915 LINE",
"187 880 LINE",
"218 915 LINE",
"310 915 LINE",
"241 825 LINE"
);
}
);
width = 372;
}
);
unicode = 010E;
},
{
glyphname = Dcroat;
lastChange = "2012-05-22 22:56:21 +0000";
layers = (
{
layerId = "1AB499B8-18A8-432D-A211-B6882CCB886D";
name = Regular;
paths = (
{
closed = 1;
nodes = (
"340 223 OFFCURVE",
"336 132 OFFCURVE",
"308 76 CURVE SMOOTH",
"279 20 OFFCURVE",
"225 0 OFFCURVE",
"125 0 CURVE SMOOTH",
"40 0 LINE",
"40 735 LINE",
"125 735 LINE SMOOTH",
"225 735 OFFCURVE",
"279 715 OFFCURVE",
"308 659 CURVE SMOOTH",
"336 603 OFFCURVE",
"340 511 OFFCURVE",
"340 367 CURVE SMOOTH"
);
},
{
closed = 1;
nodes = (
"148 108 LINE",
"185 108 OFFCURVE",
"206 112 OFFCURVE",
"217 148 CURVE SMOOTH",
"222 165 OFFCURVE",
"226 191 OFFCURVE",
"227 226 CURVE SMOOTH",
"228 261 OFFCURVE",
"228 308 OFFCURVE",
"228 368 CURVE SMOOTH",
"228 428 OFFCURVE",
"228 475 OFFCURVE",
"227 510 CURVE SMOOTH",
"226 544 OFFCURVE",
"222 570 OFFCURVE",
"217 588 CURVE SMOOTH",
"206 623 OFFCURVE",
"185 627 OFFCURVE",
"148 627 CURVE"
);
},
{
closed = 1;
nodes = (
"-19 410 LINE",
"175 410 LINE",
"175 331 LINE",
"-19 331 LINE"
);
}
);
width = 372;
}
);
unicode = 0110;
},
{
glyphname = E;
lastChange = "2012-05-22 22:56:21 +0000";
layers = (
{
anchors = (
{
name = bottom;
position = "{154, 0}";
},
{
name = ogonek;
position = "{276, 10}";
},
{
name = top;
position = "{154, 735}";
}
);
layerId = "1AB499B8-18A8-432D-A211-B6882CCB886D";
name = Regular;
paths = (
{
closed = 1;
nodes = (
"40 735 LINE",
"287 735 LINE",
"287 624 LINE",
"148 624 LINE",
"148 431 LINE",
"248 431 LINE",
"248 313 LINE",
"148 313 LINE",
"148 111 LINE",
"287 111 LINE",
"287 0 LINE",
"40 0 LINE"
);
}
);
width = 307;
}
);
rightKerningGroup = E;
unicode = 0045;
},
{
glyphname = Eacute;
lastChange = "2012-05-22 22:56:21 +0000";
layers = (
{
layerId = "1AB499B8-18A8-432D-A211-B6882CCB886D";
name = Regular;
paths = (
{
closed = 1;
nodes = (
"40 735 LINE",
"287 735 LINE",
"287 624 LINE",
"148 624 LINE",
"148 431 LINE",
"248 431 LINE",
"248 313 LINE",
"148 313 LINE",
"148 111 LINE",
"287 111 LINE",
"287 0 LINE",
"40 0 LINE"
);
},
{
closed = 1;
nodes = (
"272 890 LINE",
"193 800 LINE",
"115 800 LINE",
"167 890 LINE"
);
}
);
width = 307;
}
);
rightKerningGroup = E;
unicode = 00C9;
},
{
glyphname = Ebreve;
lastChange = "2012-05-22 22:56:21 +0000";
layers = (
{
layerId = "1AB499B8-18A8-432D-A211-B6882CCB886D";
name = Regular;
paths = (
{
closed = 1;
nodes = (
"40 735 LINE",
"287 735 LINE",
"287 624 LINE",
"148 624 LINE",
"148 431 LINE",
"248 431 LINE",
"248 313 LINE",
"148 313 LINE",
"148 111 LINE",
"287 111 LINE",
"287 0 LINE",
"40 0 LINE"
);
},
{
closed = 1;
nodes = (
"265 871 LINE",
"248 854 OFFCURVE",
"228 840 OFFCURVE",
"201 831 CURVE",
"188 826 OFFCURVE",
"172 824 OFFCURVE",
"155 824 CURVE SMOOTH",
"120 824 OFFCURVE",
"93 835 OFFCURVE",
"74 847 CURVE SMOOTH",
"63 854 OFFCURVE",
"53 862 OFFCURVE",
"45 871 CURVE",
"99 917 LINE",
"106 908 OFFCURVE",
"117 901 OFFCURVE",
"131 897 CURVE SMOOTH",
"138 895 OFFCURVE",
"146 894 OFFCURVE",
"155 894 CURVE SMOOTH",
"174 894 OFFCURVE",
"187 898 OFFCURVE",
"198 905 CURVE",
"204 908 OFFCURVE",
"209 912 OFFCURVE",
"213 917 CURVE"
);
}
);
width = 307;
}
);
unicode = 0114;
},
{
glyphname = Ecaron;
lastChange = "2012-05-22 22:56:21 +0000";
layers = (
{
layerId = "1AB499B8-18A8-432D-A211-B6882CCB886D";
name = Regular;
paths = (
{
closed = 1;
nodes = (
"40 735 LINE",
"287 735 LINE",
"287 624 LINE",
"148 624 LINE",
"148 431 LINE",
"248 431 LINE",
"248 313 LINE",
"148 313 LINE",
"148 111 LINE",
"287 111 LINE",
"287 0 LINE",
"40 0 LINE"
);
},
{
closed = 1;
nodes = (
"101 825 LINE",
"32 915 LINE",
"124 915 LINE",
"154 880 LINE",
"185 915 LINE",
"277 915 LINE",
"208 825 LINE"
);
}
);
width = 307;
}
);
unicode = 011A;
},
{
glyphname = Ecircumflex;
lastChange = "2012-05-22 22:56:21 +0000";
layers = (
{
layerId = "1AB499B8-18A8-432D-A211-B6882CCB886D";
name = Regular;
paths = (
{
closed = 1;
nodes = (
"40 735 LINE",
"287 735 LINE",
"287 624 LINE",
"148 624 LINE",
"148 431 LINE",
"248 431 LINE",
"248 313 LINE",
"148 313 LINE",
"148 111 LINE",
"287 111 LINE",
"287 0 LINE",
"40 0 LINE"
);
},
{
closed = 1;
nodes = (
"217 890 LINE",
"286 800 LINE",
"194 800 LINE",
"163 835 LINE",
"133 800 LINE",
"41 800 LINE",
"110 890 LINE"
);
}
);
width = 307;
}
);
rightKerningGroup = E;
unicode = 00CA;
},
{
glyphname = Edieresis;
lastChange = "2012-05-22 22:56:21 +0000";
layers = (
{
layerId = "1AB499B8-18A8-432D-A211-B6882CCB886D";
name = Regular;
paths = (
{
closed = 1;
nodes = (
"40 735 LINE",
"287 735 LINE",
"287 624 LINE",
"148 624 LINE",
"148 431 LINE",
"248 431 LINE",
"248 313 LINE",
"148 313 LINE",
"148 111 LINE",
"287 111 LINE",
"287 0 LINE",
"40 0 LINE"
);
},
{
closed = 1;
nodes = (
"46 898 LINE",
"139 898 LINE",
"139 800 LINE",
"46 800 LINE"
);
},
{
closed = 1;
nodes = (
"187 898 LINE",
"280 898 LINE",
"280 800 LINE",
"187 800 LINE"
);
}
);
width = 307;
}
);
rightKerningGroup = E;
unicode = 00CB;
},
{
glyphname = Edotaccent;
lastChange = "2012-05-22 22:56:21 +0000";
layers = (
{
layerId = "1AB499B8-18A8-432D-A211-B6882CCB886D";
name = Regular;
paths = (
{
closed = 1;
nodes = (
"40 735 LINE",
"287 735 LINE",
"287 624 LINE",
"148 624 LINE",
"148 431 LINE",
"248 431 LINE",
"248 313 LINE",
"148 313 LINE",
"148 111 LINE",
"287 111 LINE",
"287 0 LINE",
"40 0 LINE"
);
},
{
closed = 1;
nodes = (
"104 923 LINE",
"205 923 LINE",
"205 822 LINE",
"104 822 LINE"
);
}
);
width = 307;
}
);
unicode = 0116;
},
{
glyphname = Egrave;
lastChange = "2012-05-22 22:56:21 +0000";
layers = (
{
layerId = "1AB499B8-18A8-432D-A211-B6882CCB886D";
name = Regular;
paths = (
{
closed = 1;
nodes = (
"40 735 LINE",
"287 735 LINE",
"287 624 LINE",
"148 624 LINE",
"148 431 LINE",
"248 431 LINE",
"248 313 LINE",
"148 313 LINE",
"148 111 LINE",
"287 111 LINE",
"287 0 LINE",
"40 0 LINE"
);
},
{
closed = 1;
nodes = (
"159 890 LINE",
"211 800 LINE",
"133 800 LINE",
"54 890 LINE"
);
}
);
width = 307;
}
);
rightKerningGroup = E;
unicode = 00C8;
},
{
glyphname = Emacron;
lastChange = "2012-05-22 22:56:21 +0000";
layers = (
{
layerId = "1AB499B8-18A8-432D-A211-B6882CCB886D";
name = Regular;
paths = (
{
closed = 1;
nodes = (
"40 735 LINE",
"287 735 LINE",
"287 624 LINE",
"148 624 LINE",
"148 431 LINE",
"248 431 LINE",
"248 313 LINE",
"148 313 LINE",
"148 111 LINE",
"287 111 LINE",
"287 0 LINE",
"40 0 LINE"
);
},
{
closed = 1;
nodes = (
"58 909 LINE",
"252 909 LINE",
"252 830 LINE",
"58 830 LINE"
);
}
);
width = 307;
}
);
unicode = 0112;
},
{
glyphname = Eogonek;
lastChange = "2012-05-22 22:56:21 +0000";
layers = (
{
layerId = "1AB499B8-18A8-432D-A211-B6882CCB886D";
name = Regular;
paths = (
{
closed = 1;
nodes = (
"40 735 LINE",
"287 735 LINE",
"287 624 LINE",
"148 624 LINE",
"148 431 LINE",
"248 431 LINE",
"248 313 LINE",
"148 313 LINE",
"148 111 LINE",
"287 111 LINE",
"287 0 LINE",
"40 0 LINE"
);
},
{
closed = 1;
nodes = (
"127 -75 OFFCURVE",
"143 -50 OFFCURVE",
"160 -31 CURVE",
"169 -20 OFFCURVE",
"180 -9 OFFCURVE",
"193 0 CURVE",
"241 0 LINE",
"224 -15 OFFCURVE",
"212 -30 OFFCURVE",
"203 -50 CURVE",
"198 -60 OFFCURVE",
"196 -71 OFFCURVE",
"196 -83 CURVE SMOOTH",
"196 -112 OFFCURVE",
"223 -121 OFFCURVE",
"246 -121 CURVE SMOOTH",
"263 -121 OFFCURVE",
"276 -117 OFFCURVE",
"288 -112 CURVE",
"280 -179 LINE",
"259 -186 OFFCURVE",
"246 -188 OFFCURVE",
"229 -188 CURVE SMOOTH",
"164 -188 OFFCURVE",
"127 -148 OFFCURVE",
"127 -103 CURVE SMOOTH"
);
}
);
width = 307;
}
);
unicode = 0118;
},
{
glyphname = F;
lastChange = "2012-05-22 22:56:21 +0000";
layers = (
{
layerId = "1AB499B8-18A8-432D-A211-B6882CCB886D";
name = Regular;
paths = (
{
closed = 1;
nodes = (
"297 624 LINE",
"148 624 LINE",
"148 431 LINE",
"248 431 LINE",
"248 320 LINE",
"148 320 LINE",
"148 0 LINE",
"40 0 LINE",
"40 735 LINE",
"297 735 LINE"
);
}
);
width = 301;
}
);
unicode = 0046;
},
{
glyphname = G;
lastChange = "2012-05-22 22:56:21 +0000";
layers = (
{
anchors = (
{
name = bottom;
position = "{180, 0}";
},
{
name = top;
position = "{180, 735}";
}
);
layerId = "1AB499B8-18A8-432D-A211-B6882CCB886D";
name = Regular;
paths = (
{
closed = 1;
nodes = (
"213 471 LINE",
"213 584 LINE SMOOTH",
"213 604 OFFCURVE",
"209 618 OFFCURVE",
"199 630 CURVE",
"194 635 OFFCURVE",
"186 638 OFFCURVE",
"177 638 CURVE SMOOTH",
"158 638 OFFCURVE",
"149 624 OFFCURVE",
"145 611 CURVE",
"142 603 OFFCURVE",
"141 594 OFFCURVE",
"141 584 CURVE SMOOTH",
"141 142 LINE SMOOTH",
"141 121 OFFCURVE",
"146 107 OFFCURVE",
"156 96 CURVE",
"161 91 OFFCURVE",
"168 88 OFFCURVE",
"177 88 CURVE SMOOTH",
"196 88 OFFCURVE",
"205 100 OFFCURVE",
"209 115 CURVE",
"212 122 OFFCURVE",
"213 131 OFFCURVE",
"213 142 CURVE SMOOTH",
"213 275 LINE",
"170 275 LINE",
"170 366 LINE",
"321 366 LINE",
"321 0 LINE",
"257 0 LINE",
"244 35 LINE",
"224 10 OFFCURVE",
"195 -8 OFFCURVE",
"160 -8 CURVE SMOOTH",
"125 -8 OFFCURVE",
"101 1 OFFCURVE",
"83 17 CURVE SMOOTH",
"65 32 OFFCURVE",
"53 51 OFFCURVE",
"45 71 CURVE SMOOTH",
"36 94 OFFCURVE",
"32 121 OFFCURVE",
"33 151 CURVE SMOOTH",
"33 584 LINE SMOOTH",
"34 613 OFFCURVE",
"40 640 OFFCURVE",
"51 663 CURVE SMOOTH",
"60 683 OFFCURVE",
"73 703 OFFCURVE",
"93 718 CURVE SMOOTH",
"113 733 OFFCURVE",
"141 743 OFFCURVE",
"177 743 CURVE SMOOTH",
"213 743 OFFCURVE",
"240 733 OFFCURVE",
"260 718 CURVE SMOOTH",
"280 703 OFFCURVE",
"294 683 OFFCURVE",
"303 663 CURVE SMOOTH",
"314 640 OFFCURVE",
"320 613 OFFCURVE",
"321 584 CURVE SMOOTH",
"321 471 LINE"
);
}
);
width = 360;
}
);
unicode = 0047;
},
{
glyphname = Gbreve;
lastChange = "2012-05-22 22:56:21 +0000";
layers = (
{
layerId = "1AB499B8-18A8-432D-A211-B6882CCB886D";
name = Regular;
paths = (
{
closed = 1;
nodes = (
"213 471 LINE",
"213 584 LINE SMOOTH",
"213 604 OFFCURVE",
"209 618 OFFCURVE",
"199 630 CURVE",
"194 635 OFFCURVE",
"186 638 OFFCURVE",
"177 638 CURVE SMOOTH",
"158 638 OFFCURVE",
"149 624 OFFCURVE",
"145 611 CURVE",
"142 603 OFFCURVE",
"141 594 OFFCURVE",
"141 584 CURVE SMOOTH",
"141 142 LINE SMOOTH",
"141 121 OFFCURVE",
"146 107 OFFCURVE",
"156 96 CURVE",
"161 91 OFFCURVE",
"168 88 OFFCURVE",
"177 88 CURVE SMOOTH",
"196 88 OFFCURVE",
"205 100 OFFCURVE",
"209 115 CURVE",
"212 122 OFFCURVE",
"213 131 OFFCURVE",
"213 142 CURVE SMOOTH",
"213 275 LINE",
"170 275 LINE",
"170 366 LINE",
"321 366 LINE",
"321 0 LINE",
"257 0 LINE",
"244 35 LINE",
"224 10 OFFCURVE",
"195 -8 OFFCURVE",
"160 -8 CURVE SMOOTH",
"125 -8 OFFCURVE",
"101 1 OFFCURVE",
"83 17 CURVE SMOOTH",
"65 32 OFFCURVE",
"53 51 OFFCURVE",
"45 71 CURVE SMOOTH",
"36 94 OFFCURVE",
"32 121 OFFCURVE",
"33 151 CURVE SMOOTH",
"33 584 LINE SMOOTH",
"34 613 OFFCURVE",
"40 640 OFFCURVE",
"51 663 CURVE SMOOTH",
"60 683 OFFCURVE",
"73 703 OFFCURVE",
"93 718 CURVE SMOOTH",
"113 733 OFFCURVE",
"141 743 OFFCURVE",
"177 743 CURVE SMOOTH",
"213 743 OFFCURVE",
"240 733 OFFCURVE",
"260 718 CURVE SMOOTH",
"280 703 OFFCURVE",
"294 683 OFFCURVE",
"303 663 CURVE SMOOTH",
"314 640 OFFCURVE",
"320 613 OFFCURVE",
"321 584 CURVE SMOOTH",
"321 471 LINE"
);
},
{
closed = 1;
nodes = (
"291 871 LINE",
"274 854 OFFCURVE",
"254 840 OFFCURVE",
"227 831 CURVE",
"214 826 OFFCURVE",
"198 824 OFFCURVE",
"181 824 CURVE SMOOTH",
"146 824 OFFCURVE",
"119 835 OFFCURVE",
"100 847 CURVE SMOOTH",
"89 854 OFFCURVE",
"79 862 OFFCURVE",
"71 871 CURVE",
"125 917 LINE",
"132 908 OFFCURVE",
"143 901 OFFCURVE",
"157 897 CURVE SMOOTH",
"164 895 OFFCURVE",
"172 894 OFFCURVE",
"181 894 CURVE SMOOTH",
"200 894 OFFCURVE",
"213 898 OFFCURVE",
"224 905 CURVE",
"230 908 OFFCURVE",
"235 912 OFFCURVE",
"239 917 CURVE"
);
}
);
width = 360;
}
);
unicode = 011E;
},
{
glyphname = Gcircumflex;
lastChange = "2012-05-22 22:56:21 +0000";
layers = (
{
layerId = "1AB499B8-18A8-432D-A211-B6882CCB886D";
name = Regular;
paths = (
{
closed = 1;
nodes = (
"213 471 LINE",
"213 584 LINE SMOOTH",
"213 604 OFFCURVE",
"209 618 OFFCURVE",
"199 630 CURVE",
"194 635 OFFCURVE",
"186 638 OFFCURVE",
"177 638 CURVE SMOOTH",
"158 638 OFFCURVE",
"149 624 OFFCURVE",
"145 611 CURVE",
"142 603 OFFCURVE",
"141 594 OFFCURVE",
"141 584 CURVE SMOOTH",
"141 142 LINE SMOOTH",
"141 121 OFFCURVE",
"146 107 OFFCURVE",
"156 96 CURVE",
"161 91 OFFCURVE",
"168 88 OFFCURVE",
"177 88 CURVE SMOOTH",
"196 88 OFFCURVE",
"205 100 OFFCURVE",
"209 115 CURVE",
"212 122 OFFCURVE",
"213 131 OFFCURVE",
"213 142 CURVE SMOOTH",
"213 275 LINE",
"170 275 LINE",
"170 366 LINE",
"321 366 LINE",
"321 0 LINE",
"257 0 LINE",
"244 35 LINE",
"224 10 OFFCURVE",
"195 -8 OFFCURVE",
"160 -8 CURVE SMOOTH",
"125 -8 OFFCURVE",
"101 1 OFFCURVE",
"83 17 CURVE SMOOTH",
"65 32 OFFCURVE",
"53 51 OFFCURVE",
"45 71 CURVE SMOOTH",
"36 94 OFFCURVE",
"32 121 OFFCURVE",
"33 151 CURVE SMOOTH",
"33 584 LINE SMOOTH",
"34 613 OFFCURVE",
"40 640 OFFCURVE",
"51 663 CURVE SMOOTH",
"60 683 OFFCURVE",
"73 703 OFFCURVE",
"93 718 CURVE SMOOTH",
"113 733 OFFCURVE",
"141 743 OFFCURVE",
"177 743 CURVE SMOOTH",
"213 743 OFFCURVE",
"240 733 OFFCURVE",
"260 718 CURVE SMOOTH",
"280 703 OFFCURVE",
"294 683 OFFCURVE",
"303 663 CURVE SMOOTH",
"314 640 OFFCURVE",
"320 613 OFFCURVE",
"321 584 CURVE SMOOTH",
"321 471 LINE"
);
},
{
closed = 1;
nodes = (
"235 915 LINE",
"304 825 LINE",
"212 825 LINE",
"181 860 LINE",
"151 825 LINE",
"59 825 LINE",
"128 915 LINE"
);
}
);
width = 360;
}
);
unicode = 011C;
},
{
glyphname = Gcommaaccent;
lastChange = "2012-05-22 22:56:21 +0000";
layers = (
{
layerId = "1AB499B8-18A8-432D-A211-B6882CCB886D";
name = Regular;
paths = (
{
closed = 1;
nodes = (
"213 471 LINE",
"213 584 LINE SMOOTH",
"213 604 OFFCURVE",
"209 618 OFFCURVE",
"199 630 CURVE",
"194 635 OFFCURVE",
"186 638 OFFCURVE",
"177 638 CURVE SMOOTH",
"158 638 OFFCURVE",
"149 624 OFFCURVE",
"145 611 CURVE",
"142 603 OFFCURVE",
"141 594 OFFCURVE",
"141 584 CURVE SMOOTH",
"141 142 LINE SMOOTH",
"141 121 OFFCURVE",
"146 107 OFFCURVE",
"156 96 CURVE",
"161 91 OFFCURVE",
"168 88 OFFCURVE",
"177 88 CURVE SMOOTH",
"196 88 OFFCURVE",
"205 100 OFFCURVE",
"209 115 CURVE",
"212 122 OFFCURVE",
"213 131 OFFCURVE",
"213 142 CURVE SMOOTH",
"213 275 LINE",
"170 275 LINE",
"170 366 LINE",
"321 366 LINE",
"321 0 LINE",
"257 0 LINE",
"244 35 LINE",
"224 10 OFFCURVE",
"195 -8 OFFCURVE",
"160 -8 CURVE SMOOTH",
"125 -8 OFFCURVE",
"101 1 OFFCURVE",
"83 17 CURVE SMOOTH",
"65 32 OFFCURVE",
"53 51 OFFCURVE",
"45 71 CURVE SMOOTH",
"36 94 OFFCURVE",
"32 121 OFFCURVE",
"33 151 CURVE SMOOTH",
"33 584 LINE SMOOTH",
"34 613 OFFCURVE",
"40 640 OFFCURVE",
"51 663 CURVE SMOOTH",
"60 683 OFFCURVE",
"73 703 OFFCURVE",
"93 718 CURVE SMOOTH",
"113 733 OFFCURVE",
"141 743 OFFCURVE",
"177 743 CURVE SMOOTH",
"213 743 OFFCURVE",
"240 733 OFFCURVE",
"260 718 CURVE SMOOTH",
"280 703 OFFCURVE",
"294 683 OFFCURVE",
"303 663 CURVE SMOOTH",
"314 640 OFFCURVE",
"320 613 OFFCURVE",
"321 584 CURVE SMOOTH",
"321 471 LINE"
);
},
{
closed = 1;
nodes = (
"215 -123 LINE",
"193 -188 LINE",
"142 -188 LINE",
"162 -123 LINE",
"131 -123 LINE",
"131 -54 LINE",
"215 -54 LINE"
);
}
);
width = 360;
}
);
unicode = 0122;
},
{
glyphname = Gdotaccent;
lastChange = "2012-05-22 22:56:21 +0000";
layers = (
{
layerId = "1AB499B8-18A8-432D-A211-B6882CCB886D";
name = Regular;
paths = (
{
closed = 1;
nodes = (
"213 471 LINE",
"213 584 LINE SMOOTH",
"213 604 OFFCURVE",
"209 618 OFFCURVE",
"199 630 CURVE",
"194 635 OFFCURVE",
"186 638 OFFCURVE",
"177 638 CURVE SMOOTH",
"158 638 OFFCURVE",
"149 624 OFFCURVE",
"145 611 CURVE",
"142 603 OFFCURVE",
"141 594 OFFCURVE",
"141 584 CURVE SMOOTH",
"141 142 LINE SMOOTH",
"141 121 OFFCURVE",
"146 107 OFFCURVE",
"156 96 CURVE",
"161 91 OFFCURVE",
"168 88 OFFCURVE",
"177 88 CURVE SMOOTH",
"196 88 OFFCURVE",
"205 100 OFFCURVE",
"209 115 CURVE",
"212 122 OFFCURVE",
"213 131 OFFCURVE",
"213 142 CURVE SMOOTH",
"213 275 LINE",
"170 275 LINE",
"170 366 LINE",
"321 366 LINE",
"321 0 LINE",
"257 0 LINE",
"244 35 LINE",
"224 10 OFFCURVE",
"195 -8 OFFCURVE",
"160 -8 CURVE SMOOTH",
"125 -8 OFFCURVE",
"101 1 OFFCURVE",
"83 17 CURVE SMOOTH",
"65 32 OFFCURVE",
"53 51 OFFCURVE",
"45 71 CURVE SMOOTH",
"36 94 OFFCURVE",
"32 121 OFFCURVE",
"33 151 CURVE SMOOTH",
"33 584 LINE SMOOTH",
"34 613 OFFCURVE",
"40 640 OFFCURVE",
"51 663 CURVE SMOOTH",
"60 683 OFFCURVE",
"73 703 OFFCURVE",
"93 718 CURVE SMOOTH",
"113 733 OFFCURVE",
"141 743 OFFCURVE",
"177 743 CURVE SMOOTH",
"213 743 OFFCURVE",
"240 733 OFFCURVE",
"260 718 CURVE SMOOTH",
"280 703 OFFCURVE",
"294 683 OFFCURVE",
"303 663 CURVE SMOOTH",
"314 640 OFFCURVE",
"320 613 OFFCURVE",
"321 584 CURVE SMOOTH",
"321 471 LINE"
);
},
{
closed = 1;
nodes = (
"131 923 LINE",
"232 923 LINE",
"232 822 LINE",
"131 822 LINE"
);
}
);
width = 360;
}
);
unicode = 0120;
},
{
glyphname = H;
lastChange = "2012-05-22 22:56:21 +0000";
layers = (
{
anchors = (
{
name = center;
position = "{190, 368}";
},
{
name = top;
position = "{190, 735}";
}
);
layerId = "1AB499B8-18A8-432D-A211-B6882CCB886D";
name = Regular;
paths = (
{
closed = 1;
nodes = (
"232 320 LINE",
"148 320 LINE",
"148 0 LINE",
"40 0 LINE",
"40 735 LINE",
"148 735 LINE",
"148 431 LINE",
"232 431 LINE",
"232 735 LINE",
"340 735 LINE",
"340 0 LINE",
"232 0 LINE"
);
}
);
width = 380;
}
);
unicode = 0048;
},
{
glyphname = Hbar;
lastChange = "2012-05-22 22:56:21 +0000";
layers = (
{
layerId = "1AB499B8-18A8-432D-A211-B6882CCB886D";
name = Regular;
paths = (
{
closed = 1;
nodes = (
"232 320 LINE",
"148 320 LINE",
"148 0 LINE",
"40 0 LINE",
"40 735 LINE",
"148 735 LINE",
"148 431 LINE",
"232 431 LINE",
"232 735 LINE",
"340 735 LINE",
"340 0 LINE",
"232 0 LINE"
);
},
{
closed = 1;
nodes = (
"1 627 LINE",
"380 627 LINE",
"380 548 LINE",
"1 548 LINE"
);
}
);
width = 380;
}
);
unicode = 0126;
},
{
glyphname = Hcircumflex;
lastChange = "2012-05-22 22:56:21 +0000";
layers = (
{
layerId = "1AB499B8-18A8-432D-A211-B6882CCB886D";
name = Regular;
paths = (
{
closed = 1;
nodes = (
"232 320 LINE",
"148 320 LINE",
"148 0 LINE",
"40 0 LINE",
"40 735 LINE",
"148 735 LINE",
"148 431 LINE",
"232 431 LINE",
"232 735 LINE",
"340 735 LINE",
"340 0 LINE",
"232 0 LINE"
);
},
{
closed = 1;
nodes = (
"245 915 LINE",
"314 825 LINE",
"222 825 LINE",
"191 860 LINE",
"161 825 LINE",
"69 825 LINE",
"138 915 LINE"
);
}
);
width = 380;
}
);
unicode = 0124;
},
{
glyphname = I;
lastChange = "2012-05-22 22:56:21 +0000";
layers = (
{
anchors = (
{
name = ogonek;
position = "{169, 10}";
},
{
name = top;
position = "{94, 735}";
}
);
layerId = "1AB499B8-18A8-432D-A211-B6882CCB886D";
name = Regular;
paths = (
{
closed = 1;
nodes = (
"40 735 LINE",
"148 735 LINE",
"148 0 LINE",
"40 0 LINE"
);
}
);
width = 188;
}
);
leftKerningGroup = l;
rightKerningGroup = l;
unicode = 0049;
},
{
glyphname = IJ;
lastChange = "2012-05-22 22:56:21 +0000";
layers = (
{
layerId = "1AB499B8-18A8-432D-A211-B6882CCB886D";
name = Regular;
paths = (
{
closed = 1;
nodes = (
"40 735 LINE",
"148 735 LINE",
"148 0 LINE",
"40 0 LINE"
);
},
{
closed = 1;
nodes = (
"194 99 LINE",
"215 96 OFFCURVE",
"231 101 OFFCURVE",
"243 117 CURVE",
"249 124 OFFCURVE",
"252 136 OFFCURVE",
"252 153 CURVE SMOOTH",
"252 735 LINE",
"360 735 LINE",
"360 136 LINE SMOOTH",
"360 96 OFFCURVE",
"350 59 OFFCURVE",
"325 32 CURVE SMOOTH",
"300 5 OFFCURVE",
"258 -11 OFFCURVE",
"194 -7 CURVE"
);
}
);
width = 395;
}
);
unicode = 0132;
},
{
glyphname = Iacute;
lastChange = "2012-05-22 22:56:21 +0000";
layers = (
{
layerId = "1AB499B8-18A8-432D-A211-B6882CCB886D";
name = Regular;
paths = (
{
closed = 1;
nodes = (
"40 735 LINE",
"148 735 LINE",
"148 0 LINE",
"40 0 LINE"
);
},
{
closed = 1;
nodes = (
"199 890 LINE",
"120 800 LINE",
"42 800 LINE",
"94 890 LINE"
);
}
);
width = 196;
}
);
leftKerningGroup = l;
rightKerningGroup = l;
unicode = 00CD;
},
{
glyphname = Ibreve;
lastChange = "2012-05-22 22:56:21 +0000";
layers = (
{
layerId = "1AB499B8-18A8-432D-A211-B6882CCB886D";
name = Regular;
paths = (
{
closed = 1;
nodes = (
"40 735 LINE",
"148 735 LINE",
"148 0 LINE",
"40 0 LINE"
);
},
{
closed = 1;
nodes = (
"205 871 LINE",
"188 854 OFFCURVE",
"168 840 OFFCURVE",
"141 831 CURVE",
"128 826 OFFCURVE",
"112 824 OFFCURVE",
"95 824 CURVE SMOOTH",
"60 824 OFFCURVE",
"33 835 OFFCURVE",
"14 847 CURVE SMOOTH",
"3 854 OFFCURVE",
"-7 862 OFFCURVE",
"-15 871 CURVE",
"39 917 LINE",
"46 908 OFFCURVE",
"57 901 OFFCURVE",
"71 897 CURVE SMOOTH",
"78 895 OFFCURVE",
"86 894 OFFCURVE",
"95 894 CURVE SMOOTH",
"114 894 OFFCURVE",
"127 898 OFFCURVE",
"138 905 CURVE",
"144 908 OFFCURVE",
"149 912 OFFCURVE",
"153 917 CURVE"
);
}
);
width = 188;
}
);
unicode = 012C;
},
{
glyphname = Icircumflex;
lastChange = "2012-05-22 22:56:21 +0000";
layers = (
{
layerId = "1AB499B8-18A8-432D-A211-B6882CCB886D";
name = Regular;
paths = (
{
closed = 1;
nodes = (
"36 735 LINE",
"144 735 LINE",
"144 0 LINE",
"36 0 LINE"
);
},
{
closed = 1;
nodes = (
"144 890 LINE",
"213 800 LINE",
"121 800 LINE",
"90 835 LINE",
"60 800 LINE",
"-32 800 LINE",
"37 890 LINE"
);
}
);
width = 181;
}
);
leftKerningGroup = icircumflex;
rightKerningGroup = icircumflex;
unicode = 00CE;
},
{
glyphname = Idieresis;
lastChange = "2012-05-22 22:56:21 +0000";
layers = (
{
layerId = "1AB499B8-18A8-432D-A211-B6882CCB886D";
name = Regular;
paths = (
{
closed = 1;
nodes = (
"37 735 LINE",
"145 735 LINE",
"145 0 LINE",
"37 0 LINE"
);
},
{
closed = 1;
nodes = (
"-26 898 LINE",
"67 898 LINE",
"67 800 LINE",
"-26 800 LINE"
);
},
{
closed = 1;
nodes = (
"115 898 LINE",
"208 898 LINE",
"208 800 LINE",
"115 800 LINE"
);
}
);
width = 182;
}
);
leftKerningGroup = icircumflex;
rightKerningGroup = icircumflex;
unicode = 00CF;
},
{
glyphname = Idotaccent;
lastChange = "2012-05-22 22:56:21 +0000";
layers = (
{
layerId = "1AB499B8-18A8-432D-A211-B6882CCB886D";
name = Regular;
paths = (
{
closed = 1;
nodes = (
"40 735 LINE",
"148 735 LINE",
"148 0 LINE",
"40 0 LINE"
);
},
{
closed = 1;
nodes = (
"45 923 LINE",
"146 923 LINE",
"146 822 LINE",
"45 822 LINE"
);
}
);
width = 188;
}
);
unicode = 0130;
},
{
glyphname = Igrave;
lastChange = "2012-05-22 22:56:21 +0000";
layers = (
{
layerId = "1AB499B8-18A8-432D-A211-B6882CCB886D";
name = Regular;
paths = (
{
closed = 1;
nodes = (
"48 735 LINE",
"156 735 LINE",
"156 0 LINE",
"48 0 LINE"
);
},
{
closed = 1;
nodes = (
"102 890 LINE",
"154 800 LINE",
"76 800 LINE",
"-3 890 LINE"
);
}
);
width = 196;
}
);
leftKerningGroup = l;
rightKerningGroup = l;
unicode = 00CC;
},
{
glyphname = Imacron;
lastChange = "2012-05-22 22:56:21 +0000";
layers = (
{
layerId = "1AB499B8-18A8-432D-A211-B6882CCB886D";
name = Regular;
paths = (
{
closed = 1;
nodes = (
"40 735 LINE",
"148 735 LINE",
"148 0 LINE",
"40 0 LINE"
);
},
{
closed = 1;
nodes = (
"-2 909 LINE",
"192 909 LINE",
"192 830 LINE",
"-2 830 LINE"
);
}
);
width = 188;
}
);
unicode = 012A;
},
{
glyphname = Iogonek;
lastChange = "2012-05-22 22:56:21 +0000";
layers = (
{
layerId = "1AB499B8-18A8-432D-A211-B6882CCB886D";
name = Regular;
paths = (
{
closed = 1;
nodes = (
"40 735 LINE",
"148 735 LINE",
"148 0 LINE",
"40 0 LINE"
);
},
{
closed = 1;
nodes = (
"-12 -75 OFFCURVE",
"4 -50 OFFCURVE",
"21 -31 CURVE",
"30 -20 OFFCURVE",
"41 -9 OFFCURVE",
"54 0 CURVE",
"102 0 LINE",
"85 -15 OFFCURVE",
"73 -30 OFFCURVE",
"64 -50 CURVE",
"59 -60 OFFCURVE",
"57 -71 OFFCURVE",
"57 -83 CURVE SMOOTH",
"57 -112 OFFCURVE",
"84 -121 OFFCURVE",
"107 -121 CURVE SMOOTH",
"124 -121 OFFCURVE",
"137 -117 OFFCURVE",
"149 -112 CURVE",
"141 -179 LINE",
"120 -186 OFFCURVE",
"107 -188 OFFCURVE",
"90 -188 CURVE SMOOTH",
"25 -188 OFFCURVE",
"-12 -148 OFFCURVE",
"-12 -103 CURVE SMOOTH"
);
}
);
width = 188;
}
);
unicode = 012E;
},
{
glyphname = Itilde;
lastChange = "2012-05-22 22:56:21 +0000";
layers = (
{
layerId = "1AB499B8-18A8-432D-A211-B6882CCB886D";
name = Regular;
paths = (
{
closed = 1;
nodes = (
"40 735 LINE",
"148 735 LINE",
"148 0 LINE",
"40 0 LINE"
);
},
{
closed = 1;
nodes = (
"36 841 OFFCURVE",
"25 837 OFFCURVE",
"14 833 CURVE",
"8 830 OFFCURVE",
"3 828 OFFCURVE",
"-2 825 CURVE",
"-2 899 LINE",
"7 906 OFFCURVE",
"19 911 OFFCURVE",
"31 915 CURVE SMOOTH",
"37 917 OFFCURVE",
"44 918 OFFCURVE",
"51 918 CURVE SMOOTH",
"66 918 OFFCURVE",
"81 915 OFFCURVE",
"95 910 CURVE",
"109 904 OFFCURVE",
"124 900 OFFCURVE",
"139 899 CURVE",
"154 899 OFFCURVE",
"165 903 OFFCURVE",
"176 907 CURVE",
"182 910 OFFCURVE",
"187 912 OFFCURVE",
"192 915 CURVE",
"192 841 LINE",
"183 833 OFFCURVE",
"171 828 OFFCURVE",
"159 825 CURVE",
"153 823 OFFCURVE",
"146 822 OFFCURVE",
"139 822 CURVE SMOOTH",
"124 822 OFFCURVE",
"109 825 OFFCURVE",
"96 831 CURVE SMOOTH",
"82 837 OFFCURVE",
"67 840 OFFCURVE",
"51 841 CURVE"
);
}
);
width = 188;
}
);
unicode = 0128;
},
{
glyphname = J;
lastChange = "2012-05-22 22:56:21 +0000";
layers = (
{
anchors = (
{
name = top;
position = "{104, 735}";
}
);
layerId = "1AB499B8-18A8-432D-A211-B6882CCB886D";
name = Regular;
paths = (
{
closed = 1;
nodes = (
"6 99 LINE",
"27 96 OFFCURVE",
"43 101 OFFCURVE",
"55 117 CURVE",
"61 124 OFFCURVE",
"64 136 OFFCURVE",
"64 153 CURVE SMOOTH",
"64 735 LINE",
"172 735 LINE",
"172 136 LINE SMOOTH",
"172 96 OFFCURVE",
"162 59 OFFCURVE",
"137 32 CURVE SMOOTH",
"112 5 OFFCURVE",
"70 -11 OFFCURVE",
"6 -7 CURVE"
);
}
);
width = 207;
}
);
unicode = 004A;
},
{
glyphname = Jcircumflex;
lastChange = "2012-05-22 22:56:21 +0000";
layers = (
{
layerId = "1AB499B8-18A8-432D-A211-B6882CCB886D";
name = Regular;
paths = (
{
closed = 1;
nodes = (
"6 99 LINE",
"27 96 OFFCURVE",
"43 101 OFFCURVE",
"55 117 CURVE",
"61 124 OFFCURVE",
"64 136 OFFCURVE",
"64 153 CURVE SMOOTH",
"64 735 LINE",
"172 735 LINE",
"172 136 LINE SMOOTH",
"172 96 OFFCURVE",
"162 59 OFFCURVE",
"137 32 CURVE SMOOTH",
"112 5 OFFCURVE",
"70 -11 OFFCURVE",
"6 -7 CURVE"
);
},
{
closed = 1;
nodes = (
"158 915 LINE",
"227 825 LINE",
"135 825 LINE",
"104 860 LINE",
"74 825 LINE",
"-18 825 LINE",
"51 915 LINE"
);
}
);
width = 207;
}
);
unicode = 0134;
},
{
glyphname = K;
lastChange = "2012-05-22 22:56:21 +0000";
layers = (
{
anchors = (
{
name = bottom;
position = "{188, 0}";
},
{
name = top;
position = "{188, 735}";
}
);
layerId = "1AB499B8-18A8-432D-A211-B6882CCB886D";
name = Regular;
paths = (
{
closed = 1;
nodes = (
"148 735 LINE",
"148 490 LINE",
"148 478 LINE",
"152 478 LINE",
"157 490 LINE",
"247 735 LINE",
"352 735 LINE",
"253 493 LINE",
"365 0 LINE",
"260 0 LINE",
"185 320 LINE",
"182 335 LINE",
"179 335 LINE",
"173 320 LINE",
"148 260 LINE",
"148 0 LINE",
"40 0 LINE",
"40 735 LINE"
);
}
);
width = 375;
}
);
unicode = 004B;
},
{
glyphname = Kcommaaccent;
lastChange = "2012-05-22 22:56:21 +0000";
layers = (
{
layerId = "1AB499B8-18A8-432D-A211-B6882CCB886D";
name = Regular;
paths = (
{
closed = 1;
nodes = (
"148 735 LINE",
"148 490 LINE",
"148 478 LINE",
"152 478 LINE",
"157 490 LINE",
"247 735 LINE",
"352 735 LINE",
"253 493 LINE",
"365 0 LINE",
"260 0 LINE",
"185 320 LINE",
"182 335 LINE",
"179 335 LINE",
"173 320 LINE",
"148 260 LINE",
"148 0 LINE",
"40 0 LINE",
"40 735 LINE"
);
},
{
closed = 1;
nodes = (
"215 -123 LINE",
"193 -188 LINE",
"142 -188 LINE",
"162 -123 LINE",
"131 -123 LINE",
"131 -54 LINE",
"215 -54 LINE"
);
}
);
width = 375;
}
);
unicode = 0136;
},
{
glyphname = L;
lastChange = "2012-05-22 22:56:21 +0000";
layers = (
{
anchors = (
{
name = bottom;
position = "{148, 0}";
},
{
name = top;
position = "{148, 735}";
}
);
layerId = "1AB499B8-18A8-432D-A211-B6882CCB886D";
name = Regular;
paths = (
{
closed = 1;
nodes = (
"40 735 LINE",
"148 735 LINE",
"148 100 LINE",
"291 100 LINE",
"291 0 LINE",
"40 0 LINE"
);
}
);
width = 295;
}
);
unicode = 004C;
},
{
glyphname = Lacute;
lastChange = "2012-05-22 22:56:21 +0000";
layers = (
{
layerId = "1AB499B8-18A8-432D-A211-B6882CCB886D";
name = Regular;
paths = (
{
closed = 1;
nodes = (
"40 735 LINE",
"148 735 LINE",
"148 100 LINE",
"291 100 LINE",
"291 0 LINE",
"40 0 LINE"
);
},
{
closed = 1;
nodes = (
"227 915 LINE",
"148 825 LINE",
"70 825 LINE",
"122 915 LINE"
);
}
);
width = 295;
}
);
unicode = 0139;
},
{
glyphname = Lcaron;
lastChange = "2012-05-22 22:56:21 +0000";
layers = (
{
layerId = "1AB499B8-18A8-432D-A211-B6882CCB886D";
name = Regular;
paths = (
{
closed = 1;
nodes = (
"40 735 LINE",
"148 735 LINE",
"148 100 LINE",
"291 100 LINE",
"291 0 LINE",
"40 0 LINE"
);
},
{
closed = 1;
nodes = (
"289 737 LINE",
"234 607 LINE",
"184 607 LINE",
"219 737 LINE",
"184 737 LINE",
"184 848 LINE",
"289 848 LINE"
);
}
);
width = 295;
}
);
unicode = 013D;
},
{
glyphname = Lcommaaccent;
lastChange = "2012-05-22 22:56:21 +0000";
layers = (
{
layerId = "1AB499B8-18A8-432D-A211-B6882CCB886D";
name = Regular;
paths = (
{
closed = 1;
nodes = (
"40 735 LINE",
"148 735 LINE",
"148 100 LINE",
"291 100 LINE",
"291 0 LINE",
"40 0 LINE"
);
},
{
closed = 1;
nodes = (
"215 -123 LINE",
"193 -188 LINE",
"142 -188 LINE",
"162 -123 LINE",
"131 -123 LINE",
"131 -54 LINE",
"215 -54 LINE"
);
}
);
width = 295;
}
);
unicode = 013B;
},
{
glyphname = Ldot;
lastChange = "2012-05-22 22:56:21 +0000";
layers = (
{
layerId = "1AB499B8-18A8-432D-A211-B6882CCB886D";
name = Regular;
paths = (
{
closed = 1;
nodes = (
"40 735 LINE",
"148 735 LINE",
"148 100 LINE",
"291 100 LINE",
"291 0 LINE",
"40 0 LINE"
);
},
{
closed = 1;
nodes = (
"186 440 LINE",
"291 440 LINE",
"291 329 LINE",
"186 329 LINE"
);
}
);
width = 295;
}
);
unicode = 013F;
},
{
glyphname = Lslash;
lastChange = "2012-05-22 22:56:21 +0000";
layers = (
{
layerId = "1AB499B8-18A8-432D-A211-B6882CCB886D";
name = Regular;
paths = (
{
closed = 1;
nodes = (
"20 382 LINE",
"52 407 LINE",
"52 735 LINE",
"160 735 LINE",
"160 491 LINE",
"219 537 LINE",
"219 429 LINE",
"160 383 LINE",
"160 100 LINE",
"303 100 LINE",
"303 0 LINE",
"52 0 LINE",
"52 299 LINE",
"20 274 LINE"
);
}
);
width = 307;
}
);
unicode = 0141;
},
{
glyphname = M;
lastChange = "2012-05-22 22:56:21 +0000";
layers = (
{
layerId = "1AB499B8-18A8-432D-A211-B6882CCB886D";
name = Regular;
paths = (
{
closed = 1;
nodes = (
"219 0 LINE",
"150 462 LINE",
"146 493 LINE",
"140 493 LINE",
"140 462 LINE",
"140 0 LINE",
"40 0 LINE",
"40 735 LINE",
"172 735 LINE",
"236 399 LINE",
"241 360 LINE",
"243 360 LINE",
"248 399 LINE",
"312 735 LINE",
"444 735 LINE",
"444 0 LINE",
"344 0 LINE",
"344 462 LINE",
"344 493 LINE",
"338 493 LINE",
"334 462 LINE",
"265 0 LINE"
);
}
);
width = 484;
}
);
unicode = 004D;
},
{
glyphname = N;
lastChange = "2012-05-22 22:56:21 +0000";
layers = (
{
anchors = (
{
name = bottom;
position = "{198, 0}";
},
{
name = top;
position = "{198, 735}";
}
);
layerId = "1AB499B8-18A8-432D-A211-B6882CCB886D";
name = Regular;
paths = (
{
closed = 1;
nodes = (
"154 383 LINE",
"145 417 LINE",
"139 417 LINE",
"139 383 LINE",
"139 0 LINE",
"40 0 LINE",
"40 735 LINE",
"136 735 LINE",
"241 352 LINE",
"250 318 LINE",
"256 318 LINE",
"256 352 LINE",
"256 735 LINE",
"355 735 LINE",
"355 0 LINE",
"259 0 LINE"
);
}
);
width = 395;
}
);
unicode = 004E;
},
{
glyphname = Nacute;
lastChange = "2012-05-22 22:56:21 +0000";
layers = (
{
layerId = "1AB499B8-18A8-432D-A211-B6882CCB886D";
name = Regular;
paths = (
{
closed = 1;
nodes = (
"154 383 LINE",
"145 417 LINE",
"139 417 LINE",
"139 383 LINE",
"139 0 LINE",
"40 0 LINE",
"40 735 LINE",
"136 735 LINE",
"241 352 LINE",
"250 318 LINE",
"256 318 LINE",
"256 352 LINE",
"256 735 LINE",
"355 735 LINE",
"355 0 LINE",
"259 0 LINE"
);
},
{
closed = 1;
nodes = (
"277 915 LINE",
"198 825 LINE",
"120 825 LINE",
"172 915 LINE"
);
}
);
width = 395;
}
);
unicode = 0143;
},
{
glyphname = Ncaron;
lastChange = "2012-05-22 22:56:21 +0000";
layers = (
{
layerId = "1AB499B8-18A8-432D-A211-B6882CCB886D";
name = Regular;
paths = (
{
closed = 1;
nodes = (
"154 383 LINE",
"145 417 LINE",
"139 417 LINE",
"139 383 LINE",
"139 0 LINE",
"40 0 LINE",
"40 735 LINE",
"136 735 LINE",
"241 352 LINE",
"250 318 LINE",
"256 318 LINE",
"256 352 LINE",
"256 735 LINE",
"355 735 LINE",
"355 0 LINE",
"259 0 LINE"
);
},
{
closed = 1;
nodes = (
"145 825 LINE",
"76 915 LINE",
"168 915 LINE",
"198 880 LINE",
"229 915 LINE",
"321 915 LINE",
"252 825 LINE"
);
}
);
width = 395;
}
);
unicode = 0147;
},
{
glyphname = Ncommaaccent;
lastChange = "2012-05-22 22:56:21 +0000";
layers = (
{
layerId = "1AB499B8-18A8-432D-A211-B6882CCB886D";
name = Regular;
paths = (
{
closed = 1;
nodes = (
"154 383 LINE",
"145 417 LINE",
"139 417 LINE",
"139 383 LINE",
"139 0 LINE",
"40 0 LINE",
"40 735 LINE",
"136 735 LINE",
"241 352 LINE",
"250 318 LINE",
"256 318 LINE",
"256 352 LINE",
"256 735 LINE",
"355 735 LINE",
"355 0 LINE",
"259 0 LINE"
);
},
{
closed = 1;
nodes = (
"215 -123 LINE",
"193 -188 LINE",
"142 -188 LINE",
"162 -123 LINE",
"131 -123 LINE",
"131 -54 LINE",
"215 -54 LINE"
);
}
);
width = 395;
}
);
unicode = 0145;
},
{
glyphname = Eng;
lastChange = "2012-05-22 22:56:21 +0000";
layers = (
{
layerId = "1AB499B8-18A8-432D-A211-B6882CCB886D";
name = Regular;
paths = (
{
closed = 1;
nodes = (
"154 383 LINE",
"145 417 LINE",
"139 417 LINE",
"139 383 LINE",
"139 0 LINE",
"40 0 LINE",
"40 735 LINE",
"136 735 LINE",
"241 352 LINE",
"250 318 LINE",
"256 318 LINE",
"256 352 LINE",
"256 735 LINE",
"355 735 LINE",
"355 0 LINE",
"259 0 LINE"
);
},
{
closed = 1;
nodes = (
"216 -20 LINE",
"233 -23 OFFCURVE",
"248 -18 OFFCURVE",
"258 -3 CURVE SMOOTH",
"263 4 OFFCURVE",
"265 16 OFFCURVE",
"265 31 CURVE SMOOTH",
"265 585 LINE",
"355 585 LINE",
"355 15 LINE SMOOTH",
"355 -22 OFFCURVE",
"347 -59 OFFCURVE",
"326 -84 CURVE SMOOTH",
"305 -109 OFFCURVE",
"269 -125 OFFCURVE",
"216 -121 CURVE"
);
}
);
width = 395;
}
);
unicode = 014A;
},
{
glyphname = Ntilde;
lastChange = "2012-05-22 22:56:21 +0000";
layers = (
{
layerId = "1AB499B8-18A8-432D-A211-B6882CCB886D";
name = Regular;
paths = (
{
closed = 1;
nodes = (
"154 383 LINE",
"145 417 LINE",
"139 417 LINE",
"139 383 LINE",
"139 0 LINE",
"40 0 LINE",
"40 735 LINE",
"136 735 LINE",
"241 352 LINE",
"250 318 LINE",
"256 318 LINE",
"256 352 LINE",
"256 735 LINE",
"355 735 LINE",
"355 0 LINE",
"259 0 LINE"
);
},
{
closed = 1;
nodes = (
"139 813 OFFCURVE",
"128 809 OFFCURVE",
"117 805 CURVE",
"111 802 OFFCURVE",
"106 800 OFFCURVE",
"101 797 CURVE",
"101 871 LINE",
"110 878 OFFCURVE",
"122 883 OFFCURVE",
"134 887 CURVE SMOOTH",
"140 889 OFFCURVE",
"147 890 OFFCURVE",
"154 890 CURVE SMOOTH",
"169 890 OFFCURVE",
"184 887 OFFCURVE",
"198 882 CURVE",
"212 876 OFFCURVE",
"227 872 OFFCURVE",
"242 871 CURVE",
"257 871 OFFCURVE",
"268 875 OFFCURVE",
"279 879 CURVE",
"285 882 OFFCURVE",
"290 884 OFFCURVE",
"295 887 CURVE",
"295 813 LINE",
"286 805 OFFCURVE",
"274 800 OFFCURVE",
"262 797 CURVE",
"256 795 OFFCURVE",
"249 794 OFFCURVE",
"242 794 CURVE SMOOTH",
"227 794 OFFCURVE",
"212 797 OFFCURVE",
"199 803 CURVE SMOOTH",
"185 809 OFFCURVE",
"170 812 OFFCURVE",
"154 813 CURVE"
);
}
);
width = 395;
}
);
unicode = 00D1;
},
{
glyphname = O;
lastChange = "2012-05-22 22:56:21 +0000";
layers = (
{
anchors = (
{
name = top;
position = "{177, 735}";
}
);
layerId = "1AB499B8-18A8-432D-A211-B6882CCB886D";
name = Regular;
paths = (
{
closed = 1;
nodes = (
"321 151 LINE SMOOTH",
"320 121 OFFCURVE",
"314 94 OFFCURVE",
"303 71 CURVE SMOOTH",
"294 51 OFFCURVE",
"280 32 OFFCURVE",
"260 17 CURVE SMOOTH",
"240 1 OFFCURVE",
"213 -8 OFFCURVE",
"177 -8 CURVE SMOOTH",
"141 -8 OFFCURVE",
"113 1 OFFCURVE",
"93 17 CURVE SMOOTH",
"73 32 OFFCURVE",
"60 51 OFFCURVE",
"51 71 CURVE SMOOTH",
"40 94 OFFCURVE",
"34 121 OFFCURVE",
"33 151 CURVE",
"33 584 LINE SMOOTH",
"34 613 OFFCURVE",
"40 640 OFFCURVE",
"51 663 CURVE SMOOTH",
"60 683 OFFCURVE",
"73 703 OFFCURVE",
"93 718 CURVE SMOOTH",
"113 733 OFFCURVE",
"141 743 OFFCURVE",
"177 743 CURVE SMOOTH",
"213 743 OFFCURVE",
"240 733 OFFCURVE",
"260 718 CURVE SMOOTH",
"280 703 OFFCURVE",
"294 683 OFFCURVE",
"303 663 CURVE SMOOTH",
"314 640 OFFCURVE",
"320 613 OFFCURVE",
"321 584 CURVE SMOOTH"
);
},
{
closed = 1;
nodes = (
"213 584 LINE SMOOTH",
"213 604 OFFCURVE",
"209 618 OFFCURVE",
"199 630 CURVE",
"194 635 OFFCURVE",
"186 638 OFFCURVE",
"177 638 CURVE SMOOTH",
"158 638 OFFCURVE",
"149 624 OFFCURVE",
"145 611 CURVE",
"142 603 OFFCURVE",
"141 594 OFFCURVE",
"141 584 CURVE SMOOTH",
"141 151 LINE SMOOTH",
"141 130 OFFCURVE",
"146 116 OFFCURVE",
"156 105 CURVE",
"161 100 OFFCURVE",
"168 97 OFFCURVE",
"177 97 CURVE SMOOTH",
"196 97 OFFCURVE",
"205 109 OFFCURVE",
"209 124 CURVE",
"212 131 OFFCURVE",
"213 140 OFFCURVE",
"213 151 CURVE SMOOTH"
);
}
);
width = 354;
}
);
unicode = 004F;
},
{
glyphname = Oacute;
lastChange = "2012-05-22 22:56:21 +0000";
layers = (
{
layerId = "1AB499B8-18A8-432D-A211-B6882CCB886D";
name = Regular;
paths = (
{
closed = 1;
nodes = (
"321 151 LINE SMOOTH",
"320 121 OFFCURVE",
"314 94 OFFCURVE",
"303 71 CURVE SMOOTH",
"294 51 OFFCURVE",
"280 32 OFFCURVE",
"260 17 CURVE SMOOTH",
"240 1 OFFCURVE",
"213 -8 OFFCURVE",
"177 -8 CURVE SMOOTH",
"141 -8 OFFCURVE",
"113 1 OFFCURVE",
"93 17 CURVE SMOOTH",
"73 32 OFFCURVE",
"60 51 OFFCURVE",
"51 71 CURVE SMOOTH",
"40 94 OFFCURVE",
"34 121 OFFCURVE",
"33 151 CURVE",
"33 584 LINE SMOOTH",
"34 613 OFFCURVE",
"40 640 OFFCURVE",
"51 663 CURVE SMOOTH",
"60 683 OFFCURVE",
"73 703 OFFCURVE",
"93 718 CURVE SMOOTH",
"113 733 OFFCURVE",
"141 743 OFFCURVE",
"177 743 CURVE SMOOTH",
"213 743 OFFCURVE",
"240 733 OFFCURVE",
"260 718 CURVE SMOOTH",
"280 703 OFFCURVE",
"294 683 OFFCURVE",
"303 663 CURVE SMOOTH",
"314 640 OFFCURVE",
"320 613 OFFCURVE",
"321 584 CURVE SMOOTH"
);
},
{
closed = 1;
nodes = (
"213 584 LINE SMOOTH",
"213 604 OFFCURVE",
"209 618 OFFCURVE",
"199 630 CURVE",
"194 635 OFFCURVE",
"186 638 OFFCURVE",
"177 638 CURVE SMOOTH",
"158 638 OFFCURVE",
"149 624 OFFCURVE",
"145 611 CURVE",
"142 603 OFFCURVE",
"141 594 OFFCURVE",
"141 584 CURVE SMOOTH",
"141 151 LINE SMOOTH",
"141 130 OFFCURVE",
"146 116 OFFCURVE",
"156 105 CURVE",
"161 100 OFFCURVE",
"168 97 OFFCURVE",
"177 97 CURVE SMOOTH",
"196 97 OFFCURVE",
"205 109 OFFCURVE",
"209 124 CURVE",
"212 131 OFFCURVE",
"213 140 OFFCURVE",
"213 151 CURVE SMOOTH"
);
},
{
closed = 1;
nodes = (
"296 890 LINE",
"217 800 LINE",
"139 800 LINE",
"191 890 LINE"
);
}
);
width = 354;
}
);
unicode = 00D3;
},
{
glyphname = Obreve;
lastChange = "2012-05-22 22:56:21 +0000";
layers = (
{
layerId = "1AB499B8-18A8-432D-A211-B6882CCB886D";
name = Regular;
paths = (
{
closed = 1;
nodes = (
"321 151 LINE SMOOTH",
"320 121 OFFCURVE",
"314 94 OFFCURVE",
"303 71 CURVE SMOOTH",
"294 51 OFFCURVE",
"280 32 OFFCURVE",
"260 17 CURVE SMOOTH",
"240 1 OFFCURVE",
"213 -8 OFFCURVE",
"177 -8 CURVE SMOOTH",
"141 -8 OFFCURVE",
"113 1 OFFCURVE",
"93 17 CURVE SMOOTH",
"73 32 OFFCURVE",
"60 51 OFFCURVE",
"51 71 CURVE SMOOTH",
"40 94 OFFCURVE",
"34 121 OFFCURVE",
"33 151 CURVE",
"33 584 LINE SMOOTH",
"34 613 OFFCURVE",
"40 640 OFFCURVE",
"51 663 CURVE SMOOTH",
"60 683 OFFCURVE",
"73 703 OFFCURVE",
"93 718 CURVE SMOOTH",
"113 733 OFFCURVE",
"141 743 OFFCURVE",
"177 743 CURVE SMOOTH",
"213 743 OFFCURVE",
"240 733 OFFCURVE",
"260 718 CURVE SMOOTH",
"280 703 OFFCURVE",
"294 683 OFFCURVE",
"303 663 CURVE SMOOTH",
"314 640 OFFCURVE",
"320 613 OFFCURVE",
"321 584 CURVE SMOOTH"
);
},
{
closed = 1;
nodes = (
"213 584 LINE SMOOTH",
"213 604 OFFCURVE",
"209 618 OFFCURVE",
"199 630 CURVE",
"194 635 OFFCURVE",
"186 638 OFFCURVE",
"177 638 CURVE SMOOTH",
"158 638 OFFCURVE",
"149 624 OFFCURVE",
"145 611 CURVE",
"142 603 OFFCURVE",
"141 594 OFFCURVE",
"141 584 CURVE SMOOTH",
"141 151 LINE SMOOTH",
"141 130 OFFCURVE",
"146 116 OFFCURVE",
"156 105 CURVE",
"161 100 OFFCURVE",
"168 97 OFFCURVE",
"177 97 CURVE SMOOTH",
"196 97 OFFCURVE",
"205 109 OFFCURVE",
"209 124 CURVE",
"212 131 OFFCURVE",
"213 140 OFFCURVE",
"213 151 CURVE SMOOTH"
);
},
{
closed = 1;
nodes = (
"288 871 LINE",
"271 854 OFFCURVE",
"251 840 OFFCURVE",
"224 831 CURVE",
"211 826 OFFCURVE",
"195 824 OFFCURVE",
"178 824 CURVE SMOOTH",
"143 824 OFFCURVE",
"116 835 OFFCURVE",
"97 847 CURVE SMOOTH",
"86 854 OFFCURVE",
"76 862 OFFCURVE",
"68 871 CURVE",
"122 917 LINE",
"129 908 OFFCURVE",
"140 901 OFFCURVE",
"154 897 CURVE SMOOTH",
"161 895 OFFCURVE",
"169 894 OFFCURVE",
"178 894 CURVE SMOOTH",
"197 894 OFFCURVE",
"210 898 OFFCURVE",
"221 905 CURVE",
"227 908 OFFCURVE",
"232 912 OFFCURVE",
"236 917 CURVE"
);
}
);
width = 354;
}
);
unicode = 014E;
},
{
glyphname = Ocircumflex;
lastChange = "2012-05-22 22:56:21 +0000";
layers = (
{
layerId = "1AB499B8-18A8-432D-A211-B6882CCB886D";
name = Regular;
paths = (
{
closed = 1;
nodes = (
"321 151 LINE SMOOTH",
"320 121 OFFCURVE",
"314 94 OFFCURVE",
"303 71 CURVE SMOOTH",
"294 51 OFFCURVE",
"280 32 OFFCURVE",
"260 17 CURVE SMOOTH",
"240 1 OFFCURVE",
"213 -8 OFFCURVE",
"177 -8 CURVE SMOOTH",
"141 -8 OFFCURVE",
"113 1 OFFCURVE",
"93 17 CURVE SMOOTH",
"73 32 OFFCURVE",
"60 51 OFFCURVE",
"51 71 CURVE SMOOTH",
"40 94 OFFCURVE",
"34 121 OFFCURVE",
"33 151 CURVE",
"33 584 LINE SMOOTH",
"34 613 OFFCURVE",
"40 640 OFFCURVE",
"51 663 CURVE SMOOTH",
"60 683 OFFCURVE",
"73 703 OFFCURVE",
"93 718 CURVE SMOOTH",
"113 733 OFFCURVE",
"141 743 OFFCURVE",
"177 743 CURVE SMOOTH",
"213 743 OFFCURVE",
"240 733 OFFCURVE",
"260 718 CURVE SMOOTH",
"280 703 OFFCURVE",
"294 683 OFFCURVE",
"303 663 CURVE SMOOTH",
"314 640 OFFCURVE",
"320 613 OFFCURVE",
"321 584 CURVE SMOOTH"
);
},
{
closed = 1;
nodes = (
"213 584 LINE SMOOTH",
"213 604 OFFCURVE",
"209 618 OFFCURVE",
"199 630 CURVE",
"194 635 OFFCURVE",
"186 638 OFFCURVE",
"177 638 CURVE SMOOTH",
"158 638 OFFCURVE",
"149 624 OFFCURVE",
"145 611 CURVE",
"142 603 OFFCURVE",
"141 594 OFFCURVE",
"141 584 CURVE SMOOTH",
"141 151 LINE SMOOTH",
"141 130 OFFCURVE",
"146 116 OFFCURVE",
"156 105 CURVE",
"161 100 OFFCURVE",
"168 97 OFFCURVE",
"177 97 CURVE SMOOTH",
"196 97 OFFCURVE",
"205 109 OFFCURVE",
"209 124 CURVE",
"212 131 OFFCURVE",
"213 140 OFFCURVE",
"213 151 CURVE SMOOTH"
);
},
{
closed = 1;
nodes = (
"231 890 LINE",
"300 800 LINE",
"208 800 LINE",
"177 835 LINE",
"147 800 LINE",
"55 800 LINE",
"124 890 LINE"
);
}
);
width = 354;
}
);
unicode = 00D4;
},
{
glyphname = Odieresis;
lastChange = "2012-05-22 22:56:21 +0000";
layers = (
{
layerId = "1AB499B8-18A8-432D-A211-B6882CCB886D";
name = Regular;
paths = (
{
closed = 1;
nodes = (
"321 151 LINE SMOOTH",
"320 121 OFFCURVE",
"314 94 OFFCURVE",
"303 71 CURVE SMOOTH",
"294 51 OFFCURVE",
"280 32 OFFCURVE",
"260 17 CURVE SMOOTH",
"240 1 OFFCURVE",
"213 -8 OFFCURVE",
"177 -8 CURVE SMOOTH",
"141 -8 OFFCURVE",
"113 1 OFFCURVE",
"93 17 CURVE SMOOTH",
"73 32 OFFCURVE",
"60 51 OFFCURVE",
"51 71 CURVE SMOOTH",
"40 94 OFFCURVE",
"34 121 OFFCURVE",
"33 151 CURVE",
"33 584 LINE SMOOTH",
"34 613 OFFCURVE",
"40 640 OFFCURVE",
"51 663 CURVE SMOOTH",
"60 683 OFFCURVE",
"73 703 OFFCURVE",
"93 718 CURVE SMOOTH",
"113 733 OFFCURVE",
"141 743 OFFCURVE",
"177 743 CURVE SMOOTH",
"213 743 OFFCURVE",
"240 733 OFFCURVE",
"260 718 CURVE SMOOTH",
"280 703 OFFCURVE",
"294 683 OFFCURVE",
"303 663 CURVE SMOOTH",
"314 640 OFFCURVE",
"320 613 OFFCURVE",
"321 584 CURVE SMOOTH"
);
},
{
closed = 1;
nodes = (
"213 584 LINE SMOOTH",
"213 604 OFFCURVE",
"209 618 OFFCURVE",
"199 630 CURVE",
"194 635 OFFCURVE",
"186 638 OFFCURVE",
"177 638 CURVE SMOOTH",
"158 638 OFFCURVE",
"149 624 OFFCURVE",
"145 611 CURVE",
"142 603 OFFCURVE",
"141 594 OFFCURVE",
"141 584 CURVE SMOOTH",
"141 151 LINE SMOOTH",
"141 130 OFFCURVE",
"146 116 OFFCURVE",
"156 105 CURVE",
"161 100 OFFCURVE",
"168 97 OFFCURVE",
"177 97 CURVE SMOOTH",
"196 97 OFFCURVE",
"205 109 OFFCURVE",
"209 124 CURVE",
"212 131 OFFCURVE",
"213 140 OFFCURVE",
"213 151 CURVE SMOOTH"
);
},
{
closed = 1;
nodes = (
"60 898 LINE",
"153 898 LINE",
"153 800 LINE",
"60 800 LINE"
);
},
{
closed = 1;
nodes = (
"201 898 LINE",
"294 898 LINE",
"294 800 LINE",
"201 800 LINE"
);
}
);
width = 354;
}
);
unicode = 00D6;
},
{
glyphname = Ograve;
lastChange = "2012-05-22 22:56:21 +0000";
layers = (
{
layerId = "1AB499B8-18A8-432D-A211-B6882CCB886D";
name = Regular;
paths = (
{
closed = 1;
nodes = (
"321 151 LINE SMOOTH",
"320 121 OFFCURVE",
"314 94 OFFCURVE",
"303 71 CURVE SMOOTH",
"294 51 OFFCURVE",
"280 32 OFFCURVE",
"260 17 CURVE SMOOTH",
"240 1 OFFCURVE",
"213 -8 OFFCURVE",
"177 -8 CURVE SMOOTH",
"141 -8 OFFCURVE",
"113 1 OFFCURVE",
"93 17 CURVE SMOOTH",
"73 32 OFFCURVE",
"60 51 OFFCURVE",
"51 71 CURVE SMOOTH",
"40 94 OFFCURVE",
"34 121 OFFCURVE",
"33 151 CURVE",
"33 584 LINE SMOOTH",
"34 613 OFFCURVE",
"40 640 OFFCURVE",
"51 663 CURVE SMOOTH",
"60 683 OFFCURVE",
"73 703 OFFCURVE",
"93 718 CURVE SMOOTH",
"113 733 OFFCURVE",
"141 743 OFFCURVE",
"177 743 CURVE SMOOTH",
"213 743 OFFCURVE",
"240 733 OFFCURVE",
"260 718 CURVE SMOOTH",
"280 703 OFFCURVE",
"294 683 OFFCURVE",
"303 663 CURVE SMOOTH",
"314 640 OFFCURVE",
"320 613 OFFCURVE",
"321 584 CURVE SMOOTH"
);
},
{
closed = 1;
nodes = (
"213 584 LINE SMOOTH",
"213 604 OFFCURVE",
"209 618 OFFCURVE",
"199 630 CURVE",
"194 635 OFFCURVE",
"186 638 OFFCURVE",
"177 638 CURVE SMOOTH",
"158 638 OFFCURVE",
"149 624 OFFCURVE",
"145 611 CURVE",
"142 603 OFFCURVE",
"141 594 OFFCURVE",
"141 584 CURVE SMOOTH",
"141 151 LINE SMOOTH",
"141 130 OFFCURVE",
"146 116 OFFCURVE",
"156 105 CURVE",
"161 100 OFFCURVE",
"168 97 OFFCURVE",
"177 97 CURVE SMOOTH",
"196 97 OFFCURVE",
"205 109 OFFCURVE",
"209 124 CURVE",
"212 131 OFFCURVE",
"213 140 OFFCURVE",
"213 151 CURVE SMOOTH"
);
},
{
closed = 1;
nodes = (
"164 890 LINE",
"216 800 LINE",
"138 800 LINE",
"59 890 LINE"
);
}
);
width = 354;
}
);
unicode = 00D2;
},
{
glyphname = Ohungarumlaut;
lastChange = "2012-05-22 22:56:21 +0000";
layers = (
{
layerId = "1AB499B8-18A8-432D-A211-B6882CCB886D";
name = Regular;
paths = (
{
closed = 1;
nodes = (
"321 151 LINE SMOOTH",
"320 121 OFFCURVE",
"314 94 OFFCURVE",
"303 71 CURVE SMOOTH",
"294 51 OFFCURVE",
"280 32 OFFCURVE",
"260 17 CURVE SMOOTH",
"240 1 OFFCURVE",
"213 -8 OFFCURVE",
"177 -8 CURVE SMOOTH",
"141 -8 OFFCURVE",
"113 1 OFFCURVE",
"93 17 CURVE SMOOTH",
"73 32 OFFCURVE",
"60 51 OFFCURVE",
"51 71 CURVE SMOOTH",
"40 94 OFFCURVE",
"34 121 OFFCURVE",
"33 151 CURVE",
"33 584 LINE SMOOTH",
"34 613 OFFCURVE",
"40 640 OFFCURVE",
"51 663 CURVE SMOOTH",
"60 683 OFFCURVE",
"73 703 OFFCURVE",
"93 718 CURVE SMOOTH",
"113 733 OFFCURVE",
"141 743 OFFCURVE",
"177 743 CURVE SMOOTH",
"213 743 OFFCURVE",
"240 733 OFFCURVE",
"260 718 CURVE SMOOTH",
"280 703 OFFCURVE",
"294 683 OFFCURVE",
"303 663 CURVE SMOOTH",
"314 640 OFFCURVE",
"320 613 OFFCURVE",
"321 584 CURVE SMOOTH"
);
},
{
closed = 1;
nodes = (
"213 584 LINE SMOOTH",
"213 604 OFFCURVE",
"209 618 OFFCURVE",
"199 630 CURVE",
"194 635 OFFCURVE",
"186 638 OFFCURVE",
"177 638 CURVE SMOOTH",
"158 638 OFFCURVE",
"149 624 OFFCURVE",
"145 611 CURVE",
"142 603 OFFCURVE",
"141 594 OFFCURVE",
"141 584 CURVE SMOOTH",
"141 151 LINE SMOOTH",
"141 130 OFFCURVE",
"146 116 OFFCURVE",
"156 105 CURVE",
"161 100 OFFCURVE",
"168 97 OFFCURVE",
"177 97 CURVE SMOOTH",
"196 97 OFFCURVE",
"205 109 OFFCURVE",
"209 124 CURVE",
"212 131 OFFCURVE",
"213 140 OFFCURVE",
"213 151 CURVE SMOOTH"
);
},
{
closed = 1;
nodes = (
"183 915 LINE",
"104 825 LINE",
"26 825 LINE",
"78 915 LINE"
);
},
{
closed = 1;
nodes = (
"331 915 LINE",
"252 825 LINE",
"174 825 LINE",
"226 915 LINE"
);
}
);
width = 354;
}
);
unicode = 0150;
},
{
glyphname = Omacron;
lastChange = "2012-05-22 22:56:21 +0000";
layers = (
{
layerId = "1AB499B8-18A8-432D-A211-B6882CCB886D";
name = Regular;
paths = (
{
closed = 1;
nodes = (
"321 151 LINE SMOOTH",
"320 121 OFFCURVE",
"314 94 OFFCURVE",
"303 71 CURVE SMOOTH",
"294 51 OFFCURVE",
"280 32 OFFCURVE",
"260 17 CURVE SMOOTH",
"240 1 OFFCURVE",
"213 -8 OFFCURVE",
"177 -8 CURVE SMOOTH",
"141 -8 OFFCURVE",
"113 1 OFFCURVE",
"93 17 CURVE SMOOTH",
"73 32 OFFCURVE",
"60 51 OFFCURVE",
"51 71 CURVE SMOOTH",
"40 94 OFFCURVE",
"34 121 OFFCURVE",
"33 151 CURVE",
"33 584 LINE SMOOTH",
"34 613 OFFCURVE",
"40 640 OFFCURVE",
"51 663 CURVE SMOOTH",
"60 683 OFFCURVE",
"73 703 OFFCURVE",
"93 718 CURVE SMOOTH",
"113 733 OFFCURVE",
"141 743 OFFCURVE",
"177 743 CURVE SMOOTH",
"213 743 OFFCURVE",
"240 733 OFFCURVE",
"260 718 CURVE SMOOTH",
"280 703 OFFCURVE",
"294 683 OFFCURVE",
"303 663 CURVE SMOOTH",
"314 640 OFFCURVE",
"320 613 OFFCURVE",
"321 584 CURVE SMOOTH"
);
},
{
closed = 1;
nodes = (
"213 584 LINE SMOOTH",
"213 604 OFFCURVE",
"209 618 OFFCURVE",
"199 630 CURVE",
"194 635 OFFCURVE",
"186 638 OFFCURVE",
"177 638 CURVE SMOOTH",
"158 638 OFFCURVE",
"149 624 OFFCURVE",
"145 611 CURVE",
"142 603 OFFCURVE",
"141 594 OFFCURVE",
"141 584 CURVE SMOOTH",
"141 151 LINE SMOOTH",
"141 130 OFFCURVE",
"146 116 OFFCURVE",
"156 105 CURVE",
"161 100 OFFCURVE",
"168 97 OFFCURVE",
"177 97 CURVE SMOOTH",
"196 97 OFFCURVE",
"205 109 OFFCURVE",
"209 124 CURVE",
"212 131 OFFCURVE",
"213 140 OFFCURVE",
"213 151 CURVE SMOOTH"
);
},
{
closed = 1;
nodes = (
"81 909 LINE",
"275 909 LINE",
"275 830 LINE",
"81 830 LINE"
);
}
);
width = 354;
}
);
unicode = 014C;
},
{
glyphname = Oslash;
lastChange = "2012-05-22 22:56:21 +0000";
layers = (
{
anchors = (
{
name = top;
position = "{177, 735}";
}
);
layerId = "1AB499B8-18A8-432D-A211-B6882CCB886D";
name = Regular;
paths = (
{
closed = 1;
nodes = (
"29 -10 LINE",
"52 67 LINE",
"41 87 OFFCURVE",
"38 108 OFFCURVE",
"35 124 CURVE",
"34 133 OFFCURVE",
"33 142 OFFCURVE",
"33 151 CURVE SMOOTH",
"33 584 LINE SMOOTH",
"34 613 OFFCURVE",
"40 640 OFFCURVE",
"51 663 CURVE SMOOTH",
"60 683 OFFCURVE",
"73 703 OFFCURVE",
"93 718 CURVE SMOOTH",
"113 733 OFFCURVE",
"141 743 OFFCURVE",
"177 743 CURVE SMOOTH",
"209 743 OFFCURVE",
"234 735 OFFCURVE",
"254 722 CURVE",
"261 745 LINE",
"321 745 LINE",
"299 672 LINE",
"310 651 OFFCURVE",
"315 629 OFFCURVE",
"318 612 CURVE SMOOTH",
"320 602 OFFCURVE",
"321 593 OFFCURVE",
"321 584 CURVE SMOOTH",
"321 151 LINE SMOOTH",
"320 121 OFFCURVE",
"314 94 OFFCURVE",
"303 71 CURVE SMOOTH",
"294 51 OFFCURVE",
"280 32 OFFCURVE",
"260 17 CURVE SMOOTH",
"240 1 OFFCURVE",
"213 -8 OFFCURVE",
"177 -8 CURVE SMOOTH",
"144 -8 OFFCURVE",
"118 0 OFFCURVE",
"99 13 CURVE",
"92 -10 LINE"
);
},
{
closed = 1;
nodes = (
"196 97 OFFCURVE",
"205 109 OFFCURVE",
"209 124 CURVE",
"212 131 OFFCURVE",
"213 140 OFFCURVE",
"213 151 CURVE SMOOTH",
"213 389 LINE",
"141 151 LINE",
"141 130 OFFCURVE",
"146 116 OFFCURVE",
"156 105 CURVE",
"161 100 OFFCURVE",
"168 97 OFFCURVE",
"177 97 CURVE SMOOTH"
);
},
{
closed = 1;
nodes = (
"141 355 LINE",
"213 589 LINE",
"213 594 OFFCURVE",
"211 606 OFFCURVE",
"207 618 CURVE",
"202 629 OFFCURVE",
"193 638 OFFCURVE",
"177 638 CURVE SMOOTH",
"158 638 OFFCURVE",
"149 624 OFFCURVE",
"145 611 CURVE",
"142 603 OFFCURVE",
"141 594 OFFCURVE",
"141 584 CURVE SMOOTH"
);
}
);
width = 354;
}
);
unicode = 00D8;
},
{
glyphname = Otilde;
lastChange = "2012-05-22 22:56:21 +0000";
layers = (
{
layerId = "1AB499B8-18A8-432D-A211-B6882CCB886D";
name = Regular;
paths = (
{
closed = 1;
nodes = (
"321 151 LINE SMOOTH",
"320 121 OFFCURVE",
"314 94 OFFCURVE",
"303 71 CURVE SMOOTH",
"294 51 OFFCURVE",
"280 32 OFFCURVE",
"260 17 CURVE SMOOTH",
"240 1 OFFCURVE",
"213 -8 OFFCURVE",
"177 -8 CURVE SMOOTH",
"141 -8 OFFCURVE",
"113 1 OFFCURVE",
"93 17 CURVE SMOOTH",
"73 32 OFFCURVE",
"60 51 OFFCURVE",
"51 71 CURVE SMOOTH",
"40 94 OFFCURVE",
"34 121 OFFCURVE",
"33 151 CURVE",
"33 584 LINE SMOOTH",
"34 613 OFFCURVE",
"40 640 OFFCURVE",
"51 663 CURVE SMOOTH",
"60 683 OFFCURVE",
"73 703 OFFCURVE",
"93 718 CURVE SMOOTH",
"113 733 OFFCURVE",
"141 743 OFFCURVE",
"177 743 CURVE SMOOTH",
"213 743 OFFCURVE",
"240 733 OFFCURVE",
"260 718 CURVE SMOOTH",
"280 703 OFFCURVE",
"294 683 OFFCURVE",
"303 663 CURVE SMOOTH",
"314 640 OFFCURVE",
"320 613 OFFCURVE",
"321 584 CURVE SMOOTH"
);
},
{
closed = 1;
nodes = (
"213 584 LINE SMOOTH",
"213 604 OFFCURVE",
"209 618 OFFCURVE",
"199 630 CURVE",
"194 635 OFFCURVE",
"186 638 OFFCURVE",
"177 638 CURVE SMOOTH",
"158 638 OFFCURVE",
"149 624 OFFCURVE",
"145 611 CURVE",
"142 603 OFFCURVE",
"141 594 OFFCURVE",
"141 584 CURVE SMOOTH",
"141 151 LINE SMOOTH",
"141 130 OFFCURVE",
"146 116 OFFCURVE",
"156 105 CURVE",
"161 100 OFFCURVE",
"168 97 OFFCURVE",
"177 97 CURVE SMOOTH",
"196 97 OFFCURVE",
"205 109 OFFCURVE",
"209 124 CURVE",
"212 131 OFFCURVE",
"213 140 OFFCURVE",
"213 151 CURVE SMOOTH"
);
},
{
closed = 1;
nodes = (
"118 813 OFFCURVE",
"107 809 OFFCURVE",
"96 805 CURVE",
"90 802 OFFCURVE",
"85 800 OFFCURVE",
"80 797 CURVE",
"80 871 LINE",
"89 878 OFFCURVE",
"101 883 OFFCURVE",
"113 887 CURVE SMOOTH",
"119 889 OFFCURVE",
"126 890 OFFCURVE",
"133 890 CURVE SMOOTH",
"148 890 OFFCURVE",
"163 887 OFFCURVE",
"177 882 CURVE",
"191 876 OFFCURVE",
"206 872 OFFCURVE",
"221 871 CURVE",
"236 871 OFFCURVE",
"247 875 OFFCURVE",
"258 879 CURVE",
"264 882 OFFCURVE",
"269 884 OFFCURVE",
"274 887 CURVE",
"274 813 LINE",
"265 805 OFFCURVE",
"253 800 OFFCURVE",
"241 797 CURVE",
"235 795 OFFCURVE",
"228 794 OFFCURVE",
"221 794 CURVE SMOOTH",
"206 794 OFFCURVE",
"191 797 OFFCURVE",
"178 803 CURVE SMOOTH",
"164 809 OFFCURVE",
"149 812 OFFCURVE",
"133 813 CURVE"
);
}
);
width = 354;
}
);
unicode = 00D5;
},
{
glyphname = OE;
lastChange = "2012-05-22 22:56:21 +0000";
layers = (
{
anchors = (
{
name = top;
position = "{240, 735}";
}
);
layerId = "1AB499B8-18A8-432D-A211-B6882CCB886D";
name = Regular;
paths = (
{
closed = 1;
nodes = (
"177 0 LINE SMOOTH",
"141 0 OFFCURVE",
"113 10 OFFCURVE",
"93 24 CURVE SMOOTH",
"73 38 OFFCURVE",
"60 56 OFFCURVE",
"51 75 CURVE SMOOTH",
"40 97 OFFCURVE",
"34 122 OFFCURVE",
"33 151 CURVE",
"33 584 LINE",
"34 612 OFFCURVE",
"40 637 OFFCURVE",
"51 659 CURVE SMOOTH",
"60 678 OFFCURVE",
"73 698 OFFCURVE",
"93 712 CURVE SMOOTH",
"113 726 OFFCURVE",
"141 735 OFFCURVE",
"177 735 CURVE SMOOTH",
"460 735 LINE",
"460 624 LINE",
"321 624 LINE",
"321 431 LINE",
"421 431 LINE",
"421 313 LINE",
"321 313 LINE",
"321 111 LINE",
"460 111 LINE",
"460 0 LINE"
);
},
{
closed = 1;
nodes = (
"213 591 LINE SMOOTH",
"213 598 OFFCURVE",
"211 610 OFFCURVE",
"206 620 CURVE SMOOTH",
"201 630 OFFCURVE",
"192 638 OFFCURVE",
"177 638 CURVE SMOOTH",
"158 638 OFFCURVE",
"149 624 OFFCURVE",
"145 611 CURVE",
"142 603 OFFCURVE",
"141 594 OFFCURVE",
"141 584 CURVE SMOOTH",
"141 151 LINE SMOOTH",
"141 130 OFFCURVE",
"146 116 OFFCURVE",
"156 105 CURVE",
"161 100 OFFCURVE",
"168 97 OFFCURVE",
"177 97 CURVE SMOOTH",
"196 97 OFFCURVE",
"205 109 OFFCURVE",
"209 124 CURVE",
"212 131 OFFCURVE",
"213 140 OFFCURVE",
"213 151 CURVE SMOOTH"
);
}
);
width = 480;
}
);
unicode = 0152;
},
{
glyphname = P;
lastChange = "2012-05-22 22:56:21 +0000";
layers = (
{
layerId = "1AB499B8-18A8-432D-A211-B6882CCB886D";
name = Regular;
paths = (
{
closed = 1;
nodes = (
"40 735 LINE",
"148 735 LINE SMOOTH",
"195 735 OFFCURVE",
"242 723 OFFCURVE",
"278 689 CURVE SMOOTH",
"314 655 OFFCURVE",
"338 599 OFFCURVE",
"338 515 CURVE SMOOTH",
"338 431 OFFCURVE",
"314 376 OFFCURVE",
"278 342 CURVE SMOOTH",
"242 308 OFFCURVE",
"195 294 OFFCURVE",
"148 294 CURVE",
"148 0 LINE",
"40 0 LINE"
);
},
{
closed = 1;
nodes = (
"148 404 LINE",
"181 404 OFFCURVE",
"202 410 OFFCURVE",
"214 427 CURVE SMOOTH",
"226 443 OFFCURVE",
"229 470 OFFCURVE",
"229 511 CURVE SMOOTH",
"229 552 OFFCURVE",
"226 581 OFFCURVE",
"214 599 CURVE SMOOTH",
"202 617 OFFCURVE",
"181 625 OFFCURVE",
"148 625 CURVE"
);
}
);
width = 352;
}
);
unicode = 0050;
},
{
glyphname = Thorn;
lastChange = "2012-05-22 22:56:21 +0000";
layers = (
{
layerId = "1AB499B8-18A8-432D-A211-B6882CCB886D";
name = Regular;
paths = (
{
closed = 1;
nodes = (
"40 735 LINE",
"147 735 LINE",
"147 617 LINE",
"148 617 LINE SMOOTH",
"195 617 OFFCURVE",
"242 605 OFFCURVE",
"278 571 CURVE SMOOTH",
"314 537 OFFCURVE",
"338 481 OFFCURVE",
"338 397 CURVE SMOOTH",
"338 313 OFFCURVE",
"314 258 OFFCURVE",
"278 224 CURVE SMOOTH",
"242 190 OFFCURVE",
"195 176 OFFCURVE",
"148 176 CURVE",
"148 0 LINE",
"40 0 LINE"
);
},
{
closed = 1;
nodes = (
"148 286 LINE",
"181 286 OFFCURVE",
"202 292 OFFCURVE",
"214 309 CURVE SMOOTH",
"226 325 OFFCURVE",
"229 352 OFFCURVE",
"229 393 CURVE SMOOTH",
"229 434 OFFCURVE",
"226 463 OFFCURVE",
"214 481 CURVE SMOOTH",
"202 499 OFFCURVE",
"181 507 OFFCURVE",
"148 507 CURVE"
);
}
);
width = 354;
}
);
unicode = 00DE;
},
{
glyphname = Q;
lastChange = "2012-05-22 22:56:21 +0000";
layers = (
{
layerId = "1AB499B8-18A8-432D-A211-B6882CCB886D";
name = Regular;
paths = (
{
closed = 1;
nodes = (
"321 151 LINE SMOOTH",
"321 134 OFFCURVE",
"318 115 OFFCURVE",
"312 94 CURVE SMOOTH",
"309 83 OFFCURVE",
"304 73 OFFCURVE",
"299 62 CURVE",
"308 50 OFFCURVE",
"321 40 OFFCURVE",
"342 36 CURVE",
"342 -56 LINE",
"281 -56 OFFCURVE",
"250 -30 OFFCURVE",
"231 1 CURVE",
"216 -4 OFFCURVE",
"198 -8 OFFCURVE",
"177 -8 CURVE SMOOTH",
"141 -8 OFFCURVE",
"113 1 OFFCURVE",
"93 17 CURVE SMOOTH",
"73 32 OFFCURVE",
"60 51 OFFCURVE",
"51 71 CURVE SMOOTH",
"40 94 OFFCURVE",
"34 121 OFFCURVE",
"33 151 CURVE",
"33 584 LINE SMOOTH",
"34 613 OFFCURVE",
"40 640 OFFCURVE",
"51 663 CURVE SMOOTH",
"60 683 OFFCURVE",
"73 703 OFFCURVE",
"93 718 CURVE SMOOTH",
"113 733 OFFCURVE",
"141 743 OFFCURVE",
"177 743 CURVE SMOOTH",
"213 743 OFFCURVE",
"240 733 OFFCURVE",
"260 718 CURVE SMOOTH",
"280 703 OFFCURVE",
"294 683 OFFCURVE",
"303 663 CURVE SMOOTH",
"314 640 OFFCURVE",
"320 613 OFFCURVE",
"321 584 CURVE SMOOTH"
);
},
{
closed = 1;
nodes = (
"213 584 LINE SMOOTH",
"213 604 OFFCURVE",
"209 618 OFFCURVE",
"199 630 CURVE",
"194 635 OFFCURVE",
"186 638 OFFCURVE",
"177 638 CURVE SMOOTH",
"158 638 OFFCURVE",
"149 624 OFFCURVE",
"145 611 CURVE",
"142 603 OFFCURVE",
"141 594 OFFCURVE",
"141 584 CURVE SMOOTH",
"141 151 LINE SMOOTH",
"141 130 OFFCURVE",
"146 116 OFFCURVE",
"156 105 CURVE",
"161 100 OFFCURVE",
"168 97 OFFCURVE",
"177 97 CURVE SMOOTH",
"196 97 OFFCURVE",
"205 109 OFFCURVE",
"209 124 CURVE",
"212 131 OFFCURVE",
"213 140 OFFCURVE",
"213 151 CURVE SMOOTH"
);
}
);
width = 356;
}
);
unicode = 0051;
},
{
glyphname = R;
lastChange = "2012-05-22 22:56:21 +0000";
layers = (
{
anchors = (
{
name = bottom;
position = "{181, 0}";
},
{
name = top;
position = "{181, 735}";
}
);
layerId = "1AB499B8-18A8-432D-A211-B6882CCB886D";
name = Regular;
paths = (
{
closed = 1;
nodes = (
"233 0 LINE",
"177 310 LINE",
"148 310 LINE",
"148 0 LINE",
"40 0 LINE",
"40 735 LINE",
"148 735 LINE SMOOTH",
"277 735 OFFCURVE",
"332 662 OFFCURVE",
"332 523 CURVE SMOOTH",
"332 450 OFFCURVE",
"313 384 OFFCURVE",
"272 356 CURVE",
"341 0 LINE"
);
},
{
closed = 1;
nodes = (
"228 571 OFFCURVE",
"215 599 OFFCURVE",
"199 613 CURVE SMOOTH",
"183 627 OFFCURVE",
"163 628 OFFCURVE",
"148 628 CURVE",
"148 410 LINE",
"163 410 OFFCURVE",
"183 412 OFFCURVE",
"199 426 CURVE SMOOTH",
"215 440 OFFCURVE",
"228 467 OFFCURVE",
"228 519 CURVE SMOOTH"
);
}
);
width = 361;
}
);
unicode = 0052;
},
{
glyphname = Racute;
lastChange = "2012-05-22 22:56:21 +0000";
layers = (
{
layerId = "1AB499B8-18A8-432D-A211-B6882CCB886D";
name = Regular;
paths = (
{
closed = 1;
nodes = (
"233 0 LINE",
"177 310 LINE",
"148 310 LINE",
"148 0 LINE",
"40 0 LINE",
"40 735 LINE",
"148 735 LINE SMOOTH",
"277 735 OFFCURVE",
"332 662 OFFCURVE",
"332 523 CURVE SMOOTH",
"332 450 OFFCURVE",
"313 384 OFFCURVE",
"272 356 CURVE",
"341 0 LINE"
);
},
{
closed = 1;
nodes = (
"228 571 OFFCURVE",
"215 599 OFFCURVE",
"199 613 CURVE SMOOTH",
"183 627 OFFCURVE",
"163 628 OFFCURVE",
"148 628 CURVE",
"148 410 LINE",
"163 410 OFFCURVE",
"183 412 OFFCURVE",
"199 426 CURVE SMOOTH",
"215 440 OFFCURVE",
"228 467 OFFCURVE",
"228 519 CURVE SMOOTH"
);
},
{
closed = 1;
nodes = (
"260 915 LINE",
"181 825 LINE",
"103 825 LINE",
"155 915 LINE"
);
}
);
width = 361;
}
);
unicode = 0154;
},
{
glyphname = Rcaron;
lastChange = "2012-05-22 22:56:21 +0000";
layers = (
{
layerId = "1AB499B8-18A8-432D-A211-B6882CCB886D";
name = Regular;
paths = (
{
closed = 1;
nodes = (
"233 0 LINE",
"177 310 LINE",
"148 310 LINE",
"148 0 LINE",
"40 0 LINE",
"40 735 LINE",
"148 735 LINE SMOOTH",
"277 735 OFFCURVE",
"332 662 OFFCURVE",
"332 523 CURVE SMOOTH",
"332 450 OFFCURVE",
"313 384 OFFCURVE",
"272 356 CURVE",
"341 0 LINE"
);
},
{
closed = 1;
nodes = (
"228 571 OFFCURVE",
"215 599 OFFCURVE",
"199 613 CURVE SMOOTH",
"183 627 OFFCURVE",
"163 628 OFFCURVE",
"148 628 CURVE",
"148 410 LINE",
"163 410 OFFCURVE",
"183 412 OFFCURVE",
"199 426 CURVE SMOOTH",
"215 440 OFFCURVE",
"228 467 OFFCURVE",
"228 519 CURVE SMOOTH"
);
},
{
closed = 1;
nodes = (
"128 825 LINE",
"59 915 LINE",
"151 915 LINE",
"181 880 LINE",
"212 915 LINE",
"304 915 LINE",
"235 825 LINE"
);
}
);
width = 361;
}
);
unicode = 0158;
},
{
glyphname = Rcommaaccent;
lastChange = "2012-05-22 22:56:21 +0000";
layers = (
{
layerId = "1AB499B8-18A8-432D-A211-B6882CCB886D";
name = Regular;
paths = (
{
closed = 1;
nodes = (
"233 0 LINE",
"177 310 LINE",
"148 310 LINE",
"148 0 LINE",
"40 0 LINE",
"40 735 LINE",
"148 735 LINE SMOOTH",
"277 735 OFFCURVE",
"332 662 OFFCURVE",
"332 523 CURVE SMOOTH",
"332 450 OFFCURVE",
"313 384 OFFCURVE",
"272 356 CURVE",
"341 0 LINE"
);
},
{
closed = 1;
nodes = (
"228 571 OFFCURVE",
"215 599 OFFCURVE",
"199 613 CURVE SMOOTH",
"183 627 OFFCURVE",
"163 628 OFFCURVE",
"148 628 CURVE",
"148 410 LINE",
"163 410 OFFCURVE",
"183 412 OFFCURVE",
"199 426 CURVE SMOOTH",
"215 440 OFFCURVE",
"228 467 OFFCURVE",
"228 519 CURVE SMOOTH"
);
},
{
closed = 1;
nodes = (
"215 -123 LINE",
"193 -188 LINE",
"142 -188 LINE",
"162 -123 LINE",
"131 -123 LINE",
"131 -54 LINE",
"215 -54 LINE"
);
}
);
width = 361;
}
);
unicode = 0156;
},
{
glyphname = S;
lastChange = "2012-05-22 22:56:21 +0000";
layers = (
{
anchors = (
{
name = bottom;
position = "{172, 0}";
},
{
name = top;
position = "{172, 735}";
}
);
layerId = "1AB499B8-18A8-432D-A211-B6882CCB886D";
name = Regular;
paths = (
{
closed = 1;
nodes = (
"33 611 OFFCURVE",
"42 654 OFFCURVE",
"65 687 CURVE SMOOTH",
"88 719 OFFCURVE",
"123 742 OFFCURVE",
"174 743 CURVE SMOOTH",
"239 744 OFFCURVE",
"277 717 OFFCURVE",
"298 678 CURVE SMOOTH",
"319 638 OFFCURVE",
"325 589 OFFCURVE",
"325 548 CURVE",
"219 538 LINE",
"219 562 OFFCURVE",
"218 589 OFFCURVE",
"211 610 CURVE SMOOTH",
"204 630 OFFCURVE",
"193 644 OFFCURVE",
"176 644 CURVE",
"148 643 OFFCURVE",
"139 614 OFFCURVE",
"139 571 CURVE SMOOTH",
"139 546 OFFCURVE",
"150 520 OFFCURVE",
"166 492 CURVE SMOOTH",
"182 464 OFFCURVE",
"203 435 OFFCURVE",
"224 404 CURVE SMOOTH",
"249 367 OFFCURVE",
"274 329 OFFCURVE",
"293 292 CURVE SMOOTH",
"312 255 OFFCURVE",
"325 217 OFFCURVE",
"325 177 CURVE SMOOTH",
"325 128 OFFCURVE",
"317 82 OFFCURVE",
"294 48 CURVE SMOOTH",
"271 14 OFFCURVE",
"234 -8 OFFCURVE",
"175 -8 CURVE SMOOTH",
"106 -8 OFFCURVE",
"67 18 OFFCURVE",
"45 58 CURVE SMOOTH",
"23 98 OFFCURVE",
"18 151 OFFCURVE",
"18 206 CURVE",
"124 216 LINE",
"124 185 OFFCURVE",
"125 154 OFFCURVE",
"133 131 CURVE",
"140 107 OFFCURVE",
"152 91 OFFCURVE",
"175 91 CURVE SMOOTH",
"207 91 OFFCURVE",
"219 125 OFFCURVE",
"219 172 CURVE SMOOTH",
"219 196 OFFCURVE",
"207 224 OFFCURVE",
"191 253 CURVE",
"182 267 OFFCURVE",
"173 282 OFFCURVE",
"163 297 CURVE SMOOTH",
"142 327 OFFCURVE",
"119 361 OFFCURVE",
"95 398 CURVE SMOOTH",
"71 435 OFFCURVE",
"53 473 OFFCURVE",
"42 512 CURVE SMOOTH",
"36 531 OFFCURVE",
"33 551 OFFCURVE",
"33 571 CURVE SMOOTH"
);
}
);
width = 343;
}
);
leftKerningGroup = S;
unicode = 0053;
},
{
glyphname = Sacute;
lastChange = "2012-05-22 22:56:21 +0000";
layers = (
{
layerId = "1AB499B8-18A8-432D-A211-B6882CCB886D";
name = Regular;
paths = (
{
closed = 1;
nodes = (
"33 611 OFFCURVE",
"42 654 OFFCURVE",
"65 687 CURVE SMOOTH",
"88 719 OFFCURVE",
"123 742 OFFCURVE",
"174 743 CURVE SMOOTH",
"239 744 OFFCURVE",
"277 717 OFFCURVE",
"298 678 CURVE SMOOTH",
"319 638 OFFCURVE",
"325 589 OFFCURVE",
"325 548 CURVE",
"219 538 LINE",
"219 562 OFFCURVE",
"218 589 OFFCURVE",
"211 610 CURVE SMOOTH",
"204 630 OFFCURVE",
"193 644 OFFCURVE",
"176 644 CURVE",
"148 643 OFFCURVE",
"139 614 OFFCURVE",
"139 571 CURVE SMOOTH",
"139 546 OFFCURVE",
"150 520 OFFCURVE",
"166 492 CURVE SMOOTH",
"182 464 OFFCURVE",
"203 435 OFFCURVE",
"224 404 CURVE SMOOTH",
"249 367 OFFCURVE",
"274 329 OFFCURVE",
"293 292 CURVE SMOOTH",
"312 255 OFFCURVE",
"325 217 OFFCURVE",
"325 177 CURVE SMOOTH",
"325 128 OFFCURVE",
"317 82 OFFCURVE",
"294 48 CURVE SMOOTH",
"271 14 OFFCURVE",
"234 -8 OFFCURVE",
"175 -8 CURVE SMOOTH",
"106 -8 OFFCURVE",
"67 18 OFFCURVE",
"45 58 CURVE SMOOTH",
"23 98 OFFCURVE",
"18 151 OFFCURVE",
"18 206 CURVE",
"124 216 LINE",
"124 185 OFFCURVE",
"125 154 OFFCURVE",
"133 131 CURVE",
"140 107 OFFCURVE",
"152 91 OFFCURVE",
"175 91 CURVE SMOOTH",
"207 91 OFFCURVE",
"219 125 OFFCURVE",
"219 172 CURVE SMOOTH",
"219 196 OFFCURVE",
"207 224 OFFCURVE",
"191 253 CURVE",
"182 267 OFFCURVE",
"173 282 OFFCURVE",
"163 297 CURVE SMOOTH",
"142 327 OFFCURVE",
"119 361 OFFCURVE",
"95 398 CURVE SMOOTH",
"71 435 OFFCURVE",
"53 473 OFFCURVE",
"42 512 CURVE SMOOTH",
"36 531 OFFCURVE",
"33 551 OFFCURVE",
"33 571 CURVE SMOOTH"
);
},
{
closed = 1;
nodes = (
"251 915 LINE",
"172 825 LINE",
"94 825 LINE",
"146 915 LINE"
);
}
);
width = 343;
}
);
unicode = 015A;
},
{
glyphname = Scaron;
lastChange = "2012-05-22 22:56:21 +0000";
layers = (
{
layerId = "1AB499B8-18A8-432D-A211-B6882CCB886D";
name = Regular;
paths = (
{
closed = 1;
nodes = (
"33 611 OFFCURVE",
"42 654 OFFCURVE",
"65 687 CURVE SMOOTH",
"88 719 OFFCURVE",
"123 742 OFFCURVE",
"174 743 CURVE SMOOTH",
"239 744 OFFCURVE",
"277 717 OFFCURVE",
"298 678 CURVE SMOOTH",
"319 638 OFFCURVE",
"325 589 OFFCURVE",
"325 548 CURVE",
"219 538 LINE",
"219 562 OFFCURVE",
"218 589 OFFCURVE",
"211 610 CURVE SMOOTH",
"204 630 OFFCURVE",
"193 644 OFFCURVE",
"176 644 CURVE",
"148 643 OFFCURVE",
"139 614 OFFCURVE",
"139 571 CURVE SMOOTH",
"139 546 OFFCURVE",
"150 520 OFFCURVE",
"166 492 CURVE SMOOTH",
"182 464 OFFCURVE",
"203 435 OFFCURVE",
"224 404 CURVE SMOOTH",
"249 367 OFFCURVE",
"274 329 OFFCURVE",
"293 292 CURVE SMOOTH",
"312 255 OFFCURVE",
"325 217 OFFCURVE",
"325 177 CURVE SMOOTH",
"325 128 OFFCURVE",
"317 82 OFFCURVE",
"294 48 CURVE SMOOTH",
"271 14 OFFCURVE",
"234 -8 OFFCURVE",
"175 -8 CURVE SMOOTH",
"106 -8 OFFCURVE",
"67 18 OFFCURVE",
"45 58 CURVE SMOOTH",
"23 98 OFFCURVE",
"18 151 OFFCURVE",
"18 206 CURVE",
"124 216 LINE",
"124 185 OFFCURVE",
"125 154 OFFCURVE",
"133 131 CURVE",
"140 107 OFFCURVE",
"152 91 OFFCURVE",
"175 91 CURVE SMOOTH",
"207 91 OFFCURVE",
"219 125 OFFCURVE",
"219 172 CURVE SMOOTH",
"219 196 OFFCURVE",
"207 224 OFFCURVE",
"191 253 CURVE",
"182 267 OFFCURVE",
"173 282 OFFCURVE",
"163 297 CURVE SMOOTH",
"142 327 OFFCURVE",
"119 361 OFFCURVE",
"95 398 CURVE SMOOTH",
"71 435 OFFCURVE",
"53 473 OFFCURVE",
"42 512 CURVE SMOOTH",
"36 531 OFFCURVE",
"33 551 OFFCURVE",
"33 571 CURVE SMOOTH"
);
},
{
closed = 1;
nodes = (
"118 800 LINE",
"49 890 LINE",
"141 890 LINE",
"171 855 LINE",
"202 890 LINE",
"294 890 LINE",
"225 800 LINE"
);
}
);
width = 343;
}
);
leftKerningGroup = S;
unicode = 0160;
},
{
glyphname = Scedilla;
lastChange = "2012-05-22 22:56:21 +0000";
layers = (
{
layerId = "1AB499B8-18A8-432D-A211-B6882CCB886D";
name = Regular;
paths = (
{
closed = 1;
nodes = (
"33 611 OFFCURVE",
"42 654 OFFCURVE",
"65 687 CURVE SMOOTH",
"88 719 OFFCURVE",
"123 742 OFFCURVE",
"174 743 CURVE SMOOTH",
"239 744 OFFCURVE",
"277 717 OFFCURVE",
"298 678 CURVE SMOOTH",
"319 638 OFFCURVE",
"325 589 OFFCURVE",
"325 548 CURVE",
"219 538 LINE",
"219 562 OFFCURVE",
"218 589 OFFCURVE",
"211 610 CURVE SMOOTH",
"204 630 OFFCURVE",
"193 644 OFFCURVE",
"176 644 CURVE",
"148 643 OFFCURVE",
"139 614 OFFCURVE",
"139 571 CURVE SMOOTH",
"139 546 OFFCURVE",
"150 520 OFFCURVE",
"166 492 CURVE SMOOTH",
"182 464 OFFCURVE",
"203 435 OFFCURVE",
"224 404 CURVE SMOOTH",
"249 367 OFFCURVE",
"274 329 OFFCURVE",
"293 292 CURVE SMOOTH",
"312 255 OFFCURVE",
"325 217 OFFCURVE",
"325 177 CURVE SMOOTH",
"325 128 OFFCURVE",
"317 82 OFFCURVE",
"294 48 CURVE SMOOTH",
"271 14 OFFCURVE",
"234 -8 OFFCURVE",
"175 -8 CURVE SMOOTH",
"106 -8 OFFCURVE",
"67 18 OFFCURVE",
"45 58 CURVE SMOOTH",
"23 98 OFFCURVE",
"18 151 OFFCURVE",
"18 206 CURVE",
"124 216 LINE",
"124 185 OFFCURVE",
"125 154 OFFCURVE",
"133 131 CURVE",
"140 107 OFFCURVE",
"152 91 OFFCURVE",
"175 91 CURVE SMOOTH",
"207 91 OFFCURVE",
"219 125 OFFCURVE",
"219 172 CURVE SMOOTH",
"219 196 OFFCURVE",
"207 224 OFFCURVE",
"191 253 CURVE",
"182 267 OFFCURVE",
"173 282 OFFCURVE",
"163 297 CURVE SMOOTH",
"142 327 OFFCURVE",
"119 361 OFFCURVE",
"95 398 CURVE SMOOTH",
"71 435 OFFCURVE",
"53 473 OFFCURVE",
"42 512 CURVE SMOOTH",
"36 531 OFFCURVE",
"33 551 OFFCURVE",
"33 571 CURVE SMOOTH"
);
},
{
closed = 1;
nodes = (
"215 -123 LINE",
"193 -188 LINE",
"142 -188 LINE",
"162 -123 LINE",
"131 -123 LINE",
"131 -54 LINE",
"215 -54 LINE"
);
}
);
width = 343;
}
);
unicode = 015E;
},
{
glyphname = Scircumflex;
lastChange = "2012-05-22 22:56:21 +0000";
layers = (
{
layerId = "1AB499B8-18A8-432D-A211-B6882CCB886D";
name = Regular;
paths = (
{
closed = 1;
nodes = (
"33 611 OFFCURVE",
"42 654 OFFCURVE",
"65 687 CURVE SMOOTH",
"88 719 OFFCURVE",
"123 742 OFFCURVE",
"174 743 CURVE SMOOTH",
"239 744 OFFCURVE",
"277 717 OFFCURVE",
"298 678 CURVE SMOOTH",
"319 638 OFFCURVE",
"325 589 OFFCURVE",
"325 548 CURVE",
"219 538 LINE",
"219 562 OFFCURVE",
"218 589 OFFCURVE",
"211 610 CURVE SMOOTH",
"204 630 OFFCURVE",
"193 644 OFFCURVE",
"176 644 CURVE",
"148 643 OFFCURVE",
"139 614 OFFCURVE",
"139 571 CURVE SMOOTH",
"139 546 OFFCURVE",
"150 520 OFFCURVE",
"166 492 CURVE SMOOTH",
"182 464 OFFCURVE",
"203 435 OFFCURVE",
"224 404 CURVE SMOOTH",
"249 367 OFFCURVE",
"274 329 OFFCURVE",
"293 292 CURVE SMOOTH",
"312 255 OFFCURVE",
"325 217 OFFCURVE",
"325 177 CURVE SMOOTH",
"325 128 OFFCURVE",
"317 82 OFFCURVE",
"294 48 CURVE SMOOTH",
"271 14 OFFCURVE",
"234 -8 OFFCURVE",
"175 -8 CURVE SMOOTH",
"106 -8 OFFCURVE",
"67 18 OFFCURVE",
"45 58 CURVE SMOOTH",
"23 98 OFFCURVE",
"18 151 OFFCURVE",
"18 206 CURVE",
"124 216 LINE",
"124 185 OFFCURVE",
"125 154 OFFCURVE",
"133 131 CURVE",
"140 107 OFFCURVE",
"152 91 OFFCURVE",
"175 91 CURVE SMOOTH",
"207 91 OFFCURVE",
"219 125 OFFCURVE",
"219 172 CURVE SMOOTH",
"219 196 OFFCURVE",
"207 224 OFFCURVE",
"191 253 CURVE",
"182 267 OFFCURVE",
"173 282 OFFCURVE",
"163 297 CURVE SMOOTH",
"142 327 OFFCURVE",
"119 361 OFFCURVE",
"95 398 CURVE SMOOTH",
"71 435 OFFCURVE",
"53 473 OFFCURVE",
"42 512 CURVE SMOOTH",
"36 531 OFFCURVE",
"33 551 OFFCURVE",
"33 571 CURVE SMOOTH"
);
},
{
closed = 1;
nodes = (
"226 915 LINE",
"295 825 LINE",
"203 825 LINE",
"172 860 LINE",
"142 825 LINE",
"50 825 LINE",
"119 915 LINE"
);
}
);
width = 343;
}
);
unicode = 015C;
},
{
glyphname = T;
lastChange = "2012-05-22 22:56:21 +0000";
layers = (
{
anchors = (
{
name = bottom;
position = "{158, 0}";
},
{
name = center;
position = "{158, 368}";
},
{
name = top;
position = "{158, 735}";
}
);
layerId = "1AB499B8-18A8-432D-A211-B6882CCB886D";
name = Regular;
paths = (
{
closed = 1;
nodes = (
"2 624 LINE",
"2 735 LINE",
"314 735 LINE",
"314 624 LINE",
"212 624 LINE",
"212 0 LINE",
"104 0 LINE",
"104 624 LINE"
);
}
);
width = 316;
}
);
unicode = 0054;
},
{
glyphname = Tbar;
lastChange = "2012-05-22 22:56:21 +0000";
layers = (
{
layerId = "1AB499B8-18A8-432D-A211-B6882CCB886D";
name = Regular;
paths = (
{
closed = 1;
nodes = (
"2 624 LINE",
"2 735 LINE",
"314 735 LINE",
"314 624 LINE",
"212 624 LINE",
"212 0 LINE",
"104 0 LINE",
"104 624 LINE"
);
},
{
closed = 1;
nodes = (
"65 550 LINE",
"259 550 LINE",
"259 471 LINE",
"65 471 LINE"
);
}
);
width = 316;
}
);
unicode = 0166;
},
{
glyphname = Tcaron;
lastChange = "2012-05-22 22:56:21 +0000";
layers = (
{
layerId = "1AB499B8-18A8-432D-A211-B6882CCB886D";
name = Regular;
paths = (
{
closed = 1;
nodes = (
"2 624 LINE",
"2 735 LINE",
"314 735 LINE",
"314 624 LINE",
"212 624 LINE",
"212 0 LINE",
"104 0 LINE",
"104 624 LINE"
);
},
{
closed = 1;
nodes = (
"106 825 LINE",
"37 915 LINE",
"129 915 LINE",
"159 880 LINE",
"190 915 LINE",
"282 915 LINE",
"213 825 LINE"
);
}
);
width = 316;
}
);
unicode = 0164;
},
{
glyphname = Tcommaaccent;
lastChange = "2012-05-22 22:56:21 +0000";
layers = (
{
layerId = "1AB499B8-18A8-432D-A211-B6882CCB886D";
name = Regular;
paths = (
{
closed = 1;
nodes = (
"2 624 LINE",
"2 735 LINE",
"314 735 LINE",
"314 624 LINE",
"212 624 LINE",
"212 0 LINE",
"104 0 LINE",
"104 624 LINE"
);
},
{
closed = 1;
nodes = (
"215 -123 LINE",
"193 -188 LINE",
"142 -188 LINE",
"162 -123 LINE",
"131 -123 LINE",
"131 -54 LINE",
"215 -54 LINE"
);
}
);
width = 316;
}
);
unicode = 021A;
},
{
glyphname = U;
lastChange = "2012-05-22 22:56:21 +0000";
layers = (
{
anchors = (
{
name = ogonek;
position = "{329, 10}";
},
{
name = top;
position = "{183, 735}";
}
);
layerId = "1AB499B8-18A8-432D-A211-B6882CCB886D";
name = Regular;
paths = (
{
closed = 1;
nodes = (
"327 735 LINE",
"327 151 LINE SMOOTH",
"326 121 OFFCURVE",
"320 94 OFFCURVE",
"309 71 CURVE SMOOTH",
"300 51 OFFCURVE",
"286 32 OFFCURVE",
"266 17 CURVE SMOOTH",
"246 1 OFFCURVE",
"219 -8 OFFCURVE",
"183 -8 CURVE SMOOTH",
"147 -8 OFFCURVE",
"119 1 OFFCURVE",
"99 17 CURVE SMOOTH",
"79 32 OFFCURVE",
"66 51 OFFCURVE",
"57 71 CURVE SMOOTH",
"46 94 OFFCURVE",
"40 121 OFFCURVE",
"39 151 CURVE",
"39 735 LINE",
"147 735 LINE",
"147 151 LINE SMOOTH",
"147 130 OFFCURVE",
"152 116 OFFCURVE",
"162 105 CURVE",
"167 100 OFFCURVE",
"174 97 OFFCURVE",
"183 97 CURVE SMOOTH",
"202 97 OFFCURVE",
"211 109 OFFCURVE",
"215 124 CURVE",
"218 131 OFFCURVE",
"219 140 OFFCURVE",
"219 151 CURVE SMOOTH",
"219 735 LINE"
);
}
);
width = 366;
}
);
unicode = 0055;
},
{
glyphname = Uacute;
lastChange = "2012-05-22 22:56:21 +0000";
layers = (
{
layerId = "1AB499B8-18A8-432D-A211-B6882CCB886D";
name = Regular;
paths = (
{
closed = 1;
nodes = (
"327 735 LINE",
"327 151 LINE SMOOTH",
"326 121 OFFCURVE",
"320 94 OFFCURVE",
"309 71 CURVE SMOOTH",
"300 51 OFFCURVE",
"286 32 OFFCURVE",
"266 17 CURVE SMOOTH",
"246 1 OFFCURVE",
"219 -8 OFFCURVE",
"183 -8 CURVE SMOOTH",
"147 -8 OFFCURVE",
"119 1 OFFCURVE",
"99 17 CURVE SMOOTH",
"79 32 OFFCURVE",
"66 51 OFFCURVE",
"57 71 CURVE SMOOTH",
"46 94 OFFCURVE",
"40 121 OFFCURVE",
"39 151 CURVE",
"39 735 LINE",
"147 735 LINE",
"147 151 LINE SMOOTH",
"147 130 OFFCURVE",
"152 116 OFFCURVE",
"162 105 CURVE",
"167 100 OFFCURVE",
"174 97 OFFCURVE",
"183 97 CURVE SMOOTH",
"202 97 OFFCURVE",
"211 109 OFFCURVE",
"215 124 CURVE",
"218 131 OFFCURVE",
"219 140 OFFCURVE",
"219 151 CURVE SMOOTH",
"219 735 LINE"
);
},
{
closed = 1;
nodes = (
"307 890 LINE",
"228 800 LINE",
"150 800 LINE",
"202 890 LINE"
);
}
);
width = 366;
}
);
unicode = 00DA;
},
{
glyphname = Ubreve;
lastChange = "2012-05-22 22:56:21 +0000";
layers = (
{
layerId = "1AB499B8-18A8-432D-A211-B6882CCB886D";
name = Regular;
paths = (
{
closed = 1;
nodes = (
"327 735 LINE",
"327 151 LINE SMOOTH",
"326 121 OFFCURVE",
"320 94 OFFCURVE",
"309 71 CURVE SMOOTH",
"300 51 OFFCURVE",
"286 32 OFFCURVE",
"266 17 CURVE SMOOTH",
"246 1 OFFCURVE",
"219 -8 OFFCURVE",
"183 -8 CURVE SMOOTH",
"147 -8 OFFCURVE",
"119 1 OFFCURVE",
"99 17 CURVE SMOOTH",
"79 32 OFFCURVE",
"66 51 OFFCURVE",
"57 71 CURVE SMOOTH",
"46 94 OFFCURVE",
"40 121 OFFCURVE",
"39 151 CURVE",
"39 735 LINE",
"147 735 LINE",
"147 151 LINE SMOOTH",
"147 130 OFFCURVE",
"152 116 OFFCURVE",
"162 105 CURVE",
"167 100 OFFCURVE",
"174 97 OFFCURVE",
"183 97 CURVE SMOOTH",
"202 97 OFFCURVE",
"211 109 OFFCURVE",
"215 124 CURVE",
"218 131 OFFCURVE",
"219 140 OFFCURVE",
"219 151 CURVE SMOOTH",
"219 735 LINE"
);
},
{
closed = 1;
nodes = (
"294 871 LINE",
"277 854 OFFCURVE",
"257 840 OFFCURVE",
"230 831 CURVE",
"217 826 OFFCURVE",
"201 824 OFFCURVE",
"184 824 CURVE SMOOTH",
"149 824 OFFCURVE",
"122 835 OFFCURVE",
"103 847 CURVE SMOOTH",
"92 854 OFFCURVE",
"82 862 OFFCURVE",
"74 871 CURVE",
"128 917 LINE",
"135 908 OFFCURVE",
"146 901 OFFCURVE",
"160 897 CURVE SMOOTH",
"167 895 OFFCURVE",
"175 894 OFFCURVE",
"184 894 CURVE SMOOTH",
"203 894 OFFCURVE",
"216 898 OFFCURVE",
"227 905 CURVE",
"233 908 OFFCURVE",
"238 912 OFFCURVE",
"242 917 CURVE"
);
}
);
width = 366;
}
);
unicode = 016C;
},
{
glyphname = Ucircumflex;
lastChange = "2012-05-22 22:56:21 +0000";
layers = (
{
layerId = "1AB499B8-18A8-432D-A211-B6882CCB886D";
name = Regular;
paths = (
{
closed = 1;
nodes = (
"327 735 LINE",
"327 151 LINE SMOOTH",
"326 121 OFFCURVE",
"320 94 OFFCURVE",
"309 71 CURVE SMOOTH",
"300 51 OFFCURVE",
"286 32 OFFCURVE",
"266 17 CURVE SMOOTH",
"246 1 OFFCURVE",
"219 -8 OFFCURVE",
"183 -8 CURVE SMOOTH",
"147 -8 OFFCURVE",
"119 1 OFFCURVE",
"99 17 CURVE SMOOTH",
"79 32 OFFCURVE",
"66 51 OFFCURVE",
"57 71 CURVE SMOOTH",
"46 94 OFFCURVE",
"40 121 OFFCURVE",
"39 151 CURVE",
"39 735 LINE",
"147 735 LINE",
"147 151 LINE SMOOTH",
"147 130 OFFCURVE",
"152 116 OFFCURVE",
"162 105 CURVE",
"167 100 OFFCURVE",
"174 97 OFFCURVE",
"183 97 CURVE SMOOTH",
"202 97 OFFCURVE",
"211 109 OFFCURVE",
"215 124 CURVE",
"218 131 OFFCURVE",
"219 140 OFFCURVE",
"219 151 CURVE SMOOTH",
"219 735 LINE"
);
},
{
closed = 1;
nodes = (
"237 890 LINE",
"306 800 LINE",
"214 800 LINE",
"183 835 LINE",
"153 800 LINE",
"61 800 LINE",
"130 890 LINE"
);
}
);
width = 366;
}
);
unicode = 00DB;
},
{
glyphname = Udieresis;
lastChange = "2012-05-22 22:56:21 +0000";
layers = (
{
layerId = "1AB499B8-18A8-432D-A211-B6882CCB886D";
name = Regular;
paths = (
{
closed = 1;
nodes = (
"327 735 LINE",
"327 151 LINE SMOOTH",
"326 121 OFFCURVE",
"320 94 OFFCURVE",
"309 71 CURVE SMOOTH",
"300 51 OFFCURVE",
"286 32 OFFCURVE",
"266 17 CURVE SMOOTH",
"246 1 OFFCURVE",
"219 -8 OFFCURVE",
"183 -8 CURVE SMOOTH",
"147 -8 OFFCURVE",
"119 1 OFFCURVE",
"99 17 CURVE SMOOTH",
"79 32 OFFCURVE",
"66 51 OFFCURVE",
"57 71 CURVE SMOOTH",
"46 94 OFFCURVE",
"40 121 OFFCURVE",
"39 151 CURVE",
"39 735 LINE",
"147 735 LINE",
"147 151 LINE SMOOTH",
"147 130 OFFCURVE",
"152 116 OFFCURVE",
"162 105 CURVE",
"167 100 OFFCURVE",
"174 97 OFFCURVE",
"183 97 CURVE SMOOTH",
"202 97 OFFCURVE",
"211 109 OFFCURVE",
"215 124 CURVE",
"218 131 OFFCURVE",
"219 140 OFFCURVE",
"219 151 CURVE SMOOTH",
"219 735 LINE"
);
},
{
closed = 1;
nodes = (
"66 898 LINE",
"159 898 LINE",
"159 800 LINE",
"66 800 LINE"
);
},
{
closed = 1;
nodes = (
"207 898 LINE",
"300 898 LINE",
"300 800 LINE",
"207 800 LINE"
);
}
);
width = 366;
}
);
unicode = 00DC;
},
{
glyphname = Ugrave;
lastChange = "2012-05-22 22:56:21 +0000";
layers = (
{
layerId = "1AB499B8-18A8-432D-A211-B6882CCB886D";
name = Regular;
paths = (
{
closed = 1;
nodes = (
"327 735 LINE",
"327 151 LINE SMOOTH",
"326 121 OFFCURVE",
"320 94 OFFCURVE",
"309 71 CURVE SMOOTH",
"300 51 OFFCURVE",
"286 32 OFFCURVE",
"266 17 CURVE SMOOTH",
"246 1 OFFCURVE",
"219 -8 OFFCURVE",
"183 -8 CURVE SMOOTH",
"147 -8 OFFCURVE",
"119 1 OFFCURVE",
"99 17 CURVE SMOOTH",
"79 32 OFFCURVE",
"66 51 OFFCURVE",
"57 71 CURVE SMOOTH",
"46 94 OFFCURVE",
"40 121 OFFCURVE",
"39 151 CURVE",
"39 735 LINE",
"147 735 LINE",
"147 151 LINE SMOOTH",
"147 130 OFFCURVE",
"152 116 OFFCURVE",
"162 105 CURVE",
"167 100 OFFCURVE",
"174 97 OFFCURVE",
"183 97 CURVE SMOOTH",
"202 97 OFFCURVE",
"211 109 OFFCURVE",
"215 124 CURVE",
"218 131 OFFCURVE",
"219 140 OFFCURVE",
"219 151 CURVE SMOOTH",
"219 735 LINE"
);
},
{
closed = 1;
nodes = (
"176 890 LINE",
"228 800 LINE",
"150 800 LINE",
"71 890 LINE"
);
}
);
width = 366;
}
);
unicode = 00D9;
},
{
glyphname = Uhungarumlaut;
lastChange = "2012-05-22 22:56:21 +0000";
layers = (
{
layerId = "1AB499B8-18A8-432D-A211-B6882CCB886D";
name = Regular;
paths = (
{
closed = 1;
nodes = (
"327 735 LINE",
"327 151 LINE SMOOTH",
"326 121 OFFCURVE",
"320 94 OFFCURVE",
"309 71 CURVE SMOOTH",
"300 51 OFFCURVE",
"286 32 OFFCURVE",
"266 17 CURVE SMOOTH",
"246 1 OFFCURVE",
"219 -8 OFFCURVE",
"183 -8 CURVE SMOOTH",
"147 -8 OFFCURVE",
"119 1 OFFCURVE",
"99 17 CURVE SMOOTH",
"79 32 OFFCURVE",
"66 51 OFFCURVE",
"57 71 CURVE SMOOTH",
"46 94 OFFCURVE",
"40 121 OFFCURVE",
"39 151 CURVE",
"39 735 LINE",
"147 735 LINE",
"147 151 LINE SMOOTH",
"147 130 OFFCURVE",
"152 116 OFFCURVE",
"162 105 CURVE",
"167 100 OFFCURVE",
"174 97 OFFCURVE",
"183 97 CURVE SMOOTH",
"202 97 OFFCURVE",
"211 109 OFFCURVE",
"215 124 CURVE",
"218 131 OFFCURVE",
"219 140 OFFCURVE",
"219 151 CURVE SMOOTH",
"219 735 LINE"
);
},
{
closed = 1;
nodes = (
"189 915 LINE",
"110 825 LINE",
"32 825 LINE",
"84 915 LINE"
);
},
{
closed = 1;
nodes = (
"337 915 LINE",
"258 825 LINE",
"180 825 LINE",
"232 915 LINE"
);
}
);
width = 366;
}
);
unicode = 0170;
},
{
glyphname = Umacron;
lastChange = "2012-05-22 22:56:21 +0000";
layers = (
{
layerId = "1AB499B8-18A8-432D-A211-B6882CCB886D";
name = Regular;
paths = (
{
closed = 1;
nodes = (
"327 735 LINE",
"327 151 LINE SMOOTH",
"326 121 OFFCURVE",
"320 94 OFFCURVE",
"309 71 CURVE SMOOTH",
"300 51 OFFCURVE",
"286 32 OFFCURVE",
"266 17 CURVE SMOOTH",
"246 1 OFFCURVE",
"219 -8 OFFCURVE",
"183 -8 CURVE SMOOTH",
"147 -8 OFFCURVE",
"119 1 OFFCURVE",
"99 17 CURVE SMOOTH",
"79 32 OFFCURVE",
"66 51 OFFCURVE",
"57 71 CURVE SMOOTH",
"46 94 OFFCURVE",
"40 121 OFFCURVE",
"39 151 CURVE",
"39 735 LINE",
"147 735 LINE",
"147 151 LINE SMOOTH",
"147 130 OFFCURVE",
"152 116 OFFCURVE",
"162 105 CURVE",
"167 100 OFFCURVE",
"174 97 OFFCURVE",
"183 97 CURVE SMOOTH",
"202 97 OFFCURVE",
"211 109 OFFCURVE",
"215 124 CURVE",
"218 131 OFFCURVE",
"219 140 OFFCURVE",
"219 151 CURVE SMOOTH",
"219 735 LINE"
);
},
{
closed = 1;
nodes = (
"87 909 LINE",
"281 909 LINE",
"281 830 LINE",
"87 830 LINE"
);
}
);
width = 366;
}
);
unicode = 016A;
},
{
glyphname = Uogonek;
lastChange = "2012-05-22 22:56:21 +0000";
layers = (
{
layerId = "1AB499B8-18A8-432D-A211-B6882CCB886D";
name = Regular;
paths = (
{
closed = 1;
nodes = (
"327 735 LINE",
"327 151 LINE SMOOTH",
"326 121 OFFCURVE",
"320 94 OFFCURVE",
"309 71 CURVE SMOOTH",
"300 51 OFFCURVE",
"286 32 OFFCURVE",
"266 17 CURVE SMOOTH",
"246 1 OFFCURVE",
"219 -8 OFFCURVE",
"183 -8 CURVE SMOOTH",
"147 -8 OFFCURVE",
"119 1 OFFCURVE",
"99 17 CURVE SMOOTH",
"79 32 OFFCURVE",
"66 51 OFFCURVE",
"57 71 CURVE SMOOTH",
"46 94 OFFCURVE",
"40 121 OFFCURVE",
"39 151 CURVE",
"39 735 LINE",
"147 735 LINE",
"147 151 LINE SMOOTH",
"147 130 OFFCURVE",
"152 116 OFFCURVE",
"162 105 CURVE",
"167 100 OFFCURVE",
"174 97 OFFCURVE",
"183 97 CURVE SMOOTH",
"202 97 OFFCURVE",
"211 109 OFFCURVE",
"215 124 CURVE",
"218 131 OFFCURVE",
"219 140 OFFCURVE",
"219 151 CURVE SMOOTH",
"219 735 LINE"
);
},
{
closed = 1;
nodes = (
"168 -75 OFFCURVE",
"184 -50 OFFCURVE",
"201 -31 CURVE",
"210 -20 OFFCURVE",
"221 -9 OFFCURVE",
"234 0 CURVE",
"282 0 LINE",
"265 -15 OFFCURVE",
"253 -30 OFFCURVE",
"244 -50 CURVE",
"239 -60 OFFCURVE",
"237 -71 OFFCURVE",
"237 -83 CURVE SMOOTH",
"237 -112 OFFCURVE",
"264 -121 OFFCURVE",
"287 -121 CURVE SMOOTH",
"304 -121 OFFCURVE",
"317 -117 OFFCURVE",
"329 -112 CURVE",
"321 -179 LINE",
"300 -186 OFFCURVE",
"287 -188 OFFCURVE",
"270 -188 CURVE SMOOTH",
"205 -188 OFFCURVE",
"168 -148 OFFCURVE",
"168 -103 CURVE SMOOTH"
);
}
);
width = 366;
}
);
unicode = 0172;
},
{
glyphname = Uring;
lastChange = "2012-05-22 22:56:21 +0000";
layers = (
{
layerId = "1AB499B8-18A8-432D-A211-B6882CCB886D";
name = Regular;
paths = (
{
closed = 1;
nodes = (
"327 735 LINE",
"327 151 LINE SMOOTH",
"326 121 OFFCURVE",
"320 94 OFFCURVE",
"309 71 CURVE SMOOTH",
"300 51 OFFCURVE",
"286 32 OFFCURVE",
"266 17 CURVE SMOOTH",
"246 1 OFFCURVE",
"219 -8 OFFCURVE",
"183 -8 CURVE SMOOTH",
"147 -8 OFFCURVE",
"119 1 OFFCURVE",
"99 17 CURVE SMOOTH",
"79 32 OFFCURVE",
"66 51 OFFCURVE",
"57 71 CURVE SMOOTH",
"46 94 OFFCURVE",
"40 121 OFFCURVE",
"39 151 CURVE",
"39 735 LINE",
"147 735 LINE",
"147 151 LINE SMOOTH",
"147 130 OFFCURVE",
"152 116 OFFCURVE",
"162 105 CURVE",
"167 100 OFFCURVE",
"174 97 OFFCURVE",
"183 97 CURVE SMOOTH",
"202 97 OFFCURVE",
"211 109 OFFCURVE",
"215 124 CURVE",
"218 131 OFFCURVE",
"219 140 OFFCURVE",
"219 151 CURVE SMOOTH",
"219 735 LINE"
);
},
{
closed = 1;
nodes = (
"110 923 OFFCURVE",
"144 952 OFFCURVE",
"185 952 CURVE SMOOTH",
"226 952 OFFCURVE",
"259 923 OFFCURVE",
"259 882 CURVE SMOOTH",
"259 841 OFFCURVE",
"226 812 OFFCURVE",
"185 812 CURVE SMOOTH",
"144 812 OFFCURVE",
"110 841 OFFCURVE",
"110 882 CURVE SMOOTH"
);
},
{
closed = 1;
nodes = (
"148 863 OFFCURVE",
"166 847 OFFCURVE",
"185 847 CURVE SMOOTH",
"204 847 OFFCURVE",
"222 863 OFFCURVE",
"222 882 CURVE SMOOTH",
"222 901 OFFCURVE",
"204 917 OFFCURVE",
"185 917 CURVE SMOOTH",
"166 917 OFFCURVE",
"148 901 OFFCURVE",
"148 882 CURVE SMOOTH"
);
}
);
width = 366;
}
);
unicode = 016E;
},
{
glyphname = Utilde;
lastChange = "2012-05-22 22:56:21 +0000";
layers = (
{
layerId = "1AB499B8-18A8-432D-A211-B6882CCB886D";
name = Regular;
paths = (
{
closed = 1;
nodes = (
"327 735 LINE",
"327 151 LINE SMOOTH",
"326 121 OFFCURVE",
"320 94 OFFCURVE",
"309 71 CURVE SMOOTH",
"300 51 OFFCURVE",
"286 32 OFFCURVE",
"266 17 CURVE SMOOTH",
"246 1 OFFCURVE",
"219 -8 OFFCURVE",
"183 -8 CURVE SMOOTH",
"147 -8 OFFCURVE",
"119 1 OFFCURVE",
"99 17 CURVE SMOOTH",
"79 32 OFFCURVE",
"66 51 OFFCURVE",
"57 71 CURVE SMOOTH",
"46 94 OFFCURVE",
"40 121 OFFCURVE",
"39 151 CURVE",
"39 735 LINE",
"147 735 LINE",
"147 151 LINE SMOOTH",
"147 130 OFFCURVE",
"152 116 OFFCURVE",
"162 105 CURVE",
"167 100 OFFCURVE",
"174 97 OFFCURVE",
"183 97 CURVE SMOOTH",
"202 97 OFFCURVE",
"211 109 OFFCURVE",
"215 124 CURVE",
"218 131 OFFCURVE",
"219 140 OFFCURVE",
"219 151 CURVE SMOOTH",
"219 735 LINE"
);
},
{
closed = 1;
nodes = (
"125 841 OFFCURVE",
"114 837 OFFCURVE",
"103 833 CURVE",
"97 830 OFFCURVE",
"92 828 OFFCURVE",
"87 825 CURVE",
"87 899 LINE",
"96 906 OFFCURVE",
"108 911 OFFCURVE",
"120 915 CURVE SMOOTH",
"126 917 OFFCURVE",
"133 918 OFFCURVE",
"140 918 CURVE SMOOTH",
"155 918 OFFCURVE",
"170 915 OFFCURVE",
"184 910 CURVE",
"198 904 OFFCURVE",
"213 900 OFFCURVE",
"228 899 CURVE",
"243 899 OFFCURVE",
"254 903 OFFCURVE",
"265 907 CURVE",
"271 910 OFFCURVE",
"276 912 OFFCURVE",
"281 915 CURVE",
"281 841 LINE",
"272 833 OFFCURVE",
"260 828 OFFCURVE",
"248 825 CURVE",
"242 823 OFFCURVE",
"235 822 OFFCURVE",
"228 822 CURVE SMOOTH",
"213 822 OFFCURVE",
"198 825 OFFCURVE",
"185 831 CURVE SMOOTH",
"171 837 OFFCURVE",
"156 840 OFFCURVE",
"140 841 CURVE"
);
}
);
width = 366;
}
);
unicode = 0168;
},
{
glyphname = V;
lastChange = "2012-05-22 22:56:21 +0000";
layers = (
{
layerId = "1AB499B8-18A8-432D-A211-B6882CCB886D";
name = Regular;
paths = (
{
closed = 1;
nodes = (
"236 735 LINE",
"341 735 LINE",
"229 0 LINE",
"121 0 LINE",
"9 735 LINE",
"114 735 LINE",
"168 331 LINE",
"172 300 LINE",
"178 300 LINE",
"182 331 LINE"
);
}
);
width = 350;
}
);
leftKerningGroup = V;
unicode = 0056;
},
{
glyphname = W;
lastChange = "2012-05-22 22:56:21 +0000";
layers = (
{
anchors = (
{
name = top;
position = "{253, 735}";
}
);
layerId = "1AB499B8-18A8-432D-A211-B6882CCB886D";
name = Regular;
paths = (
{
closed = 1;
nodes = (
"195 0 LINE",
"111 0 LINE",
"12 735 LINE",
"112 735 LINE",
"155 353 LINE",
"157 329 LINE",
"165 329 LINE",
"168 353 LINE",
"214 735 LINE",
"292 735 LINE",
"338 353 LINE",
"341 329 LINE",
"349 329 LINE",
"351 353 LINE",
"394 735 LINE",
"494 735 LINE",
"395 0 LINE",
"311 0 LINE",
"261 348 LINE",
"255 391 LINE",
"251 391 LINE",
"245 348 LINE"
);
}
);
width = 506;
}
);
leftKerningGroup = V;
unicode = 0057;
},
{
glyphname = Wcircumflex;
lastChange = "2012-05-22 22:56:21 +0000";
layers = (
{
layerId = "1AB499B8-18A8-432D-A211-B6882CCB886D";
name = Regular;
paths = (
{
closed = 1;
nodes = (
"195 0 LINE",
"111 0 LINE",
"12 735 LINE",
"112 735 LINE",
"155 353 LINE",
"157 329 LINE",
"165 329 LINE",
"168 353 LINE",
"214 735 LINE",
"292 735 LINE",
"338 353 LINE",
"341 329 LINE",
"349 329 LINE",
"351 353 LINE",
"394 735 LINE",
"494 735 LINE",
"395 0 LINE",
"311 0 LINE",
"261 348 LINE",
"255 391 LINE",
"251 391 LINE",
"245 348 LINE"
);
},
{
closed = 1;
nodes = (
"306 915 LINE",
"375 825 LINE",
"283 825 LINE",
"252 860 LINE",
"222 825 LINE",
"130 825 LINE",
"199 915 LINE"
);
}
);
width = 506;
}
);
unicode = 0174;
},
{
glyphname = X;
lastChange = "2012-05-22 22:56:21 +0000";
layers = (
{
layerId = "1AB499B8-18A8-432D-A211-B6882CCB886D";
name = Regular;
paths = (
{
closed = 1;
nodes = (
"114 0 LINE",
"8 0 LINE",
"127 386 LINE",
"10 735 LINE",
"116 735 LINE",
"175 549 LINE",
"178 540 LINE",
"182 540 LINE",
"185 549 LINE",
"244 735 LINE",
"350 735 LINE",
"233 386 LINE",
"352 0 LINE",
"246 0 LINE",
"184 219 LINE",
"182 228 LINE",
"178 228 LINE",
"176 219 LINE"
);
}
);
width = 360;
}
);
unicode = 0058;
},
{
glyphname = Y;
lastChange = "2012-05-22 22:56:21 +0000";
layers = (
{
anchors = (
{
name = top;
position = "{171, 735}";
}
);
layerId = "1AB499B8-18A8-432D-A211-B6882CCB886D";
name = Regular;
paths = (
{
closed = 1;
nodes = (
"167 500 LINE",
"170 493 LINE",
"172 493 LINE",
"175 500 LINE",
"229 735 LINE",
"335 735 LINE",
"225 313 LINE",
"225 0 LINE",
"117 0 LINE",
"117 313 LINE",
"7 735 LINE",
"113 735 LINE"
);
}
);
width = 342;
}
);
leftKerningGroup = Y;
rightKerningGroup = Y;
unicode = 0059;
},
{
glyphname = Yacute;
lastChange = "2012-05-22 22:56:21 +0000";
layers = (
{
layerId = "1AB499B8-18A8-432D-A211-B6882CCB886D";
name = Regular;
paths = (
{
closed = 1;
nodes = (
"168 500 LINE",
"171 493 LINE",
"173 493 LINE",
"176 500 LINE",
"230 735 LINE",
"336 735 LINE",
"226 313 LINE",
"226 0 LINE",
"118 0 LINE",
"118 313 LINE",
"8 735 LINE",
"114 735 LINE"
);
},
{
closed = 1;
nodes = (
"281 890 LINE",
"202 800 LINE",
"124 800 LINE",
"176 890 LINE"
);
}
);
width = 344;
}
);
leftKerningGroup = Y;
rightKerningGroup = Y;
unicode = 00DD;
},
{
glyphname = Ycircumflex;
lastChange = "2012-05-22 22:56:21 +0000";
layers = (
{
layerId = "1AB499B8-18A8-432D-A211-B6882CCB886D";
name = Regular;
paths = (
{
closed = 1;
nodes = (
"167 500 LINE",
"170 493 LINE",
"172 493 LINE",
"175 500 LINE",
"229 735 LINE",
"335 735 LINE",
"225 313 LINE",
"225 0 LINE",
"117 0 LINE",
"117 313 LINE",
"7 735 LINE",
"113 735 LINE"
);
},
{
closed = 1;
nodes = (
"226 915 LINE",
"295 825 LINE",
"203 825 LINE",
"172 860 LINE",
"142 825 LINE",
"50 825 LINE",
"119 915 LINE"
);
}
);
width = 342;
}
);
unicode = 0176;
},
{
glyphname = Ydieresis;
lastChange = "2012-05-22 22:56:21 +0000";
layers = (
{
layerId = "1AB499B8-18A8-432D-A211-B6882CCB886D";
name = Regular;
paths = (
{
closed = 1;
nodes = (
"168 500 LINE",
"171 493 LINE",
"173 493 LINE",
"176 500 LINE",
"230 735 LINE",
"336 735 LINE",
"226 313 LINE",
"226 0 LINE",
"118 0 LINE",
"118 313 LINE",
"8 735 LINE",
"114 735 LINE"
);
},
{
closed = 1;
nodes = (
"55 898 LINE",
"148 898 LINE",
"148 800 LINE",
"55 800 LINE"
);
},
{
closed = 1;
nodes = (
"196 898 LINE",
"289 898 LINE",
"289 800 LINE",
"196 800 LINE"
);
}
);
width = 344;
}
);
leftKerningGroup = Y;
rightKerningGroup = Y;
unicode = 0178;
},
{
glyphname = Z;
lastChange = "2012-05-22 22:56:21 +0000";
layers = (
{
anchors = (
{
name = top;
position = "{153, 735}";
}
);
layerId = "1AB499B8-18A8-432D-A211-B6882CCB886D";
name = Regular;
paths = (
{
closed = 1;
nodes = (
"10 116 LINE",
"179 628 LINE",
"34 628 LINE",
"34 735 LINE",
"296 735 LINE",
"296 628 LINE",
"124 107 LINE",
"296 107 LINE",
"296 0 LINE",
"10 0 LINE"
);
}
);
width = 306;
}
);
unicode = 005A;
},
{
glyphname = Zacute;
lastChange = "2012-05-22 22:56:21 +0000";
layers = (
{
layerId = "1AB499B8-18A8-432D-A211-B6882CCB886D";
name = Regular;
paths = (
{
closed = 1;
nodes = (
"10 116 LINE",
"179 628 LINE",
"34 628 LINE",
"34 735 LINE",
"296 735 LINE",
"296 628 LINE",
"124 107 LINE",
"296 107 LINE",
"296 0 LINE",
"10 0 LINE"
);
},
{
closed = 1;
nodes = (
"233 915 LINE",
"154 825 LINE",
"76 825 LINE",
"128 915 LINE"
);
}
);
width = 306;
}
);
unicode = 0179;
},
{
glyphname = Zcaron;
lastChange = "2012-05-22 22:56:21 +0000";
layers = (
{
layerId = "1AB499B8-18A8-432D-A211-B6882CCB886D";
name = Regular;
paths = (
{
closed = 1;
nodes = (
"10 116 LINE",
"179 628 LINE",
"34 628 LINE",
"34 735 LINE",
"296 735 LINE",
"296 628 LINE",
"124 107 LINE",
"296 107 LINE",
"296 0 LINE",
"10 0 LINE"
);
},
{
closed = 1;
nodes = (
"112 800 LINE",
"43 890 LINE",
"135 890 LINE",
"165 855 LINE",
"196 890 LINE",
"288 890 LINE",
"219 800 LINE"
);
}
);
width = 306;
}
);
unicode = 017D;
},
{
glyphname = Zdotaccent;
lastChange = "2012-05-22 22:56:21 +0000";
layers = (
{
layerId = "1AB499B8-18A8-432D-A211-B6882CCB886D";
name = Regular;
paths = (
{
closed = 1;
nodes = (
"10 116 LINE",
"179 628 LINE",
"34 628 LINE",
"34 735 LINE",
"296 735 LINE",
"296 628 LINE",
"124 107 LINE",
"296 107 LINE",
"296 0 LINE",
"10 0 LINE"
);
},
{
closed = 1;
nodes = (
"104 923 LINE",
"205 923 LINE",
"205 822 LINE",
"104 822 LINE"
);
}
);
width = 306;
}
);
unicode = 017B;
},
{
glyphname = a;
lastChange = "2012-08-26 17:59:25 +0000";
layers = (
{
anchors = (
{
name = ogonek;
position = "{300, 10}";
},
{
name = top;
position = "{167, 547}";
}
);
layerId = "1AB499B8-18A8-432D-A211-B6882CCB886D";
name = Regular;
paths = (
{
closed = 1;
nodes = (
"123 135 OFFCURVE",
"124 123 OFFCURVE",
"128 112 CURVE SMOOTH",
"132 100 OFFCURVE",
"139 91 OFFCURVE",
"151 91 CURVE SMOOTH",
"174 91 OFFCURVE",
"193 105 OFFCURVE",
"193 124 CURVE SMOOTH",
"193 264 LINE",
"144 243 OFFCURVE",
"123 194 OFFCURVE",
"123 142 CURVE SMOOTH"
);
},
{
closed = 1;
nodes = (
"24 188 OFFCURVE",
"42 232 OFFCURVE",
"66 262 CURVE SMOOTH",
"90 292 OFFCURVE",
"120 311 OFFCURVE",
"145 324 CURVE SMOOTH",
"170 337 OFFCURVE",
"189 346 OFFCURVE",
"193 357 CURVE",
"193 375 LINE",
"193 417 LINE SMOOTH",
"193 426 OFFCURVE",
"193 440 OFFCURVE",
"190 450 CURVE",
"186 460 OFFCURVE",
"178 467 OFFCURVE",
"165 467 CURVE SMOOTH",
"148 467 OFFCURVE",
"141 454 OFFCURVE",
"138 438 CURVE",
"137 430 OFFCURVE",
"136 421 OFFCURVE",
"136 412 CURVE SMOOTH",
"136 403 OFFCURVE",
"136 394 OFFCURVE",
"136 386 CURVE",
"35 386 LINE",
"35 409 LINE SMOOTH",
"35 449 OFFCURVE",
"50 485 OFFCURVE",
"74 512 CURVE SMOOTH",
"98 539 OFFCURVE",
"132 555 OFFCURVE",
"171 555 CURVE SMOOTH",
"204 555 OFFCURVE",
"234 542 OFFCURVE",
"257 520 CURVE SMOOTH",
"280 498 OFFCURVE",
"294 467 OFFCURVE",
"294 431 CURVE SMOOTH",
"294 260 LINE",
"294 95 LINE SMOOTH",
"294 46 OFFCURVE",
"297 24 OFFCURVE",
"301 0 CURVE",
"202 0 LINE",
"193 11 OFFCURVE",
"193 37 OFFCURVE",
"193 44 CURVE",
"186 44 LINE",
"181 35 OFFCURVE",
"172 22 OFFCURVE",
"158 11 CURVE SMOOTH",
"144 0 OFFCURVE",
"125 -8 OFFCURVE",
"105 -8 CURVE SMOOTH",
"92 -8 OFFCURVE",
"71 -3 OFFCURVE",
"55 17 CURVE",
"38 36 OFFCURVE",
"24 70 OFFCURVE",
"24 127 CURVE SMOOTH"
);
}
);
width = 323;
}
);
leftKerningGroup = a;
rightKerningGroup = a;
unicode = 0061;
},
{
glyphname = aacute;
lastChange = "2012-05-22 22:56:21 +0000";
layers = (
{
layerId = "1AB499B8-18A8-432D-A211-B6882CCB886D";
name = Regular;
paths = (
{
closed = 1;
nodes = (
"123 135 OFFCURVE",
"124 123 OFFCURVE",
"128 112 CURVE SMOOTH",
"132 100 OFFCURVE",
"139 91 OFFCURVE",
"151 91 CURVE SMOOTH",
"174 91 OFFCURVE",
"193 105 OFFCURVE",
"193 124 CURVE SMOOTH",
"193 264 LINE",
"144 243 OFFCURVE",
"123 194 OFFCURVE",
"123 142 CURVE SMOOTH"
);
},
{
closed = 1;
nodes = (
"24 188 OFFCURVE",
"42 232 OFFCURVE",
"66 262 CURVE SMOOTH",
"90 292 OFFCURVE",
"120 311 OFFCURVE",
"145 324 CURVE SMOOTH",
"170 337 OFFCURVE",
"189 346 OFFCURVE",
"193 357 CURVE",
"193 375 LINE",
"193 417 LINE SMOOTH",
"193 426 OFFCURVE",
"193 440 OFFCURVE",
"190 450 CURVE",
"186 460 OFFCURVE",
"178 467 OFFCURVE",
"165 467 CURVE SMOOTH",
"148 467 OFFCURVE",
"141 454 OFFCURVE",
"138 438 CURVE",
"137 430 OFFCURVE",
"136 421 OFFCURVE",
"136 412 CURVE SMOOTH",
"136 403 OFFCURVE",
"136 394 OFFCURVE",
"136 386 CURVE",
"35 386 LINE",
"35 409 LINE SMOOTH",
"35 449 OFFCURVE",
"50 485 OFFCURVE",
"74 512 CURVE SMOOTH",
"98 539 OFFCURVE",
"132 555 OFFCURVE",
"171 555 CURVE SMOOTH",
"204 555 OFFCURVE",
"234 542 OFFCURVE",
"257 520 CURVE SMOOTH",
"280 498 OFFCURVE",
"294 467 OFFCURVE",
"294 431 CURVE SMOOTH",
"294 260 LINE",
"294 95 LINE SMOOTH",
"294 46 OFFCURVE",
"297 24 OFFCURVE",
"301 0 CURVE",
"202 0 LINE",
"193 11 OFFCURVE",
"193 37 OFFCURVE",
"193 44 CURVE",
"186 44 LINE",
"181 35 OFFCURVE",
"172 22 OFFCURVE",
"158 11 CURVE SMOOTH",
"144 0 OFFCURVE",
"125 -8 OFFCURVE",
"105 -8 CURVE SMOOTH",
"92 -8 OFFCURVE",
"71 -3 OFFCURVE",
"55 17 CURVE",
"38 36 OFFCURVE",
"24 70 OFFCURVE",
"24 127 CURVE SMOOTH"
);
},
{
closed = 1;
nodes = (
"286 727 LINE",
"207 637 LINE",
"129 637 LINE",
"181 727 LINE"
);
}
);
width = 333;
}
);
leftKerningGroup = a;
rightKerningGroup = a;
unicode = 00E1;
},
{
glyphname = abreve;
lastChange = "2012-05-22 22:56:21 +0000";
layers = (
{
layerId = "1AB499B8-18A8-432D-A211-B6882CCB886D";
name = Regular;
paths = (
{
closed = 1;
nodes = (
"123 135 OFFCURVE",
"124 123 OFFCURVE",
"128 112 CURVE SMOOTH",
"132 100 OFFCURVE",
"139 91 OFFCURVE",
"151 91 CURVE SMOOTH",
"174 91 OFFCURVE",
"193 105 OFFCURVE",
"193 124 CURVE SMOOTH",
"193 264 LINE",
"144 243 OFFCURVE",
"123 194 OFFCURVE",
"123 142 CURVE SMOOTH"
);
},
{
closed = 1;
nodes = (
"24 188 OFFCURVE",
"42 232 OFFCURVE",
"66 262 CURVE SMOOTH",
"90 292 OFFCURVE",
"120 311 OFFCURVE",
"145 324 CURVE SMOOTH",
"170 337 OFFCURVE",
"189 346 OFFCURVE",
"193 357 CURVE",
"193 375 LINE",
"193 417 LINE SMOOTH",
"193 426 OFFCURVE",
"193 440 OFFCURVE",
"190 450 CURVE",
"186 460 OFFCURVE",
"178 467 OFFCURVE",
"165 467 CURVE SMOOTH",
"148 467 OFFCURVE",
"141 454 OFFCURVE",
"138 438 CURVE",
"137 430 OFFCURVE",
"136 421 OFFCURVE",
"136 412 CURVE SMOOTH",
"136 403 OFFCURVE",
"136 394 OFFCURVE",
"136 386 CURVE",
"35 386 LINE",
"35 409 LINE SMOOTH",
"35 449 OFFCURVE",
"50 485 OFFCURVE",
"74 512 CURVE SMOOTH",
"98 539 OFFCURVE",
"132 555 OFFCURVE",
"171 555 CURVE SMOOTH",
"204 555 OFFCURVE",
"234 542 OFFCURVE",
"257 520 CURVE SMOOTH",
"280 498 OFFCURVE",
"294 467 OFFCURVE",
"294 431 CURVE SMOOTH",
"294 260 LINE",
"294 95 LINE SMOOTH",
"294 46 OFFCURVE",
"297 24 OFFCURVE",
"301 0 CURVE",
"202 0 LINE",
"193 11 OFFCURVE",
"193 37 OFFCURVE",
"193 44 CURVE",
"186 44 LINE",
"181 35 OFFCURVE",
"172 22 OFFCURVE",
"158 11 CURVE SMOOTH",
"144 0 OFFCURVE",
"125 -8 OFFCURVE",
"105 -8 CURVE SMOOTH",
"92 -8 OFFCURVE",
"71 -3 OFFCURVE",
"55 17 CURVE",
"38 36 OFFCURVE",
"24 70 OFFCURVE",
"24 127 CURVE SMOOTH"
);
},
{
closed = 1;
nodes = (
"278 683 LINE",
"261 666 OFFCURVE",
"241 652 OFFCURVE",
"214 643 CURVE",
"201 638 OFFCURVE",
"185 636 OFFCURVE",
"168 636 CURVE SMOOTH",
"133 636 OFFCURVE",
"106 647 OFFCURVE",
"87 659 CURVE SMOOTH",
"76 666 OFFCURVE",
"66 674 OFFCURVE",
"58 683 CURVE",
"112 729 LINE",
"119 720 OFFCURVE",
"130 713 OFFCURVE",
"144 709 CURVE SMOOTH",
"151 707 OFFCURVE",
"159 706 OFFCURVE",
"168 706 CURVE SMOOTH",
"187 706 OFFCURVE",
"200 710 OFFCURVE",
"211 717 CURVE",
"217 720 OFFCURVE",
"222 724 OFFCURVE",
"226 729 CURVE"
);
}
);
width = 333;
}
);
unicode = 0103;
},
{
glyphname = acircumflex;
lastChange = "2012-05-22 22:56:21 +0000";
layers = (
{
layerId = "1AB499B8-18A8-432D-A211-B6882CCB886D";
name = Regular;
paths = (
{
closed = 1;
nodes = (
"123 135 OFFCURVE",
"124 123 OFFCURVE",
"128 112 CURVE SMOOTH",
"132 100 OFFCURVE",
"139 91 OFFCURVE",
"151 91 CURVE SMOOTH",
"174 91 OFFCURVE",
"193 105 OFFCURVE",
"193 124 CURVE SMOOTH",
"193 264 LINE",
"144 243 OFFCURVE",
"123 194 OFFCURVE",
"123 142 CURVE SMOOTH"
);
},
{
closed = 1;
nodes = (
"24 188 OFFCURVE",
"42 232 OFFCURVE",
"66 262 CURVE SMOOTH",
"90 292 OFFCURVE",
"120 311 OFFCURVE",
"145 324 CURVE SMOOTH",
"170 337 OFFCURVE",
"189 346 OFFCURVE",
"193 357 CURVE",
"193 375 LINE",
"193 417 LINE SMOOTH",
"193 426 OFFCURVE",
"193 440 OFFCURVE",
"190 450 CURVE",
"186 460 OFFCURVE",
"178 467 OFFCURVE",
"165 467 CURVE SMOOTH",
"148 467 OFFCURVE",
"141 454 OFFCURVE",
"138 438 CURVE",
"137 430 OFFCURVE",
"136 421 OFFCURVE",
"136 412 CURVE SMOOTH",
"136 403 OFFCURVE",
"136 394 OFFCURVE",
"136 386 CURVE",
"35 386 LINE",
"35 409 LINE SMOOTH",
"35 449 OFFCURVE",
"50 485 OFFCURVE",
"74 512 CURVE SMOOTH",
"98 539 OFFCURVE",
"132 555 OFFCURVE",
"171 555 CURVE SMOOTH",
"204 555 OFFCURVE",
"234 542 OFFCURVE",
"257 520 CURVE SMOOTH",
"280 498 OFFCURVE",
"294 467 OFFCURVE",
"294 431 CURVE SMOOTH",
"294 260 LINE",
"294 95 LINE SMOOTH",
"294 46 OFFCURVE",
"297 24 OFFCURVE",
"301 0 CURVE",
"202 0 LINE",
"193 11 OFFCURVE",
"193 37 OFFCURVE",
"193 44 CURVE",
"186 44 LINE",
"181 35 OFFCURVE",
"172 22 OFFCURVE",
"158 11 CURVE SMOOTH",
"144 0 OFFCURVE",
"125 -8 OFFCURVE",
"105 -8 CURVE SMOOTH",
"92 -8 OFFCURVE",
"71 -3 OFFCURVE",
"55 17 CURVE",
"38 36 OFFCURVE",
"24 70 OFFCURVE",
"24 127 CURVE SMOOTH"
);
},
{
closed = 1;
nodes = (
"220 727 LINE",
"289 637 LINE",
"197 637 LINE",
"166 672 LINE",
"136 637 LINE",
"44 637 LINE",
"113 727 LINE"
);
}
);
width = 333;
}
);
leftKerningGroup = a;
rightKerningGroup = a;
unicode = 00E2;
},
{
glyphname = adieresis;
lastChange = "2012-05-22 22:56:21 +0000";
layers = (
{
layerId = "1AB499B8-18A8-432D-A211-B6882CCB886D";
name = Regular;
paths = (
{
closed = 1;
nodes = (
"123 135 OFFCURVE",
"124 123 OFFCURVE",
"128 112 CURVE SMOOTH",
"132 100 OFFCURVE",
"139 91 OFFCURVE",
"151 91 CURVE SMOOTH",
"174 91 OFFCURVE",
"193 105 OFFCURVE",
"193 124 CURVE SMOOTH",
"193 264 LINE",
"144 243 OFFCURVE",
"123 194 OFFCURVE",
"123 142 CURVE SMOOTH"
);
},
{
closed = 1;
nodes = (
"24 188 OFFCURVE",
"42 232 OFFCURVE",
"66 262 CURVE SMOOTH",
"90 292 OFFCURVE",
"120 311 OFFCURVE",
"145 324 CURVE SMOOTH",
"170 337 OFFCURVE",
"189 346 OFFCURVE",
"193 357 CURVE",
"193 375 LINE",
"193 417 LINE SMOOTH",
"193 426 OFFCURVE",
"193 440 OFFCURVE",
"190 450 CURVE",
"186 460 OFFCURVE",
"178 467 OFFCURVE",
"165 467 CURVE SMOOTH",
"148 467 OFFCURVE",
"141 454 OFFCURVE",
"138 438 CURVE",
"137 430 OFFCURVE",
"136 421 OFFCURVE",
"136 412 CURVE SMOOTH",
"136 403 OFFCURVE",
"136 394 OFFCURVE",
"136 386 CURVE",
"35 386 LINE",
"35 409 LINE SMOOTH",
"35 449 OFFCURVE",
"50 485 OFFCURVE",
"74 512 CURVE SMOOTH",
"98 539 OFFCURVE",
"132 555 OFFCURVE",
"171 555 CURVE SMOOTH",
"204 555 OFFCURVE",
"234 542 OFFCURVE",
"257 520 CURVE SMOOTH",
"280 498 OFFCURVE",
"294 467 OFFCURVE",
"294 431 CURVE SMOOTH",
"294 260 LINE",
"294 95 LINE SMOOTH",
"294 46 OFFCURVE",
"297 24 OFFCURVE",
"301 0 CURVE",
"202 0 LINE",
"193 11 OFFCURVE",
"193 37 OFFCURVE",
"193 44 CURVE",
"186 44 LINE",
"181 35 OFFCURVE",
"172 22 OFFCURVE",
"158 11 CURVE SMOOTH",
"144 0 OFFCURVE",
"125 -8 OFFCURVE",
"105 -8 CURVE SMOOTH",
"92 -8 OFFCURVE",
"71 -3 OFFCURVE",
"55 17 CURVE",
"38 36 OFFCURVE",
"24 70 OFFCURVE",
"24 127 CURVE SMOOTH"
);
},
{
closed = 1;
nodes = (
"50 735 LINE",
"143 735 LINE",
"143 637 LINE",
"50 637 LINE"
);
},
{
closed = 1;
nodes = (
"191 735 LINE",
"284 735 LINE",
"284 637 LINE",
"191 637 LINE"
);
}
);
width = 333;
}
);
leftKerningGroup = a;
rightKerningGroup = a;
unicode = 00E4;
},
{
glyphname = agrave;
lastChange = "2012-05-22 22:56:21 +0000";
layers = (
{
layerId = "1AB499B8-18A8-432D-A211-B6882CCB886D";
name = Regular;
paths = (
{
closed = 1;
nodes = (
"123 135 OFFCURVE",
"124 123 OFFCURVE",
"128 112 CURVE SMOOTH",
"132 100 OFFCURVE",
"139 91 OFFCURVE",
"151 91 CURVE SMOOTH",
"174 91 OFFCURVE",
"193 105 OFFCURVE",
"193 124 CURVE SMOOTH",
"193 264 LINE",
"144 243 OFFCURVE",
"123 194 OFFCURVE",
"123 142 CURVE SMOOTH"
);
},
{
closed = 1;
nodes = (
"24 188 OFFCURVE",
"42 232 OFFCURVE",
"66 262 CURVE SMOOTH",
"90 292 OFFCURVE",
"120 311 OFFCURVE",
"145 324 CURVE SMOOTH",
"170 337 OFFCURVE",
"189 346 OFFCURVE",
"193 357 CURVE",
"193 375 LINE",
"193 417 LINE SMOOTH",
"193 426 OFFCURVE",
"193 440 OFFCURVE",
"190 450 CURVE",
"186 460 OFFCURVE",
"178 467 OFFCURVE",
"165 467 CURVE SMOOTH",
"148 467 OFFCURVE",
"141 454 OFFCURVE",
"138 438 CURVE",
"137 430 OFFCURVE",
"136 421 OFFCURVE",
"136 412 CURVE SMOOTH",
"136 403 OFFCURVE",
"136 394 OFFCURVE",
"136 386 CURVE",
"35 386 LINE",
"35 409 LINE SMOOTH",
"35 449 OFFCURVE",
"50 485 OFFCURVE",
"74 512 CURVE SMOOTH",
"98 539 OFFCURVE",
"132 555 OFFCURVE",
"171 555 CURVE SMOOTH",
"204 555 OFFCURVE",
"234 542 OFFCURVE",
"257 520 CURVE SMOOTH",
"280 498 OFFCURVE",
"294 467 OFFCURVE",
"294 431 CURVE SMOOTH",
"294 260 LINE",
"294 95 LINE SMOOTH",
"294 46 OFFCURVE",
"297 24 OFFCURVE",
"301 0 CURVE",
"202 0 LINE",
"193 11 OFFCURVE",
"193 37 OFFCURVE",
"193 44 CURVE",
"186 44 LINE",
"181 35 OFFCURVE",
"172 22 OFFCURVE",
"158 11 CURVE SMOOTH",
"144 0 OFFCURVE",
"125 -8 OFFCURVE",
"105 -8 CURVE SMOOTH",
"92 -8 OFFCURVE",
"71 -3 OFFCURVE",
"55 17 CURVE",
"38 36 OFFCURVE",
"24 70 OFFCURVE",
"24 127 CURVE SMOOTH"
);
},
{
closed = 1;
nodes = (
"155 727 LINE",
"207 637 LINE",
"129 637 LINE",
"50 727 LINE"
);
}
);
width = 333;
}
);
leftKerningGroup = a;
rightKerningGroup = a;
unicode = 00E0;
},
{
glyphname = amacron;
lastChange = "2012-05-22 22:56:21 +0000";
layers = (
{
layerId = "1AB499B8-18A8-432D-A211-B6882CCB886D";
name = Regular;
paths = (
{
closed = 1;
nodes = (
"123 135 OFFCURVE",
"124 123 OFFCURVE",
"128 112 CURVE SMOOTH",
"132 100 OFFCURVE",
"139 91 OFFCURVE",
"151 91 CURVE SMOOTH",
"174 91 OFFCURVE",
"193 105 OFFCURVE",
"193 124 CURVE SMOOTH",
"193 264 LINE",
"144 243 OFFCURVE",
"123 194 OFFCURVE",
"123 142 CURVE SMOOTH"
);
},
{
closed = 1;
nodes = (
"24 188 OFFCURVE",
"42 232 OFFCURVE",
"66 262 CURVE SMOOTH",
"90 292 OFFCURVE",
"120 311 OFFCURVE",
"145 324 CURVE SMOOTH",
"170 337 OFFCURVE",
"189 346 OFFCURVE",
"193 357 CURVE",
"193 375 LINE",
"193 417 LINE SMOOTH",
"193 426 OFFCURVE",
"193 440 OFFCURVE",
"190 450 CURVE",
"186 460 OFFCURVE",
"178 467 OFFCURVE",
"165 467 CURVE SMOOTH",
"148 467 OFFCURVE",
"141 454 OFFCURVE",
"138 438 CURVE",
"137 430 OFFCURVE",
"136 421 OFFCURVE",
"136 412 CURVE SMOOTH",
"136 403 OFFCURVE",
"136 394 OFFCURVE",
"136 386 CURVE",
"35 386 LINE",
"35 409 LINE SMOOTH",
"35 449 OFFCURVE",
"50 485 OFFCURVE",
"74 512 CURVE SMOOTH",
"98 539 OFFCURVE",
"132 555 OFFCURVE",
"171 555 CURVE SMOOTH",
"204 555 OFFCURVE",
"234 542 OFFCURVE",
"257 520 CURVE SMOOTH",
"280 498 OFFCURVE",
"294 467 OFFCURVE",
"294 431 CURVE SMOOTH",
"294 260 LINE",
"294 95 LINE SMOOTH",
"294 46 OFFCURVE",
"297 24 OFFCURVE",
"301 0 CURVE",
"202 0 LINE",
"193 11 OFFCURVE",
"193 37 OFFCURVE",
"193 44 CURVE",
"186 44 LINE",
"181 35 OFFCURVE",
"172 22 OFFCURVE",
"158 11 CURVE SMOOTH",
"144 0 OFFCURVE",
"125 -8 OFFCURVE",
"105 -8 CURVE SMOOTH",
"92 -8 OFFCURVE",
"71 -3 OFFCURVE",
"55 17 CURVE",
"38 36 OFFCURVE",
"24 70 OFFCURVE",
"24 127 CURVE SMOOTH"
);
},
{
closed = 1;
nodes = (
"71 721 LINE",
"265 721 LINE",
"265 642 LINE",
"71 642 LINE"
);
}
);
width = 333;
}
);
unicode = 0101;
},
{
glyphname = aogonek;
lastChange = "2012-05-22 22:56:21 +0000";
layers = (
{
layerId = "1AB499B8-18A8-432D-A211-B6882CCB886D";
name = Regular;
paths = (
{
closed = 1;
nodes = (
"123 135 OFFCURVE",
"124 123 OFFCURVE",
"128 112 CURVE SMOOTH",
"132 100 OFFCURVE",
"139 91 OFFCURVE",
"151 91 CURVE SMOOTH",
"174 91 OFFCURVE",
"193 105 OFFCURVE",
"193 124 CURVE SMOOTH",
"193 264 LINE",
"144 243 OFFCURVE",
"123 194 OFFCURVE",
"123 142 CURVE SMOOTH"
);
},
{
closed = 1;
nodes = (
"24 188 OFFCURVE",
"42 232 OFFCURVE",
"66 262 CURVE SMOOTH",
"90 292 OFFCURVE",
"120 311 OFFCURVE",
"145 324 CURVE SMOOTH",
"170 337 OFFCURVE",
"189 346 OFFCURVE",
"193 357 CURVE",
"193 375 LINE",
"193 417 LINE SMOOTH",
"193 426 OFFCURVE",
"193 440 OFFCURVE",
"190 450 CURVE",
"186 460 OFFCURVE",
"178 467 OFFCURVE",
"165 467 CURVE SMOOTH",
"148 467 OFFCURVE",
"141 454 OFFCURVE",
"138 438 CURVE",
"137 430 OFFCURVE",
"136 421 OFFCURVE",
"136 412 CURVE SMOOTH",
"136 403 OFFCURVE",
"136 394 OFFCURVE",
"136 386 CURVE",
"35 386 LINE",
"35 409 LINE SMOOTH",
"35 449 OFFCURVE",
"50 485 OFFCURVE",
"74 512 CURVE SMOOTH",
"98 539 OFFCURVE",
"132 555 OFFCURVE",
"171 555 CURVE SMOOTH",
"204 555 OFFCURVE",
"234 542 OFFCURVE",
"257 520 CURVE SMOOTH",
"280 498 OFFCURVE",
"294 467 OFFCURVE",
"294 431 CURVE SMOOTH",
"294 260 LINE",
"294 95 LINE SMOOTH",
"294 46 OFFCURVE",
"297 24 OFFCURVE",
"301 0 CURVE",
"202 0 LINE",
"193 11 OFFCURVE",
"193 37 OFFCURVE",
"193 44 CURVE",
"186 44 LINE",
"181 35 OFFCURVE",
"172 22 OFFCURVE",
"158 11 CURVE SMOOTH",
"144 0 OFFCURVE",
"125 -8 OFFCURVE",
"105 -8 CURVE SMOOTH",
"92 -8 OFFCURVE",
"71 -3 OFFCURVE",
"55 17 CURVE",
"38 36 OFFCURVE",
"24 70 OFFCURVE",
"24 127 CURVE SMOOTH"
);
},
{
closed = 1;
nodes = (
"141 -75 OFFCURVE",
"157 -50 OFFCURVE",
"174 -31 CURVE",
"183 -20 OFFCURVE",
"194 -9 OFFCURVE",
"207 0 CURVE",
"255 0 LINE",
"238 -15 OFFCURVE",
"226 -30 OFFCURVE",
"217 -50 CURVE",
"212 -60 OFFCURVE",
"210 -71 OFFCURVE",
"210 -83 CURVE SMOOTH",
"210 -112 OFFCURVE",
"237 -121 OFFCURVE",
"260 -121 CURVE SMOOTH",
"277 -121 OFFCURVE",
"290 -117 OFFCURVE",
"302 -112 CURVE",
"294 -179 LINE",
"273 -186 OFFCURVE",
"260 -188 OFFCURVE",
"243 -188 CURVE SMOOTH",
"178 -188 OFFCURVE",
"141 -148 OFFCURVE",
"141 -103 CURVE SMOOTH"
);
}
);
width = 333;
}
);
unicode = 0105;
},
{
glyphname = aring;
lastChange = "2012-05-22 22:56:21 +0000";
layers = (
{
layerId = "1AB499B8-18A8-432D-A211-B6882CCB886D";
name = Regular;
paths = (
{
closed = 1;
nodes = (
"123 135 OFFCURVE",
"124 123 OFFCURVE",
"128 112 CURVE SMOOTH",
"132 100 OFFCURVE",
"139 91 OFFCURVE",
"151 91 CURVE SMOOTH",
"174 91 OFFCURVE",
"193 105 OFFCURVE",
"193 124 CURVE SMOOTH",
"193 264 LINE",
"144 243 OFFCURVE",
"123 194 OFFCURVE",
"123 142 CURVE SMOOTH"
);
},
{
closed = 1;
nodes = (
"24 188 OFFCURVE",
"42 232 OFFCURVE",
"66 262 CURVE SMOOTH",
"90 292 OFFCURVE",
"120 311 OFFCURVE",
"145 324 CURVE SMOOTH",
"170 337 OFFCURVE",
"189 346 OFFCURVE",
"193 357 CURVE",
"193 375 LINE",
"193 417 LINE SMOOTH",
"193 426 OFFCURVE",
"193 440 OFFCURVE",
"190 450 CURVE",
"186 460 OFFCURVE",
"178 467 OFFCURVE",
"165 467 CURVE SMOOTH",
"148 467 OFFCURVE",
"141 454 OFFCURVE",
"138 438 CURVE",
"137 430 OFFCURVE",
"136 421 OFFCURVE",
"136 412 CURVE SMOOTH",
"136 403 OFFCURVE",
"136 394 OFFCURVE",
"136 386 CURVE",
"35 386 LINE",
"35 409 LINE SMOOTH",
"35 449 OFFCURVE",
"50 485 OFFCURVE",
"74 512 CURVE SMOOTH",
"98 539 OFFCURVE",
"132 555 OFFCURVE",
"171 555 CURVE SMOOTH",
"204 555 OFFCURVE",
"234 542 OFFCURVE",
"257 520 CURVE SMOOTH",
"280 498 OFFCURVE",
"294 467 OFFCURVE",
"294 431 CURVE SMOOTH",
"294 260 LINE",
"294 95 LINE SMOOTH",
"294 46 OFFCURVE",
"297 24 OFFCURVE",
"301 0 CURVE",
"202 0 LINE",
"193 11 OFFCURVE",
"193 37 OFFCURVE",
"193 44 CURVE",
"186 44 LINE",
"181 35 OFFCURVE",
"172 22 OFFCURVE",
"158 11 CURVE SMOOTH",
"144 0 OFFCURVE",
"125 -8 OFFCURVE",
"105 -8 CURVE SMOOTH",
"92 -8 OFFCURVE",
"71 -3 OFFCURVE",
"55 17 CURVE",
"38 36 OFFCURVE",
"24 70 OFFCURVE",
"24 127 CURVE SMOOTH"
);
},
{
closed = 1;
nodes = (
"92 735 OFFCURVE",
"126 764 OFFCURVE",
"167 764 CURVE SMOOTH",
"208 764 OFFCURVE",
"241 735 OFFCURVE",
"241 694 CURVE SMOOTH",
"241 653 OFFCURVE",
"208 624 OFFCURVE",
"167 624 CURVE SMOOTH",
"126 624 OFFCURVE",
"92 653 OFFCURVE",
"92 694 CURVE SMOOTH"
);
},
{
closed = 1;
nodes = (
"130 675 OFFCURVE",
"148 659 OFFCURVE",
"167 659 CURVE SMOOTH",
"186 659 OFFCURVE",
"204 675 OFFCURVE",
"204 694 CURVE SMOOTH",
"204 713 OFFCURVE",
"186 729 OFFCURVE",
"167 729 CURVE SMOOTH",
"148 729 OFFCURVE",
"130 713 OFFCURVE",
"130 694 CURVE SMOOTH"
);
}
);
width = 333;
}
);
leftKerningGroup = a;
rightKerningGroup = a;
unicode = 00E5;
},
{
glyphname = atilde;
lastChange = "2012-05-22 22:56:21 +0000";
layers = (
{
layerId = "1AB499B8-18A8-432D-A211-B6882CCB886D";
name = Regular;
paths = (
{
closed = 1;
nodes = (
"123 135 OFFCURVE",
"124 123 OFFCURVE",
"128 112 CURVE SMOOTH",
"132 100 OFFCURVE",
"139 91 OFFCURVE",
"151 91 CURVE SMOOTH",
"174 91 OFFCURVE",
"193 105 OFFCURVE",
"193 124 CURVE SMOOTH",
"193 264 LINE",
"144 243 OFFCURVE",
"123 194 OFFCURVE",
"123 142 CURVE SMOOTH"
);
},
{
closed = 1;
nodes = (
"24 188 OFFCURVE",
"42 232 OFFCURVE",
"66 262 CURVE SMOOTH",
"90 292 OFFCURVE",
"120 311 OFFCURVE",
"145 324 CURVE SMOOTH",
"170 337 OFFCURVE",
"189 346 OFFCURVE",
"193 357 CURVE",
"193 375 LINE",
"193 417 LINE SMOOTH",
"193 426 OFFCURVE",
"193 440 OFFCURVE",
"190 450 CURVE",
"186 460 OFFCURVE",
"178 467 OFFCURVE",
"165 467 CURVE SMOOTH",
"148 467 OFFCURVE",
"141 454 OFFCURVE",
"138 438 CURVE",
"137 430 OFFCURVE",
"136 421 OFFCURVE",
"136 412 CURVE SMOOTH",
"136 403 OFFCURVE",
"136 394 OFFCURVE",
"136 386 CURVE",
"35 386 LINE",
"35 409 LINE SMOOTH",
"35 449 OFFCURVE",
"50 485 OFFCURVE",
"74 512 CURVE SMOOTH",
"98 539 OFFCURVE",
"132 555 OFFCURVE",
"171 555 CURVE SMOOTH",
"204 555 OFFCURVE",
"234 542 OFFCURVE",
"257 520 CURVE SMOOTH",
"280 498 OFFCURVE",
"294 467 OFFCURVE",
"294 431 CURVE SMOOTH",
"294 260 LINE",
"294 95 LINE SMOOTH",
"294 46 OFFCURVE",
"297 24 OFFCURVE",
"301 0 CURVE",
"202 0 LINE",
"193 11 OFFCURVE",
"193 37 OFFCURVE",
"193 44 CURVE",
"186 44 LINE",
"181 35 OFFCURVE",
"172 22 OFFCURVE",
"158 11 CURVE SMOOTH",
"144 0 OFFCURVE",
"125 -8 OFFCURVE",
"105 -8 CURVE SMOOTH",
"92 -8 OFFCURVE",
"71 -3 OFFCURVE",
"55 17 CURVE",
"38 36 OFFCURVE",
"24 70 OFFCURVE",
"24 127 CURVE SMOOTH"
);
},
{
closed = 1;
nodes = (
"108 653 OFFCURVE",
"97 649 OFFCURVE",
"86 645 CURVE",
"80 642 OFFCURVE",
"75 640 OFFCURVE",
"70 637 CURVE",
"70 711 LINE",
"79 718 OFFCURVE",
"91 723 OFFCURVE",
"103 727 CURVE SMOOTH",
"109 729 OFFCURVE",
"116 730 OFFCURVE",
"123 730 CURVE SMOOTH",
"138 730 OFFCURVE",
"153 727 OFFCURVE",
"167 722 CURVE",
"181 716 OFFCURVE",
"196 712 OFFCURVE",
"211 711 CURVE",
"226 711 OFFCURVE",
"237 715 OFFCURVE",
"248 719 CURVE",
"254 722 OFFCURVE",
"259 724 OFFCURVE",
"264 727 CURVE",
"264 653 LINE",
"255 645 OFFCURVE",
"243 640 OFFCURVE",
"231 637 CURVE",
"225 635 OFFCURVE",
"218 634 OFFCURVE",
"211 634 CURVE SMOOTH",
"196 634 OFFCURVE",
"181 637 OFFCURVE",
"168 643 CURVE SMOOTH",
"154 649 OFFCURVE",
"139 652 OFFCURVE",
"123 653 CURVE"
);
}
);
width = 333;
}
);
leftKerningGroup = a;
rightKerningGroup = a;
unicode = 00E3;
},
{
glyphname = ae;
lastChange = "2012-05-22 22:56:21 +0000";
layers = (
{
anchors = (
{
name = top;
position = "{242, 547}";
}
);
layerId = "1AB499B8-18A8-432D-A211-B6882CCB886D";
name = Regular;
paths = (
{
closed = 1;
nodes = (
"454 196 LINE",
"454 133 LINE",
"451 80 OFFCURVE",
"435 43 OFFCURVE",
"399 14 CURVE SMOOTH",
"381 -1 OFFCURVE",
"356 -8 OFFCURVE",
"323 -8 CURVE SMOOTH",
"262 -8 OFFCURVE",
"230 23 OFFCURVE",
"213 56 CURVE",
"185 20 OFFCURVE",
"149 -8 OFFCURVE",
"105 -8 CURVE SMOOTH",
"92 -8 OFFCURVE",
"71 -3 OFFCURVE",
"55 17 CURVE",
"38 36 OFFCURVE",
"24 70 OFFCURVE",
"24 127 CURVE SMOOTH",
"24 188 OFFCURVE",
"42 232 OFFCURVE",
"66 262 CURVE SMOOTH",
"90 292 OFFCURVE",
"120 311 OFFCURVE",
"145 324 CURVE SMOOTH",
"170 337 OFFCURVE",
"189 346 OFFCURVE",
"193 357 CURVE",
"193 417 LINE SMOOTH",
"193 426 OFFCURVE",
"193 440 OFFCURVE",
"190 450 CURVE",
"186 460 OFFCURVE",
"178 467 OFFCURVE",
"165 467 CURVE SMOOTH",
"148 467 OFFCURVE",
"141 454 OFFCURVE",
"138 438 CURVE",
"137 430 OFFCURVE",
"136 421 OFFCURVE",
"136 412 CURVE SMOOTH",
"136 403 OFFCURVE",
"136 394 OFFCURVE",
"136 386 CURVE",
"35 386 LINE",
"35 409 LINE SMOOTH",
"35 449 OFFCURVE",
"50 485 OFFCURVE",
"74 512 CURVE SMOOTH",
"98 539 OFFCURVE",
"132 555 OFFCURVE",
"171 555 CURVE SMOOTH",
"198 555 OFFCURVE",
"223 547 OFFCURVE",
"245 530 CURVE",
"264 545 OFFCURVE",
"289 555 OFFCURVE",
"324 555 CURVE SMOOTH",
"389 555 OFFCURVE",
"422 519 OFFCURVE",
"438 484 CURVE SMOOTH",
"447 463 OFFCURVE",
"453 440 OFFCURVE",
"454 414 CURVE",
"454 255 LINE",
"287 255 LINE",
"287 136 LINE",
"288 115 OFFCURVE",
"294 100 OFFCURVE",
"303 89 CURVE",
"308 84 OFFCURVE",
"315 81 OFFCURVE",
"324 81 CURVE SMOOTH",
"343 81 OFFCURVE",
"352 93 OFFCURVE",
"356 108 CURVE",
"359 116 OFFCURVE",
"360 125 OFFCURVE",
"360 136 CURVE SMOOTH",
"360 196 LINE"
);
},
{
closed = 1;
nodes = (
"123 135 OFFCURVE",
"124 123 OFFCURVE",
"128 112 CURVE SMOOTH",
"132 100 OFFCURVE",
"139 91 OFFCURVE",
"151 91 CURVE SMOOTH",
"174 91 OFFCURVE",
"193 105 OFFCURVE",
"193 124 CURVE SMOOTH",
"193 264 LINE",
"144 243 OFFCURVE",
"123 194 OFFCURVE",
"123 142 CURVE SMOOTH"
);
},
{
closed = 1;
nodes = (
"287 334 LINE",
"360 334 LINE",
"360 411 LINE SMOOTH",
"360 432 OFFCURVE",
"356 447 OFFCURVE",
"346 459 CURVE",
"341 464 OFFCURVE",
"333 467 OFFCURVE",
"324 467 CURVE SMOOTH",
"305 467 OFFCURVE",
"297 454 OFFCURVE",
"292 439 CURVE",
"289 431 OFFCURVE",
"288 422 OFFCURVE",
"287 411 CURVE"
);
}
);
width = 483;
}
);
unicode = 00E6;
},
{
glyphname = b;
lastChange = "2012-05-22 22:56:21 +0000";
layers = (
{
layerId = "1AB499B8-18A8-432D-A211-B6882CCB886D";
name = Regular;
paths = (
{
closed = 1;
nodes = (
"40 735 LINE",
"141 735 LINE",
"141 511 LINE",
"158 527 OFFCURVE",
"173 539 OFFCURVE",
"193 548 CURVE",
"202 553 OFFCURVE",
"212 555 OFFCURVE",
"221 555 CURVE SMOOTH",
"249 555 OFFCURVE",
"268 539 OFFCURVE",
"281 519 CURVE",
"293 498 OFFCURVE",
"299 471 OFFCURVE",
"299 448 CURVE SMOOTH",
"299 99 LINE SMOOTH",
"299 76 OFFCURVE",
"293 49 OFFCURVE",
"281 29 CURVE SMOOTH",
"268 8 OFFCURVE",
"249 -8 OFFCURVE",
"221 -8 CURVE SMOOTH",
"202 -8 OFFCURVE",
"182 3 OFFCURVE",
"167 14 CURVE SMOOTH",
"158 21 OFFCURVE",
"150 28 OFFCURVE",
"141 36 CURVE",
"141 0 LINE",
"40 0 LINE"
);
},
{
closed = 1;
nodes = (
"141 120 LINE SMOOTH",
"141 101 OFFCURVE",
"156 87 OFFCURVE",
"171 87 CURVE SMOOTH",
"186 87 OFFCURVE",
"198 101 OFFCURVE",
"198 120 CURVE SMOOTH",
"198 427 LINE SMOOTH",
"198 446 OFFCURVE",
"186 460 OFFCURVE",
"171 460 CURVE SMOOTH",
"156 460 OFFCURVE",
"141 443 OFFCURVE",
"141 427 CURVE SMOOTH"
);
}
);
width = 335;
}
);
rightKerningGroup = b;
unicode = 0062;
},
{
glyphname = c;
lastChange = "2012-05-22 22:56:21 +0000";
layers = (
{
anchors = (
{
name = bottom;
position = "{158, 0}";
},
{
name = top;
position = "{158, 547}";
}
);
layerId = "1AB499B8-18A8-432D-A211-B6882CCB886D";
name = Regular;
paths = (
{
closed = 1;
nodes = (
"133 126 LINE SMOOTH",
"133 106 OFFCURVE",
"134 82 OFFCURVE",
"161 82 CURVE SMOOTH",
"184 82 OFFCURVE",
"190 93 OFFCURVE",
"190 126 CURVE SMOOTH",
"190 202 LINE",
"291 202 LINE",
"291 149 LINE SMOOTH",
"291 88 OFFCURVE",
"280 49 OFFCURVE",
"258 25 CURVE SMOOTH",
"236 1 OFFCURVE",
"204 -8 OFFCURVE",
"161 -8 CURVE SMOOTH",
"125 -8 OFFCURVE",
"92 2 OFFCURVE",
"69 27 CURVE SMOOTH",
"46 52 OFFCURVE",
"32 93 OFFCURVE",
"32 154 CURVE SMOOTH",
"32 393 LINE SMOOTH",
"32 454 OFFCURVE",
"46 495 OFFCURVE",
"69 520 CURVE SMOOTH",
"92 545 OFFCURVE",
"125 555 OFFCURVE",
"161 555 CURVE SMOOTH",
"204 555 OFFCURVE",
"236 546 OFFCURVE",
"258 522 CURVE SMOOTH",
"280 498 OFFCURVE",
"291 459 OFFCURVE",
"291 398 CURVE SMOOTH",
"291 355 LINE",
"190 355 LINE",
"190 421 LINE SMOOTH",
"190 454 OFFCURVE",
"184 465 OFFCURVE",
"161 465 CURVE SMOOTH",
"134 465 OFFCURVE",
"133 441 OFFCURVE",
"133 421 CURVE SMOOTH"
);
}
);
width = 315;
}
);
leftKerningGroup = c;
rightKerningGroup = c;
unicode = 0063;
},
{
glyphname = cacute;
lastChange = "2012-05-22 22:56:21 +0000";
layers = (
{
layerId = "1AB499B8-18A8-432D-A211-B6882CCB886D";
name = Regular;
paths = (
{
closed = 1;
nodes = (
"133 126 LINE SMOOTH",
"133 106 OFFCURVE",
"134 82 OFFCURVE",
"161 82 CURVE SMOOTH",
"184 82 OFFCURVE",
"190 93 OFFCURVE",
"190 126 CURVE SMOOTH",
"190 202 LINE",
"291 202 LINE",
"291 149 LINE SMOOTH",
"291 88 OFFCURVE",
"280 49 OFFCURVE",
"258 25 CURVE SMOOTH",
"236 1 OFFCURVE",
"204 -8 OFFCURVE",
"161 -8 CURVE SMOOTH",
"125 -8 OFFCURVE",
"92 2 OFFCURVE",
"69 27 CURVE SMOOTH",
"46 52 OFFCURVE",
"32 93 OFFCURVE",
"32 154 CURVE SMOOTH",
"32 393 LINE SMOOTH",
"32 454 OFFCURVE",
"46 495 OFFCURVE",
"69 520 CURVE SMOOTH",
"92 545 OFFCURVE",
"125 555 OFFCURVE",
"161 555 CURVE SMOOTH",
"204 555 OFFCURVE",
"236 546 OFFCURVE",
"258 522 CURVE SMOOTH",
"280 498 OFFCURVE",
"291 459 OFFCURVE",
"291 398 CURVE SMOOTH",
"291 355 LINE",
"190 355 LINE",
"190 421 LINE SMOOTH",
"190 454 OFFCURVE",
"184 465 OFFCURVE",
"161 465 CURVE SMOOTH",
"134 465 OFFCURVE",
"133 441 OFFCURVE",
"133 421 CURVE SMOOTH"
);
},
{
closed = 1;
nodes = (
"237 727 LINE",
"158 637 LINE",
"80 637 LINE",
"132 727 LINE"
);
}
);
width = 315;
}
);
unicode = 0107;
},
{
glyphname = ccaron;
lastChange = "2012-05-22 22:56:21 +0000";
layers = (
{
layerId = "1AB499B8-18A8-432D-A211-B6882CCB886D";
name = Regular;
paths = (
{
closed = 1;
nodes = (
"133 126 LINE SMOOTH",
"133 106 OFFCURVE",
"134 82 OFFCURVE",
"161 82 CURVE SMOOTH",
"184 82 OFFCURVE",
"190 93 OFFCURVE",
"190 126 CURVE SMOOTH",
"190 202 LINE",
"291 202 LINE",
"291 149 LINE SMOOTH",
"291 88 OFFCURVE",
"280 49 OFFCURVE",
"258 25 CURVE SMOOTH",
"236 1 OFFCURVE",
"204 -8 OFFCURVE",
"161 -8 CURVE SMOOTH",
"125 -8 OFFCURVE",
"92 2 OFFCURVE",
"69 27 CURVE SMOOTH",
"46 52 OFFCURVE",
"32 93 OFFCURVE",
"32 154 CURVE SMOOTH",
"32 393 LINE SMOOTH",
"32 454 OFFCURVE",
"46 495 OFFCURVE",
"69 520 CURVE SMOOTH",
"92 545 OFFCURVE",
"125 555 OFFCURVE",
"161 555 CURVE SMOOTH",
"204 555 OFFCURVE",
"236 546 OFFCURVE",
"258 522 CURVE SMOOTH",
"280 498 OFFCURVE",
"291 459 OFFCURVE",
"291 398 CURVE SMOOTH",
"291 355 LINE",
"190 355 LINE",
"190 421 LINE SMOOTH",
"190 454 OFFCURVE",
"184 465 OFFCURVE",
"161 465 CURVE SMOOTH",
"134 465 OFFCURVE",
"133 441 OFFCURVE",
"133 421 CURVE SMOOTH"
);
},
{
closed = 1;
nodes = (
"105 637 LINE",
"36 727 LINE",
"128 727 LINE",
"158 692 LINE",
"189 727 LINE",
"281 727 LINE",
"212 637 LINE"
);
}
);
width = 315;
}
);
unicode = 010D;
},
{
glyphname = ccedilla;
lastChange = "2012-05-22 22:56:21 +0000";
layers = (
{
layerId = "1AB499B8-18A8-432D-A211-B6882CCB886D";
name = Regular;
paths = (
{
closed = 1;
nodes = (
"133 126 LINE SMOOTH",
"133 106 OFFCURVE",
"134 82 OFFCURVE",
"161 82 CURVE SMOOTH",
"184 82 OFFCURVE",
"190 93 OFFCURVE",
"190 126 CURVE SMOOTH",
"190 202 LINE",
"291 202 LINE",
"291 149 LINE SMOOTH",
"291 88 OFFCURVE",
"280 49 OFFCURVE",
"258 25 CURVE SMOOTH",
"236 1 OFFCURVE",
"204 -8 OFFCURVE",
"161 -8 CURVE SMOOTH",
"125 -8 OFFCURVE",
"92 2 OFFCURVE",
"69 27 CURVE SMOOTH",
"46 52 OFFCURVE",
"32 93 OFFCURVE",
"32 154 CURVE SMOOTH",
"32 393 LINE SMOOTH",
"32 454 OFFCURVE",
"46 495 OFFCURVE",
"69 520 CURVE SMOOTH",
"92 545 OFFCURVE",
"125 555 OFFCURVE",
"161 555 CURVE SMOOTH",
"204 555 OFFCURVE",
"236 546 OFFCURVE",
"258 522 CURVE SMOOTH",
"280 498 OFFCURVE",
"291 459 OFFCURVE",
"291 398 CURVE SMOOTH",
"291 355 LINE",
"190 355 LINE",
"190 421 LINE SMOOTH",
"190 454 OFFCURVE",
"184 465 OFFCURVE",
"161 465 CURVE SMOOTH",
"134 465 OFFCURVE",
"133 441 OFFCURVE",
"133 421 CURVE SMOOTH"
);
},
{
closed = 1;
nodes = (
"200 -123 LINE",
"178 -188 LINE",
"127 -188 LINE",
"147 -123 LINE",
"116 -123 LINE",
"116 -54 LINE",
"200 -54 LINE"
);
}
);
width = 315;
}
);
leftKerningGroup = c;
rightKerningGroup = c;
unicode = 00E7;
},
{
glyphname = ccircumflex;
lastChange = "2012-05-22 22:56:21 +0000";
layers = (
{
layerId = "1AB499B8-18A8-432D-A211-B6882CCB886D";
name = Regular;
paths = (
{
closed = 1;
nodes = (
"133 126 LINE SMOOTH",
"133 106 OFFCURVE",
"134 82 OFFCURVE",
"161 82 CURVE SMOOTH",
"184 82 OFFCURVE",
"190 93 OFFCURVE",
"190 126 CURVE SMOOTH",
"190 202 LINE",
"291 202 LINE",
"291 149 LINE SMOOTH",
"291 88 OFFCURVE",
"280 49 OFFCURVE",
"258 25 CURVE SMOOTH",
"236 1 OFFCURVE",
"204 -8 OFFCURVE",
"161 -8 CURVE SMOOTH",
"125 -8 OFFCURVE",
"92 2 OFFCURVE",
"69 27 CURVE SMOOTH",
"46 52 OFFCURVE",
"32 93 OFFCURVE",
"32 154 CURVE SMOOTH",
"32 393 LINE SMOOTH",
"32 454 OFFCURVE",
"46 495 OFFCURVE",
"69 520 CURVE SMOOTH",
"92 545 OFFCURVE",
"125 555 OFFCURVE",
"161 555 CURVE SMOOTH",
"204 555 OFFCURVE",
"236 546 OFFCURVE",
"258 522 CURVE SMOOTH",
"280 498 OFFCURVE",
"291 459 OFFCURVE",
"291 398 CURVE SMOOTH",
"291 355 LINE",
"190 355 LINE",
"190 421 LINE SMOOTH",
"190 454 OFFCURVE",
"184 465 OFFCURVE",
"161 465 CURVE SMOOTH",
"134 465 OFFCURVE",
"133 441 OFFCURVE",
"133 421 CURVE SMOOTH"
);
},
{
closed = 1;
nodes = (
"212 727 LINE",
"281 637 LINE",
"189 637 LINE",
"158 672 LINE",
"128 637 LINE",
"36 637 LINE",
"105 727 LINE"
);
}
);
width = 315;
}
);
unicode = 0109;
},
{
glyphname = cdotaccent;
lastChange = "2012-05-22 22:56:21 +0000";
layers = (
{
layerId = "1AB499B8-18A8-432D-A211-B6882CCB886D";
name = Regular;
paths = (
{
closed = 1;
nodes = (
"133 126 LINE SMOOTH",
"133 106 OFFCURVE",
"134 82 OFFCURVE",
"161 82 CURVE SMOOTH",
"184 82 OFFCURVE",
"190 93 OFFCURVE",
"190 126 CURVE SMOOTH",
"190 202 LINE",
"291 202 LINE",
"291 149 LINE SMOOTH",
"291 88 OFFCURVE",
"280 49 OFFCURVE",
"258 25 CURVE SMOOTH",
"236 1 OFFCURVE",
"204 -8 OFFCURVE",
"161 -8 CURVE SMOOTH",
"125 -8 OFFCURVE",
"92 2 OFFCURVE",
"69 27 CURVE SMOOTH",
"46 52 OFFCURVE",
"32 93 OFFCURVE",
"32 154 CURVE SMOOTH",
"32 393 LINE SMOOTH",
"32 454 OFFCURVE",
"46 495 OFFCURVE",
"69 520 CURVE SMOOTH",
"92 545 OFFCURVE",
"125 555 OFFCURVE",
"161 555 CURVE SMOOTH",
"204 555 OFFCURVE",
"236 546 OFFCURVE",
"258 522 CURVE SMOOTH",
"280 498 OFFCURVE",
"291 459 OFFCURVE",
"291 398 CURVE SMOOTH",
"291 355 LINE",
"190 355 LINE",
"190 421 LINE SMOOTH",
"190 454 OFFCURVE",
"184 465 OFFCURVE",
"161 465 CURVE SMOOTH",
"134 465 OFFCURVE",
"133 441 OFFCURVE",
"133 421 CURVE SMOOTH"
);
},
{
closed = 1;
nodes = (
"108 735 LINE",
"209 735 LINE",
"209 634 LINE",
"108 634 LINE"
);
}
);
width = 315;
}
);
unicode = 010B;
},
{
glyphname = d;
lastChange = "2012-05-22 22:56:21 +0000";
layers = (
{
anchors = (
{
name = center;
position = "{168, 274}";
}
);
layerId = "1AB499B8-18A8-432D-A211-B6882CCB886D";
name = Regular;
paths = (
{
closed = 1;
nodes = (
"295 0 LINE",
"194 0 LINE",
"194 36 LINE",
"177 20 OFFCURVE",
"162 8 OFFCURVE",
"143 -1 CURVE SMOOTH",
"133 -6 OFFCURVE",
"123 -8 OFFCURVE",
"114 -8 CURVE SMOOTH",
"86 -8 OFFCURVE",
"67 8 OFFCURVE",
"55 29 CURVE",
"42 49 OFFCURVE",
"36 76 OFFCURVE",
"36 99 CURVE SMOOTH",
"36 448 LINE SMOOTH",
"36 471 OFFCURVE",
"42 498 OFFCURVE",
"55 519 CURVE SMOOTH",
"67 539 OFFCURVE",
"86 555 OFFCURVE",
"114 555 CURVE SMOOTH",
"133 555 OFFCURVE",
"153 544 OFFCURVE",
"168 533 CURVE SMOOTH",
"177 526 OFFCURVE",
"185 519 OFFCURVE",
"194 511 CURVE",
"194 735 LINE",
"295 735 LINE"
);
},
{
closed = 1;
nodes = (
"194 427 LINE SMOOTH",
"194 443 OFFCURVE",
"179 460 OFFCURVE",
"164 460 CURVE SMOOTH",
"149 460 OFFCURVE",
"137 446 OFFCURVE",
"137 427 CURVE SMOOTH",
"137 120 LINE SMOOTH",
"137 101 OFFCURVE",
"149 87 OFFCURVE",
"164 87 CURVE SMOOTH",
"179 87 OFFCURVE",
"194 101 OFFCURVE",
"194 120 CURVE SMOOTH"
);
}
);
width = 335;
}
);
leftKerningGroup = d;
unicode = 0064;
},
{
glyphname = eth;
lastChange = "2012-05-22 22:56:21 +0000";
layers = (
{
layerId = "1AB499B8-18A8-432D-A211-B6882CCB886D";
name = Regular;
paths = (
{
closed = 1;
nodes = (
"185 736 LINE",
"188 733 OFFCURVE",
"190 730 OFFCURVE",
"193 727 CURVE SMOOTH",
"196 724 OFFCURVE",
"199 721 OFFCURVE",
"202 718 CURVE",
"205 714 OFFCURVE",
"208 710 OFFCURVE",
"211 706 CURVE",
"257 746 LINE",
"284 714 LINE",
"235 671 LINE",
"266 623 OFFCURVE",
"296 553 OFFCURVE",
"296 453 CURVE SMOOTH",
"296 133 LINE",
"293 80 OFFCURVE",
"277 43 OFFCURVE",
"242 14 CURVE SMOOTH",
"224 -1 OFFCURVE",
"199 -8 OFFCURVE",
"166 -8 CURVE SMOOTH",
"101 -8 OFFCURVE",
"69 28 OFFCURVE",
"53 64 CURVE SMOOTH",
"44 85 OFFCURVE",
"38 109 OFFCURVE",
"37 136 CURVE",
"37 419 LINE SMOOTH",
"37 428 OFFCURVE",
"37 463 OFFCURVE",
"47 495 CURVE SMOOTH",
"57 526 OFFCURVE",
"77 555 OFFCURVE",
"121 555 CURVE SMOOTH",
"144 555 OFFCURVE",
"170 540 OFFCURVE",
"197 517 CURVE",
"192 558 OFFCURVE",
"183 591 OFFCURVE",
"172 616 CURVE",
"132 581 LINE",
"105 612 LINE",
"154 655 LINE",
"147 666 OFFCURVE",
"142 674 OFFCURVE",
"138 679 CURVE",
"135 682 OFFCURVE",
"133 684 OFFCURVE",
"132 687 CURVE"
);
},
{
closed = 1;
nodes = (
"201 411 LINE",
"202 432 OFFCURVE",
"198 447 OFFCURVE",
"188 459 CURVE",
"183 464 OFFCURVE",
"175 467 OFFCURVE",
"166 467 CURVE SMOOTH",
"147 467 OFFCURVE",
"139 454 OFFCURVE",
"135 439 CURVE",
"132 431 OFFCURVE",
"131 422 OFFCURVE",
"132 411 CURVE",
"132 136 LINE",
"131 115 OFFCURVE",
"136 100 OFFCURVE",
"145 89 CURVE",
"150 84 OFFCURVE",
"157 81 OFFCURVE",
"166 81 CURVE SMOOTH",
"185 81 OFFCURVE",
"194 93 OFFCURVE",
"198 108 CURVE",
"201 116 OFFCURVE",
"202 125 OFFCURVE",
"201 136 CURVE"
);
}
);
width = 329;
}
);
unicode = 00F0;
},
{
glyphname = dcaron;
lastChange = "2012-05-22 22:56:21 +0000";
layers = (
{
layerId = "1AB499B8-18A8-432D-A211-B6882CCB886D";
name = Regular;
paths = (
{
closed = 1;
nodes = (
"295 0 LINE",
"194 0 LINE",
"194 36 LINE",
"177 20 OFFCURVE",
"162 8 OFFCURVE",
"143 -1 CURVE SMOOTH",
"133 -6 OFFCURVE",
"123 -8 OFFCURVE",
"114 -8 CURVE SMOOTH",
"86 -8 OFFCURVE",
"67 8 OFFCURVE",
"55 29 CURVE",
"42 49 OFFCURVE",
"36 76 OFFCURVE",
"36 99 CURVE SMOOTH",
"36 448 LINE SMOOTH",
"36 471 OFFCURVE",
"42 498 OFFCURVE",
"55 519 CURVE SMOOTH",
"67 539 OFFCURVE",
"86 555 OFFCURVE",
"114 555 CURVE SMOOTH",
"133 555 OFFCURVE",
"153 544 OFFCURVE",
"168 533 CURVE SMOOTH",
"177 526 OFFCURVE",
"185 519 OFFCURVE",
"194 511 CURVE",
"194 735 LINE",
"295 735 LINE"
);
},
{
closed = 1;
nodes = (
"194 427 LINE SMOOTH",
"194 443 OFFCURVE",
"179 460 OFFCURVE",
"164 460 CURVE SMOOTH",
"149 460 OFFCURVE",
"137 446 OFFCURVE",
"137 427 CURVE SMOOTH",
"137 120 LINE SMOOTH",
"137 101 OFFCURVE",
"149 87 OFFCURVE",
"164 87 CURVE SMOOTH",
"179 87 OFFCURVE",
"194 101 OFFCURVE",
"194 120 CURVE SMOOTH"
);
},
{
closed = 1;
nodes = (
"462 624 LINE",
"407 494 LINE",
"357 494 LINE",
"392 624 LINE",
"357 624 LINE",
"357 735 LINE",
"462 735 LINE"
);
}
);
width = 486;
}
);
unicode = 010F;
},
{
glyphname = dcroat;
lastChange = "2012-05-22 22:56:21 +0000";
layers = (
{
layerId = "1AB499B8-18A8-432D-A211-B6882CCB886D";
name = Regular;
paths = (
{
closed = 1;
nodes = (
"295 0 LINE",
"194 0 LINE",
"194 36 LINE",
"177 20 OFFCURVE",
"162 8 OFFCURVE",
"143 -1 CURVE SMOOTH",
"133 -6 OFFCURVE",
"123 -8 OFFCURVE",
"114 -8 CURVE SMOOTH",
"86 -8 OFFCURVE",
"67 8 OFFCURVE",
"55 29 CURVE",
"42 49 OFFCURVE",
"36 76 OFFCURVE",
"36 99 CURVE SMOOTH",
"36 448 LINE SMOOTH",
"36 471 OFFCURVE",
"42 498 OFFCURVE",
"55 519 CURVE SMOOTH",
"67 539 OFFCURVE",
"86 555 OFFCURVE",
"114 555 CURVE SMOOTH",
"133 555 OFFCURVE",
"153 544 OFFCURVE",
"168 533 CURVE SMOOTH",
"177 526 OFFCURVE",
"185 519 OFFCURVE",
"194 511 CURVE",
"194 735 LINE",
"295 735 LINE"
);
},
{
closed = 1;
nodes = (
"194 427 LINE SMOOTH",
"194 443 OFFCURVE",
"179 460 OFFCURVE",
"164 460 CURVE SMOOTH",
"149 460 OFFCURVE",
"137 446 OFFCURVE",
"137 427 CURVE SMOOTH",
"137 120 LINE SMOOTH",
"137 101 OFFCURVE",
"149 87 OFFCURVE",
"164 87 CURVE SMOOTH",
"179 87 OFFCURVE",
"194 101 OFFCURVE",
"194 120 CURVE SMOOTH"
);
},
{
closed = 1;
nodes = (
"173 692 LINE",
"318 692 LINE",
"318 597 LINE",
"173 597 LINE"
);
}
);
width = 335;
}
);
unicode = 0111;
},
{
glyphname = e;
lastChange = "2012-05-22 22:56:21 +0000";
layers = (
{
anchors = (
{
name = bottom;
position = "{161, 0}";
},
{
name = ogonek;
position = "{290, 10}";
},
{
name = top;
position = "{161, 547}";
}
);
layerId = "1AB499B8-18A8-432D-A211-B6882CCB886D";
name = Regular;
paths = (
{
closed = 1;
nodes = (
"293 196 LINE",
"293 133 LINE",
"290 80 OFFCURVE",
"274 43 OFFCURVE",
"238 14 CURVE SMOOTH",
"220 -1 OFFCURVE",
"195 -8 OFFCURVE",
"162 -8 CURVE SMOOTH",
"97 -8 OFFCURVE",
"64 28 OFFCURVE",
"48 64 CURVE SMOOTH",
"39 85 OFFCURVE",
"33 109 OFFCURVE",
"32 136 CURVE",
"32 411 LINE",
"35 464 OFFCURVE",
"52 503 OFFCURVE",
"88 533 CURVE SMOOTH",
"105 548 OFFCURVE",
"130 555 OFFCURVE",
"163 555 CURVE SMOOTH",
"228 555 OFFCURVE",
"261 519 OFFCURVE",
"277 484 CURVE SMOOTH",
"286 463 OFFCURVE",
"292 440 OFFCURVE",
"293 414 CURVE",
"293 255 LINE",
"126 255 LINE",
"126 136 LINE",
"127 115 OFFCURVE",
"133 100 OFFCURVE",
"142 89 CURVE",
"147 84 OFFCURVE",
"154 81 OFFCURVE",
"163 81 CURVE SMOOTH",
"182 81 OFFCURVE",
"191 93 OFFCURVE",
"195 108 CURVE",
"198 116 OFFCURVE",
"199 125 OFFCURVE",
"199 136 CURVE SMOOTH",
"199 196 LINE"
);
},
{
closed = 1;
nodes = (
"126 334 LINE",
"199 334 LINE",
"199 411 LINE SMOOTH",
"199 432 OFFCURVE",
"195 447 OFFCURVE",
"185 459 CURVE",
"180 464 OFFCURVE",
"172 467 OFFCURVE",
"163 467 CURVE SMOOTH",
"144 467 OFFCURVE",
"136 454 OFFCURVE",
"131 439 CURVE",
"128 431 OFFCURVE",
"127 422 OFFCURVE",
"126 411 CURVE"
);
}
);
width = 322;
}
);
leftKerningGroup = c;
rightKerningGroup = c;
unicode = 0065;
},
{
glyphname = eacute;
lastChange = "2012-05-22 22:56:21 +0000";
layers = (
{
layerId = "1AB499B8-18A8-432D-A211-B6882CCB886D";
name = Regular;
paths = (
{
closed = 1;
nodes = (
"293 196 LINE",
"293 133 LINE",
"290 80 OFFCURVE",
"274 43 OFFCURVE",
"238 14 CURVE SMOOTH",
"220 -1 OFFCURVE",
"195 -8 OFFCURVE",
"162 -8 CURVE SMOOTH",
"97 -8 OFFCURVE",
"64 28 OFFCURVE",
"48 64 CURVE SMOOTH",
"39 85 OFFCURVE",
"33 109 OFFCURVE",
"32 136 CURVE",
"32 411 LINE",
"35 464 OFFCURVE",
"52 503 OFFCURVE",
"88 533 CURVE SMOOTH",
"105 548 OFFCURVE",
"130 555 OFFCURVE",
"163 555 CURVE SMOOTH",
"228 555 OFFCURVE",
"261 519 OFFCURVE",
"277 484 CURVE SMOOTH",
"286 463 OFFCURVE",
"292 440 OFFCURVE",
"293 414 CURVE",
"293 255 LINE",
"126 255 LINE",
"126 136 LINE",
"127 115 OFFCURVE",
"133 100 OFFCURVE",
"142 89 CURVE",
"147 84 OFFCURVE",
"154 81 OFFCURVE",
"163 81 CURVE SMOOTH",
"182 81 OFFCURVE",
"191 93 OFFCURVE",
"195 108 CURVE",
"198 116 OFFCURVE",
"199 125 OFFCURVE",
"199 136 CURVE SMOOTH",
"199 196 LINE"
);
},
{
closed = 1;
nodes = (
"126 334 LINE",
"199 334 LINE",
"199 411 LINE SMOOTH",
"199 432 OFFCURVE",
"195 447 OFFCURVE",
"185 459 CURVE",
"180 464 OFFCURVE",
"172 467 OFFCURVE",
"163 467 CURVE SMOOTH",
"144 467 OFFCURVE",
"136 454 OFFCURVE",
"131 439 CURVE",
"128 431 OFFCURVE",
"127 422 OFFCURVE",
"126 411 CURVE"
);
},
{
closed = 1;
nodes = (
"286 727 LINE",
"207 637 LINE",
"129 637 LINE",
"181 727 LINE"
);
}
);
width = 322;
}
);
leftKerningGroup = c;
rightKerningGroup = c;
unicode = 00E9;
},
{
glyphname = ebreve;
lastChange = "2012-05-22 22:56:21 +0000";
layers = (
{
layerId = "1AB499B8-18A8-432D-A211-B6882CCB886D";
name = Regular;
paths = (
{
closed = 1;
nodes = (
"293 196 LINE",
"293 133 LINE",
"290 80 OFFCURVE",
"274 43 OFFCURVE",
"238 14 CURVE SMOOTH",
"220 -1 OFFCURVE",
"195 -8 OFFCURVE",
"162 -8 CURVE SMOOTH",
"97 -8 OFFCURVE",
"64 28 OFFCURVE",
"48 64 CURVE SMOOTH",
"39 85 OFFCURVE",
"33 109 OFFCURVE",
"32 136 CURVE",
"32 411 LINE",
"35 464 OFFCURVE",
"52 503 OFFCURVE",
"88 533 CURVE SMOOTH",
"105 548 OFFCURVE",
"130 555 OFFCURVE",
"163 555 CURVE SMOOTH",
"228 555 OFFCURVE",
"261 519 OFFCURVE",
"277 484 CURVE SMOOTH",
"286 463 OFFCURVE",
"292 440 OFFCURVE",
"293 414 CURVE",
"293 255 LINE",
"126 255 LINE",
"126 136 LINE",
"127 115 OFFCURVE",
"133 100 OFFCURVE",
"142 89 CURVE",
"147 84 OFFCURVE",
"154 81 OFFCURVE",
"163 81 CURVE SMOOTH",
"182 81 OFFCURVE",
"191 93 OFFCURVE",
"195 108 CURVE",
"198 116 OFFCURVE",
"199 125 OFFCURVE",
"199 136 CURVE SMOOTH",
"199 196 LINE"
);
},
{
closed = 1;
nodes = (
"126 334 LINE",
"199 334 LINE",
"199 411 LINE SMOOTH",
"199 432 OFFCURVE",
"195 447 OFFCURVE",
"185 459 CURVE",
"180 464 OFFCURVE",
"172 467 OFFCURVE",
"163 467 CURVE SMOOTH",
"144 467 OFFCURVE",
"136 454 OFFCURVE",
"131 439 CURVE",
"128 431 OFFCURVE",
"127 422 OFFCURVE",
"126 411 CURVE"
);
},
{
closed = 1;
nodes = (
"272 683 LINE",
"255 666 OFFCURVE",
"235 652 OFFCURVE",
"208 643 CURVE",
"195 638 OFFCURVE",
"179 636 OFFCURVE",
"162 636 CURVE SMOOTH",
"127 636 OFFCURVE",
"100 647 OFFCURVE",
"81 659 CURVE SMOOTH",
"70 666 OFFCURVE",
"60 674 OFFCURVE",
"52 683 CURVE",
"106 729 LINE",
"113 720 OFFCURVE",
"124 713 OFFCURVE",
"138 709 CURVE SMOOTH",
"145 707 OFFCURVE",
"153 706 OFFCURVE",
"162 706 CURVE SMOOTH",
"181 706 OFFCURVE",
"194 710 OFFCURVE",
"205 717 CURVE",
"211 720 OFFCURVE",
"216 724 OFFCURVE",
"220 729 CURVE"
);
}
);
width = 322;
}
);
unicode = 0115;
},
{
glyphname = ecaron;
lastChange = "2012-05-22 22:56:21 +0000";
layers = (
{
layerId = "1AB499B8-18A8-432D-A211-B6882CCB886D";
name = Regular;
paths = (
{
closed = 1;
nodes = (
"293 196 LINE",
"293 133 LINE",
"290 80 OFFCURVE",
"274 43 OFFCURVE",
"238 14 CURVE SMOOTH",
"220 -1 OFFCURVE",
"195 -8 OFFCURVE",
"162 -8 CURVE SMOOTH",
"97 -8 OFFCURVE",
"64 28 OFFCURVE",
"48 64 CURVE SMOOTH",
"39 85 OFFCURVE",
"33 109 OFFCURVE",
"32 136 CURVE",
"32 411 LINE",
"35 464 OFFCURVE",
"52 503 OFFCURVE",
"88 533 CURVE SMOOTH",
"105 548 OFFCURVE",
"130 555 OFFCURVE",
"163 555 CURVE SMOOTH",
"228 555 OFFCURVE",
"261 519 OFFCURVE",
"277 484 CURVE SMOOTH",
"286 463 OFFCURVE",
"292 440 OFFCURVE",
"293 414 CURVE",
"293 255 LINE",
"126 255 LINE",
"126 136 LINE",
"127 115 OFFCURVE",
"133 100 OFFCURVE",
"142 89 CURVE",
"147 84 OFFCURVE",
"154 81 OFFCURVE",
"163 81 CURVE SMOOTH",
"182 81 OFFCURVE",
"191 93 OFFCURVE",
"195 108 CURVE",
"198 116 OFFCURVE",
"199 125 OFFCURVE",
"199 136 CURVE SMOOTH",
"199 196 LINE"
);
},
{
closed = 1;
nodes = (
"126 334 LINE",
"199 334 LINE",
"199 411 LINE SMOOTH",
"199 432 OFFCURVE",
"195 447 OFFCURVE",
"185 459 CURVE",
"180 464 OFFCURVE",
"172 467 OFFCURVE",
"163 467 CURVE SMOOTH",
"144 467 OFFCURVE",
"136 454 OFFCURVE",
"131 439 CURVE",
"128 431 OFFCURVE",
"127 422 OFFCURVE",
"126 411 CURVE"
);
},
{
closed = 1;
nodes = (
"109 637 LINE",
"40 727 LINE",
"132 727 LINE",
"162 692 LINE",
"193 727 LINE",
"285 727 LINE",
"216 637 LINE"
);
}
);
width = 322;
}
);
unicode = 011B;
},
{
glyphname = ecircumflex;
lastChange = "2012-05-22 22:56:21 +0000";
layers = (
{
layerId = "1AB499B8-18A8-432D-A211-B6882CCB886D";
name = Regular;
paths = (
{
closed = 1;
nodes = (
"293 196 LINE",
"293 133 LINE",
"290 80 OFFCURVE",
"274 43 OFFCURVE",
"238 14 CURVE SMOOTH",
"220 -1 OFFCURVE",
"195 -8 OFFCURVE",
"162 -8 CURVE SMOOTH",
"97 -8 OFFCURVE",
"64 28 OFFCURVE",
"48 64 CURVE SMOOTH",
"39 85 OFFCURVE",
"33 109 OFFCURVE",
"32 136 CURVE",
"32 411 LINE",
"35 464 OFFCURVE",
"52 503 OFFCURVE",
"88 533 CURVE SMOOTH",
"105 548 OFFCURVE",
"130 555 OFFCURVE",
"163 555 CURVE SMOOTH",
"228 555 OFFCURVE",
"261 519 OFFCURVE",
"277 484 CURVE SMOOTH",
"286 463 OFFCURVE",
"292 440 OFFCURVE",
"293 414 CURVE",
"293 255 LINE",
"126 255 LINE",
"126 136 LINE",
"127 115 OFFCURVE",
"133 100 OFFCURVE",
"142 89 CURVE",
"147 84 OFFCURVE",
"154 81 OFFCURVE",
"163 81 CURVE SMOOTH",
"182 81 OFFCURVE",
"191 93 OFFCURVE",
"195 108 CURVE",
"198 116 OFFCURVE",
"199 125 OFFCURVE",
"199 136 CURVE SMOOTH",
"199 196 LINE"
);
},
{
closed = 1;
nodes = (
"126 334 LINE",
"199 334 LINE",
"199 411 LINE SMOOTH",
"199 432 OFFCURVE",
"195 447 OFFCURVE",
"185 459 CURVE",
"180 464 OFFCURVE",
"172 467 OFFCURVE",
"163 467 CURVE SMOOTH",
"144 467 OFFCURVE",
"136 454 OFFCURVE",
"131 439 CURVE",
"128 431 OFFCURVE",
"127 422 OFFCURVE",
"126 411 CURVE"
);
},
{
closed = 1;
nodes = (
"215 727 LINE",
"284 637 LINE",
"192 637 LINE",
"161 672 LINE",
"131 637 LINE",
"39 637 LINE",
"108 727 LINE"
);
}
);
width = 322;
}
);
leftKerningGroup = c;
rightKerningGroup = c;
unicode = 00EA;
},
{
glyphname = edieresis;
lastChange = "2012-05-22 22:56:21 +0000";
layers = (
{
layerId = "1AB499B8-18A8-432D-A211-B6882CCB886D";
name = Regular;
paths = (
{
closed = 1;
nodes = (
"293 196 LINE",
"293 133 LINE",
"290 80 OFFCURVE",
"274 43 OFFCURVE",
"238 14 CURVE SMOOTH",
"220 -1 OFFCURVE",
"195 -8 OFFCURVE",
"162 -8 CURVE SMOOTH",
"97 -8 OFFCURVE",
"64 28 OFFCURVE",
"48 64 CURVE SMOOTH",
"39 85 OFFCURVE",
"33 109 OFFCURVE",
"32 136 CURVE",
"32 411 LINE",
"35 464 OFFCURVE",
"52 503 OFFCURVE",
"88 533 CURVE SMOOTH",
"105 548 OFFCURVE",
"130 555 OFFCURVE",
"163 555 CURVE SMOOTH",
"228 555 OFFCURVE",
"261 519 OFFCURVE",
"277 484 CURVE SMOOTH",
"286 463 OFFCURVE",
"292 440 OFFCURVE",
"293 414 CURVE",
"293 255 LINE",
"126 255 LINE",
"126 136 LINE",
"127 115 OFFCURVE",
"133 100 OFFCURVE",
"142 89 CURVE",
"147 84 OFFCURVE",
"154 81 OFFCURVE",
"163 81 CURVE SMOOTH",
"182 81 OFFCURVE",
"191 93 OFFCURVE",
"195 108 CURVE",
"198 116 OFFCURVE",
"199 125 OFFCURVE",
"199 136 CURVE SMOOTH",
"199 196 LINE"
);
},
{
closed = 1;
nodes = (
"126 334 LINE",
"199 334 LINE",
"199 411 LINE SMOOTH",
"199 432 OFFCURVE",
"195 447 OFFCURVE",
"185 459 CURVE",
"180 464 OFFCURVE",
"172 467 OFFCURVE",
"163 467 CURVE SMOOTH",
"144 467 OFFCURVE",
"136 454 OFFCURVE",
"131 439 CURVE",
"128 431 OFFCURVE",
"127 422 OFFCURVE",
"126 411 CURVE"
);
},
{
closed = 1;
nodes = (
"44 735 LINE",
"137 735 LINE",
"137 637 LINE",
"44 637 LINE"
);
},
{
closed = 1;
nodes = (
"185 735 LINE",
"278 735 LINE",
"278 637 LINE",
"185 637 LINE"
);
}
);
width = 322;
}
);
leftKerningGroup = c;
rightKerningGroup = c;
unicode = 00EB;
},
{
glyphname = edotaccent;
lastChange = "2012-05-22 22:56:21 +0000";
layers = (
{
layerId = "1AB499B8-18A8-432D-A211-B6882CCB886D";
name = Regular;
paths = (
{
closed = 1;
nodes = (
"293 196 LINE",
"293 133 LINE",
"290 80 OFFCURVE",
"274 43 OFFCURVE",
"238 14 CURVE SMOOTH",
"220 -1 OFFCURVE",
"195 -8 OFFCURVE",
"162 -8 CURVE SMOOTH",
"97 -8 OFFCURVE",
"64 28 OFFCURVE",
"48 64 CURVE SMOOTH",
"39 85 OFFCURVE",
"33 109 OFFCURVE",
"32 136 CURVE",
"32 411 LINE",
"35 464 OFFCURVE",
"52 503 OFFCURVE",
"88 533 CURVE SMOOTH",
"105 548 OFFCURVE",
"130 555 OFFCURVE",
"163 555 CURVE SMOOTH",
"228 555 OFFCURVE",
"261 519 OFFCURVE",
"277 484 CURVE SMOOTH",
"286 463 OFFCURVE",
"292 440 OFFCURVE",
"293 414 CURVE",
"293 255 LINE",
"126 255 LINE",
"126 136 LINE",
"127 115 OFFCURVE",
"133 100 OFFCURVE",
"142 89 CURVE",
"147 84 OFFCURVE",
"154 81 OFFCURVE",
"163 81 CURVE SMOOTH",
"182 81 OFFCURVE",
"191 93 OFFCURVE",
"195 108 CURVE",
"198 116 OFFCURVE",
"199 125 OFFCURVE",
"199 136 CURVE SMOOTH",
"199 196 LINE"
);
},
{
closed = 1;
nodes = (
"126 334 LINE",
"199 334 LINE",
"199 411 LINE SMOOTH",
"199 432 OFFCURVE",
"195 447 OFFCURVE",
"185 459 CURVE",
"180 464 OFFCURVE",
"172 467 OFFCURVE",
"163 467 CURVE SMOOTH",
"144 467 OFFCURVE",
"136 454 OFFCURVE",
"131 439 CURVE",
"128 431 OFFCURVE",
"127 422 OFFCURVE",
"126 411 CURVE"
);
},
{
closed = 1;
nodes = (
"112 735 LINE",
"213 735 LINE",
"213 634 LINE",
"112 634 LINE"
);
}
);
width = 322;
}
);
unicode = 0117;
},
{
glyphname = egrave;
lastChange = "2012-05-22 22:56:21 +0000";
layers = (
{
layerId = "1AB499B8-18A8-432D-A211-B6882CCB886D";
name = Regular;
paths = (
{
closed = 1;
nodes = (
"293 196 LINE",
"293 133 LINE",
"290 80 OFFCURVE",
"274 43 OFFCURVE",
"238 14 CURVE SMOOTH",
"220 -1 OFFCURVE",
"195 -8 OFFCURVE",
"162 -8 CURVE SMOOTH",
"97 -8 OFFCURVE",
"64 28 OFFCURVE",
"48 64 CURVE SMOOTH",
"39 85 OFFCURVE",
"33 109 OFFCURVE",
"32 136 CURVE",
"32 411 LINE",
"35 464 OFFCURVE",
"52 503 OFFCURVE",
"88 533 CURVE SMOOTH",
"105 548 OFFCURVE",
"130 555 OFFCURVE",
"163 555 CURVE SMOOTH",
"228 555 OFFCURVE",
"261 519 OFFCURVE",
"277 484 CURVE SMOOTH",
"286 463 OFFCURVE",
"292 440 OFFCURVE",
"293 414 CURVE",
"293 255 LINE",
"126 255 LINE",
"126 136 LINE",
"127 115 OFFCURVE",
"133 100 OFFCURVE",
"142 89 CURVE",
"147 84 OFFCURVE",
"154 81 OFFCURVE",
"163 81 CURVE SMOOTH",
"182 81 OFFCURVE",
"191 93 OFFCURVE",
"195 108 CURVE",
"198 116 OFFCURVE",
"199 125 OFFCURVE",
"199 136 CURVE SMOOTH",
"199 196 LINE"
);
},
{
closed = 1;
nodes = (
"126 334 LINE",
"199 334 LINE",
"199 411 LINE SMOOTH",
"199 432 OFFCURVE",
"195 447 OFFCURVE",
"185 459 CURVE",
"180 464 OFFCURVE",
"172 467 OFFCURVE",
"163 467 CURVE SMOOTH",
"144 467 OFFCURVE",
"136 454 OFFCURVE",
"131 439 CURVE",
"128 431 OFFCURVE",
"127 422 OFFCURVE",
"126 411 CURVE"
);
},
{
closed = 1;
nodes = (
"155 727 LINE",
"207 637 LINE",
"129 637 LINE",
"50 727 LINE"
);
}
);
width = 322;
}
);
leftKerningGroup = c;
rightKerningGroup = c;
unicode = 00E8;
},
{
glyphname = emacron;
lastChange = "2012-05-22 22:56:21 +0000";
layers = (
{
layerId = "1AB499B8-18A8-432D-A211-B6882CCB886D";
name = Regular;
paths = (
{
closed = 1;
nodes = (
"293 196 LINE",
"293 133 LINE",
"290 80 OFFCURVE",
"274 43 OFFCURVE",
"238 14 CURVE SMOOTH",
"220 -1 OFFCURVE",
"195 -8 OFFCURVE",
"162 -8 CURVE SMOOTH",
"97 -8 OFFCURVE",
"64 28 OFFCURVE",
"48 64 CURVE SMOOTH",
"39 85 OFFCURVE",
"33 109 OFFCURVE",
"32 136 CURVE",
"32 411 LINE",
"35 464 OFFCURVE",
"52 503 OFFCURVE",
"88 533 CURVE SMOOTH",
"105 548 OFFCURVE",
"130 555 OFFCURVE",
"163 555 CURVE SMOOTH",
"228 555 OFFCURVE",
"261 519 OFFCURVE",
"277 484 CURVE SMOOTH",
"286 463 OFFCURVE",
"292 440 OFFCURVE",
"293 414 CURVE",
"293 255 LINE",
"126 255 LINE",
"126 136 LINE",
"127 115 OFFCURVE",
"133 100 OFFCURVE",
"142 89 CURVE",
"147 84 OFFCURVE",
"154 81 OFFCURVE",
"163 81 CURVE SMOOTH",
"182 81 OFFCURVE",
"191 93 OFFCURVE",
"195 108 CURVE",
"198 116 OFFCURVE",
"199 125 OFFCURVE",
"199 136 CURVE SMOOTH",
"199 196 LINE"
);
},
{
closed = 1;
nodes = (
"126 334 LINE",
"199 334 LINE",
"199 411 LINE SMOOTH",
"199 432 OFFCURVE",
"195 447 OFFCURVE",
"185 459 CURVE",
"180 464 OFFCURVE",
"172 467 OFFCURVE",
"163 467 CURVE SMOOTH",
"144 467 OFFCURVE",
"136 454 OFFCURVE",
"131 439 CURVE",
"128 431 OFFCURVE",
"127 422 OFFCURVE",
"126 411 CURVE"
);
},
{
closed = 1;
nodes = (
"65 721 LINE",
"259 721 LINE",
"259 642 LINE",
"65 642 LINE"
);
}
);
width = 322;
}
);
unicode = 0113;
},
{
glyphname = eogonek;
lastChange = "2012-05-22 22:56:21 +0000";
layers = (
{
layerId = "1AB499B8-18A8-432D-A211-B6882CCB886D";
name = Regular;
paths = (
{
closed = 1;
nodes = (
"293 196 LINE",
"293 133 LINE",
"290 80 OFFCURVE",
"274 43 OFFCURVE",
"238 14 CURVE SMOOTH",
"220 -1 OFFCURVE",
"195 -8 OFFCURVE",
"162 -8 CURVE SMOOTH",
"97 -8 OFFCURVE",
"64 28 OFFCURVE",
"48 64 CURVE SMOOTH",
"39 85 OFFCURVE",
"33 109 OFFCURVE",
"32 136 CURVE",
"32 411 LINE",
"35 464 OFFCURVE",
"52 503 OFFCURVE",
"88 533 CURVE SMOOTH",
"105 548 OFFCURVE",
"130 555 OFFCURVE",
"163 555 CURVE SMOOTH",
"228 555 OFFCURVE",
"261 519 OFFCURVE",
"277 484 CURVE SMOOTH",
"286 463 OFFCURVE",
"292 440 OFFCURVE",
"293 414 CURVE",
"293 255 LINE",
"126 255 LINE",
"126 136 LINE",
"127 115 OFFCURVE",
"133 100 OFFCURVE",
"142 89 CURVE",
"147 84 OFFCURVE",
"154 81 OFFCURVE",
"163 81 CURVE SMOOTH",
"182 81 OFFCURVE",
"191 93 OFFCURVE",
"195 108 CURVE",
"198 116 OFFCURVE",
"199 125 OFFCURVE",
"199 136 CURVE SMOOTH",
"199 196 LINE"
);
},
{
closed = 1;
nodes = (
"126 334 LINE",
"199 334 LINE",
"199 411 LINE SMOOTH",
"199 432 OFFCURVE",
"195 447 OFFCURVE",
"185 459 CURVE",
"180 464 OFFCURVE",
"172 467 OFFCURVE",
"163 467 CURVE SMOOTH",
"144 467 OFFCURVE",
"136 454 OFFCURVE",
"131 439 CURVE",
"128 431 OFFCURVE",
"127 422 OFFCURVE",
"126 411 CURVE"
);
},
{
closed = 1;
nodes = (
"134 -75 OFFCURVE",
"150 -50 OFFCURVE",
"167 -31 CURVE",
"176 -20 OFFCURVE",
"187 -9 OFFCURVE",
"200 0 CURVE",
"248 0 LINE",
"231 -15 OFFCURVE",
"219 -30 OFFCURVE",
"210 -50 CURVE",
"205 -60 OFFCURVE",
"203 -71 OFFCURVE",
"203 -83 CURVE SMOOTH",
"203 -112 OFFCURVE",
"230 -121 OFFCURVE",
"253 -121 CURVE SMOOTH",
"270 -121 OFFCURVE",
"283 -117 OFFCURVE",
"295 -112 CURVE",
"287 -179 LINE",
"266 -186 OFFCURVE",
"253 -188 OFFCURVE",
"236 -188 CURVE SMOOTH",
"171 -188 OFFCURVE",
"134 -148 OFFCURVE",
"134 -103 CURVE SMOOTH"
);
}
);
width = 322;
}
);
unicode = 0119;
},
{
glyphname = f;
lastChange = "2012-05-22 22:56:21 +0000";
layers = (
{
layerId = "1AB499B8-18A8-432D-A211-B6882CCB886D";
name = Regular;
paths = (
{
closed = 1;
nodes = (
"61 0 LINE",
"61 456 LINE",
"10 456 LINE",
"10 547 LINE",
"61 547 LINE",
"61 555 LINE",
"61 562 LINE SMOOTH",
"61 590 OFFCURVE",
"62 635 OFFCURVE",
"76 672 CURVE SMOOTH",
"90 709 OFFCURVE",
"118 739 OFFCURVE",
"177 739 CURVE SMOOTH",
"193 739 OFFCURVE",
"204 738 OFFCURVE",
"212 735 CURVE",
"224 732 LINE",
"224 645 LINE",
"221 646 OFFCURVE",
"218 646 OFFCURVE",
"215 647 CURVE",
"208 648 OFFCURVE",
"201 649 OFFCURVE",
"194 649 CURVE SMOOTH",
"177 649 OFFCURVE",
"169 634 OFFCURVE",
"165 615 CURVE SMOOTH",
"163 605 OFFCURVE",
"162 595 OFFCURVE",
"162 585 CURVE SMOOTH",
"162 575 OFFCURVE",
"162 567 OFFCURVE",
"162 561 CURVE SMOOTH",
"162 553 LINE",
"162 547 LINE",
"213 547 LINE",
"213 456 LINE",
"162 456 LINE",
"162 0 LINE"
);
}
);
width = 232;
}
);
unicode = 0066;
},
{
glyphname = g;
lastChange = "2012-05-22 22:56:21 +0000";
layers = (
{
anchors = (
{
name = top;
position = "{171, 547}";
}
);
layerId = "1AB499B8-18A8-432D-A211-B6882CCB886D";
name = Regular;
paths = (
{
closed = 1;
nodes = (
"287 264 LINE",
"284 213 OFFCURVE",
"266 177 OFFCURVE",
"231 150 CURVE SMOOTH",
"213 136 OFFCURVE",
"188 129 OFFCURVE",
"157 129 CURVE SMOOTH",
"154 129 OFFCURVE",
"151 129 OFFCURVE",
"148 129 CURVE SMOOTH",
"145 129 OFFCURVE",
"141 129 OFFCURVE",
"138 130 CURVE",
"129 122 OFFCURVE",
"124 114 OFFCURVE",
"124 105 CURVE SMOOTH",
"124 93 OFFCURVE",
"134 86 OFFCURVE",
"149 82 CURVE",
"164 77 OFFCURVE",
"182 74 OFFCURVE",
"201 71 CURVE SMOOTH",
"233 67 OFFCURVE",
"267 59 OFFCURVE",
"295 40 CURVE SMOOTH",
"322 21 OFFCURVE",
"341 -8 OFFCURVE",
"341 -56 CURVE SMOOTH",
"341 -109 OFFCURVE",
"318 -145 OFFCURVE",
"286 -166 CURVE SMOOTH",
"253 -187 OFFCURVE",
"209 -196 OFFCURVE",
"168 -196 CURVE SMOOTH",
"120 -195 OFFCURVE",
"79 -188 OFFCURVE",
"51 -172 CURVE SMOOTH",
"22 -156 OFFCURVE",
"6 -130 OFFCURVE",
"6 -90 CURVE SMOOTH",
"6 -71 OFFCURVE",
"16 -55 OFFCURVE",
"31 -41 CURVE SMOOTH",
"46 -27 OFFCURVE",
"66 -16 OFFCURVE",
"85 -7 CURVE",
"52 2 OFFCURVE",
"24 23 OFFCURVE",
"24 66 CURVE SMOOTH",
"24 82 OFFCURVE",
"33 98 OFFCURVE",
"45 113 CURVE SMOOTH",
"57 128 OFFCURVE",
"72 140 OFFCURVE",
"87 148 CURVE",
"58 167 OFFCURVE",
"44 197 OFFCURVE",
"37 222 CURVE SMOOTH",
"33 237 OFFCURVE",
"30 252 OFFCURVE",
"29 267 CURVE",
"29 416 LINE",
"33 467 OFFCURVE",
"49 504 OFFCURVE",
"84 533 CURVE SMOOTH",
"101 548 OFFCURVE",
"126 555 OFFCURVE",
"157 555 CURVE SMOOTH",
"208 555 OFFCURVE",
"239 532 OFFCURVE",
"258 505 CURVE",
"265 512 OFFCURVE",
"277 524 OFFCURVE",
"293 535 CURVE SMOOTH",
"308 546 OFFCURVE",
"325 555 OFFCURVE",
"341 555 CURVE",
"341 465 LINE",
"314 465 OFFCURVE",
"294 460 OFFCURVE",
"282 453 CURVE",
"283 448 OFFCURVE",
"284 443 OFFCURVE",
"285 440 CURVE",
"285 436 OFFCURVE",
"285 432 OFFCURVE",
"286 429 CURVE SMOOTH",
"287 426 OFFCURVE",
"287 422 OFFCURVE",
"287 419 CURVE SMOOTH"
);
},
{
closed = 1;
nodes = (
"188 412 LINE SMOOTH",
"188 431 OFFCURVE",
"184 443 OFFCURVE",
"176 454 CURVE",
"172 459 OFFCURVE",
"166 462 OFFCURVE",
"157 462 CURVE SMOOTH",
"141 462 OFFCURVE",
"133 449 OFFCURVE",
"130 437 CURVE SMOOTH",
"128 430 OFFCURVE",
"127 421 OFFCURVE",
"128 412 CURVE",
"128 262 LINE",
"127 243 OFFCURVE",
"130 231 OFFCURVE",
"139 221 CURVE",
"143 216 OFFCURVE",
"149 213 OFFCURVE",
"157 213 CURVE SMOOTH",
"174 213 OFFCURVE",
"181 225 OFFCURVE",
"185 237 CURVE",
"187 244 OFFCURVE",
"188 253 OFFCURVE",
"188 262 CURVE SMOOTH"
);
},
{
closed = 1;
nodes = (
"247 -65 OFFCURVE",
"246 -58 OFFCURVE",
"239 -51 CURVE",
"231 -44 OFFCURVE",
"218 -39 OFFCURVE",
"193 -35 CURVE SMOOTH",
"141 -25 LINE",
"120 -37 OFFCURVE",
"104 -52 OFFCURVE",
"104 -73 CURVE SMOOTH",
"104 -94 OFFCURVE",
"123 -111 OFFCURVE",
"170 -111 CURVE SMOOTH",
"187 -111 OFFCURVE",
"206 -108 OFFCURVE",
"221 -102 CURVE SMOOTH",
"236 -96 OFFCURVE",
"247 -87 OFFCURVE",
"247 -74 CURVE SMOOTH"
);
}
);
width = 342;
}
);
unicode = 0067;
},
{
glyphname = gbreve;
lastChange = "2012-05-22 22:56:21 +0000";
layers = (
{
layerId = "1AB499B8-18A8-432D-A211-B6882CCB886D";
name = Regular;
paths = (
{
closed = 1;
nodes = (
"287 264 LINE",
"284 213 OFFCURVE",
"266 177 OFFCURVE",
"231 150 CURVE SMOOTH",
"213 136 OFFCURVE",
"188 129 OFFCURVE",
"157 129 CURVE SMOOTH",
"154 129 OFFCURVE",
"151 129 OFFCURVE",
"148 129 CURVE SMOOTH",
"145 129 OFFCURVE",
"141 129 OFFCURVE",
"138 130 CURVE",
"129 122 OFFCURVE",
"124 114 OFFCURVE",
"124 105 CURVE SMOOTH",
"124 93 OFFCURVE",
"134 86 OFFCURVE",
"149 82 CURVE",
"164 77 OFFCURVE",
"182 74 OFFCURVE",
"201 71 CURVE SMOOTH",
"233 67 OFFCURVE",
"267 59 OFFCURVE",
"295 40 CURVE SMOOTH",
"322 21 OFFCURVE",
"341 -8 OFFCURVE",
"341 -56 CURVE SMOOTH",
"341 -109 OFFCURVE",
"318 -145 OFFCURVE",
"286 -166 CURVE SMOOTH",
"253 -187 OFFCURVE",
"209 -196 OFFCURVE",
"168 -196 CURVE SMOOTH",
"120 -195 OFFCURVE",
"79 -188 OFFCURVE",
"51 -172 CURVE SMOOTH",
"22 -156 OFFCURVE",
"6 -130 OFFCURVE",
"6 -90 CURVE SMOOTH",
"6 -71 OFFCURVE",
"16 -55 OFFCURVE",
"31 -41 CURVE SMOOTH",
"46 -27 OFFCURVE",
"66 -16 OFFCURVE",
"85 -7 CURVE",
"52 2 OFFCURVE",
"24 23 OFFCURVE",
"24 66 CURVE SMOOTH",
"24 82 OFFCURVE",
"33 98 OFFCURVE",
"45 113 CURVE SMOOTH",
"57 128 OFFCURVE",
"72 140 OFFCURVE",
"87 148 CURVE",
"58 167 OFFCURVE",
"44 197 OFFCURVE",
"37 222 CURVE SMOOTH",
"33 237 OFFCURVE",
"30 252 OFFCURVE",
"29 267 CURVE",
"29 416 LINE",
"33 467 OFFCURVE",
"49 504 OFFCURVE",
"84 533 CURVE SMOOTH",
"101 548 OFFCURVE",
"126 555 OFFCURVE",
"157 555 CURVE SMOOTH",
"208 555 OFFCURVE",
"239 532 OFFCURVE",
"258 505 CURVE",
"265 512 OFFCURVE",
"277 524 OFFCURVE",
"293 535 CURVE SMOOTH",
"308 546 OFFCURVE",
"325 555 OFFCURVE",
"341 555 CURVE",
"341 465 LINE",
"314 465 OFFCURVE",
"294 460 OFFCURVE",
"282 453 CURVE",
"283 448 OFFCURVE",
"284 443 OFFCURVE",
"285 440 CURVE",
"285 436 OFFCURVE",
"285 432 OFFCURVE",
"286 429 CURVE SMOOTH",
"287 426 OFFCURVE",
"287 422 OFFCURVE",
"287 419 CURVE SMOOTH"
);
},
{
closed = 1;
nodes = (
"188 412 LINE SMOOTH",
"188 431 OFFCURVE",
"184 443 OFFCURVE",
"176 454 CURVE",
"172 459 OFFCURVE",
"166 462 OFFCURVE",
"157 462 CURVE SMOOTH",
"141 462 OFFCURVE",
"133 449 OFFCURVE",
"130 437 CURVE SMOOTH",
"128 430 OFFCURVE",
"127 421 OFFCURVE",
"128 412 CURVE",
"128 262 LINE",
"127 243 OFFCURVE",
"130 231 OFFCURVE",
"139 221 CURVE",
"143 216 OFFCURVE",
"149 213 OFFCURVE",
"157 213 CURVE SMOOTH",
"174 213 OFFCURVE",
"181 225 OFFCURVE",
"185 237 CURVE",
"187 244 OFFCURVE",
"188 253 OFFCURVE",
"188 262 CURVE SMOOTH"
);
},
{
closed = 1;
nodes = (
"247 -65 OFFCURVE",
"246 -58 OFFCURVE",
"239 -51 CURVE",
"231 -44 OFFCURVE",
"218 -39 OFFCURVE",
"193 -35 CURVE SMOOTH",
"141 -25 LINE",
"120 -37 OFFCURVE",
"104 -52 OFFCURVE",
"104 -73 CURVE SMOOTH",
"104 -94 OFFCURVE",
"123 -111 OFFCURVE",
"170 -111 CURVE SMOOTH",
"187 -111 OFFCURVE",
"206 -108 OFFCURVE",
"221 -102 CURVE SMOOTH",
"236 -96 OFFCURVE",
"247 -87 OFFCURVE",
"247 -74 CURVE SMOOTH"
);
},
{
closed = 1;
nodes = (
"282 683 LINE",
"265 666 OFFCURVE",
"245 652 OFFCURVE",
"218 643 CURVE",
"205 638 OFFCURVE",
"189 636 OFFCURVE",
"172 636 CURVE SMOOTH",
"137 636 OFFCURVE",
"110 647 OFFCURVE",
"91 659 CURVE SMOOTH",
"80 666 OFFCURVE",
"70 674 OFFCURVE",
"62 683 CURVE",
"116 729 LINE",
"123 720 OFFCURVE",
"134 713 OFFCURVE",
"148 709 CURVE SMOOTH",
"155 707 OFFCURVE",
"163 706 OFFCURVE",
"172 706 CURVE SMOOTH",
"191 706 OFFCURVE",
"204 710 OFFCURVE",
"215 717 CURVE",
"221 720 OFFCURVE",
"226 724 OFFCURVE",
"230 729 CURVE"
);
}
);
width = 342;
}
);
unicode = 011F;
},
{
glyphname = gcircumflex;
lastChange = "2012-05-22 22:56:21 +0000";
layers = (
{
layerId = "1AB499B8-18A8-432D-A211-B6882CCB886D";
name = Regular;
paths = (
{
closed = 1;
nodes = (
"287 264 LINE",
"284 213 OFFCURVE",
"266 177 OFFCURVE",
"231 150 CURVE SMOOTH",
"213 136 OFFCURVE",
"188 129 OFFCURVE",
"157 129 CURVE SMOOTH",
"154 129 OFFCURVE",
"151 129 OFFCURVE",
"148 129 CURVE SMOOTH",
"145 129 OFFCURVE",
"141 129 OFFCURVE",
"138 130 CURVE",
"129 122 OFFCURVE",
"124 114 OFFCURVE",
"124 105 CURVE SMOOTH",
"124 93 OFFCURVE",
"134 86 OFFCURVE",
"149 82 CURVE",
"164 77 OFFCURVE",
"182 74 OFFCURVE",
"201 71 CURVE SMOOTH",
"233 67 OFFCURVE",
"267 59 OFFCURVE",
"295 40 CURVE SMOOTH",
"322 21 OFFCURVE",
"341 -8 OFFCURVE",
"341 -56 CURVE SMOOTH",
"341 -109 OFFCURVE",
"318 -145 OFFCURVE",
"286 -166 CURVE SMOOTH",
"253 -187 OFFCURVE",
"209 -196 OFFCURVE",
"168 -196 CURVE SMOOTH",
"120 -195 OFFCURVE",
"79 -188 OFFCURVE",
"51 -172 CURVE SMOOTH",
"22 -156 OFFCURVE",
"6 -130 OFFCURVE",
"6 -90 CURVE SMOOTH",
"6 -71 OFFCURVE",
"16 -55 OFFCURVE",
"31 -41 CURVE SMOOTH",
"46 -27 OFFCURVE",
"66 -16 OFFCURVE",
"85 -7 CURVE",
"52 2 OFFCURVE",
"24 23 OFFCURVE",
"24 66 CURVE SMOOTH",
"24 82 OFFCURVE",
"33 98 OFFCURVE",
"45 113 CURVE SMOOTH",
"57 128 OFFCURVE",
"72 140 OFFCURVE",
"87 148 CURVE",
"58 167 OFFCURVE",
"44 197 OFFCURVE",
"37 222 CURVE SMOOTH",
"33 237 OFFCURVE",
"30 252 OFFCURVE",
"29 267 CURVE",
"29 416 LINE",
"33 467 OFFCURVE",
"49 504 OFFCURVE",
"84 533 CURVE SMOOTH",
"101 548 OFFCURVE",
"126 555 OFFCURVE",
"157 555 CURVE SMOOTH",
"208 555 OFFCURVE",
"239 532 OFFCURVE",
"258 505 CURVE",
"265 512 OFFCURVE",
"277 524 OFFCURVE",
"293 535 CURVE SMOOTH",
"308 546 OFFCURVE",
"325 555 OFFCURVE",
"341 555 CURVE",
"341 465 LINE",
"314 465 OFFCURVE",
"294 460 OFFCURVE",
"282 453 CURVE",
"283 448 OFFCURVE",
"284 443 OFFCURVE",
"285 440 CURVE",
"285 436 OFFCURVE",
"285 432 OFFCURVE",
"286 429 CURVE SMOOTH",
"287 426 OFFCURVE",
"287 422 OFFCURVE",
"287 419 CURVE SMOOTH"
);
},
{
closed = 1;
nodes = (
"188 412 LINE SMOOTH",
"188 431 OFFCURVE",
"184 443 OFFCURVE",
"176 454 CURVE",
"172 459 OFFCURVE",
"166 462 OFFCURVE",
"157 462 CURVE SMOOTH",
"141 462 OFFCURVE",
"133 449 OFFCURVE",
"130 437 CURVE SMOOTH",
"128 430 OFFCURVE",
"127 421 OFFCURVE",
"128 412 CURVE",
"128 262 LINE",
"127 243 OFFCURVE",
"130 231 OFFCURVE",
"139 221 CURVE",
"143 216 OFFCURVE",
"149 213 OFFCURVE",
"157 213 CURVE SMOOTH",
"174 213 OFFCURVE",
"181 225 OFFCURVE",
"185 237 CURVE",
"187 244 OFFCURVE",
"188 253 OFFCURVE",
"188 262 CURVE SMOOTH"
);
},
{
closed = 1;
nodes = (
"247 -65 OFFCURVE",
"246 -58 OFFCURVE",
"239 -51 CURVE",
"231 -44 OFFCURVE",
"218 -39 OFFCURVE",
"193 -35 CURVE SMOOTH",
"141 -25 LINE",
"120 -37 OFFCURVE",
"104 -52 OFFCURVE",
"104 -73 CURVE SMOOTH",
"104 -94 OFFCURVE",
"123 -111 OFFCURVE",
"170 -111 CURVE SMOOTH",
"187 -111 OFFCURVE",
"206 -108 OFFCURVE",
"221 -102 CURVE SMOOTH",
"236 -96 OFFCURVE",
"247 -87 OFFCURVE",
"247 -74 CURVE SMOOTH"
);
},
{
closed = 1;
nodes = (
"226 727 LINE",
"295 637 LINE",
"203 637 LINE",
"172 672 LINE",
"142 637 LINE",
"50 637 LINE",
"119 727 LINE"
);
}
);
width = 342;
}
);
unicode = 011D;
},
{
glyphname = gcommaaccent;
lastChange = "2012-05-22 22:56:21 +0000";
layers = (
{
layerId = "1AB499B8-18A8-432D-A211-B6882CCB886D";
name = Regular;
paths = (
{
closed = 1;
nodes = (
"287 264 LINE",
"284 213 OFFCURVE",
"266 177 OFFCURVE",
"231 150 CURVE SMOOTH",
"213 136 OFFCURVE",
"188 129 OFFCURVE",
"157 129 CURVE SMOOTH",
"154 129 OFFCURVE",
"151 129 OFFCURVE",
"148 129 CURVE SMOOTH",
"145 129 OFFCURVE",
"141 129 OFFCURVE",
"138 130 CURVE",
"129 122 OFFCURVE",
"124 114 OFFCURVE",
"124 105 CURVE SMOOTH",
"124 93 OFFCURVE",
"134 86 OFFCURVE",
"149 82 CURVE",
"164 77 OFFCURVE",
"182 74 OFFCURVE",
"201 71 CURVE SMOOTH",
"233 67 OFFCURVE",
"267 59 OFFCURVE",
"295 40 CURVE SMOOTH",
"322 21 OFFCURVE",
"341 -8 OFFCURVE",
"341 -56 CURVE SMOOTH",
"341 -109 OFFCURVE",
"318 -145 OFFCURVE",
"286 -166 CURVE SMOOTH",
"253 -187 OFFCURVE",
"209 -196 OFFCURVE",
"168 -196 CURVE SMOOTH",
"120 -195 OFFCURVE",
"79 -188 OFFCURVE",
"51 -172 CURVE SMOOTH",
"22 -156 OFFCURVE",
"6 -130 OFFCURVE",
"6 -90 CURVE SMOOTH",
"6 -71 OFFCURVE",
"16 -55 OFFCURVE",
"31 -41 CURVE SMOOTH",
"46 -27 OFFCURVE",
"66 -16 OFFCURVE",
"85 -7 CURVE",
"52 2 OFFCURVE",
"24 23 OFFCURVE",
"24 66 CURVE SMOOTH",
"24 82 OFFCURVE",
"33 98 OFFCURVE",
"45 113 CURVE SMOOTH",
"57 128 OFFCURVE",
"72 140 OFFCURVE",
"87 148 CURVE",
"58 167 OFFCURVE",
"44 197 OFFCURVE",
"37 222 CURVE SMOOTH",
"33 237 OFFCURVE",
"30 252 OFFCURVE",
"29 267 CURVE",
"29 416 LINE",
"33 467 OFFCURVE",
"49 504 OFFCURVE",
"84 533 CURVE SMOOTH",
"101 548 OFFCURVE",
"126 555 OFFCURVE",
"157 555 CURVE SMOOTH",
"208 555 OFFCURVE",
"239 532 OFFCURVE",
"258 505 CURVE",
"265 512 OFFCURVE",
"277 524 OFFCURVE",
"293 535 CURVE SMOOTH",
"308 546 OFFCURVE",
"325 555 OFFCURVE",
"341 555 CURVE",
"341 465 LINE",
"314 465 OFFCURVE",
"294 460 OFFCURVE",
"282 453 CURVE",
"283 448 OFFCURVE",
"284 443 OFFCURVE",
"285 440 CURVE",
"285 436 OFFCURVE",
"285 432 OFFCURVE",
"286 429 CURVE SMOOTH",
"287 426 OFFCURVE",
"287 422 OFFCURVE",
"287 419 CURVE SMOOTH"
);
},
{
closed = 1;
nodes = (
"188 412 LINE SMOOTH",
"188 431 OFFCURVE",
"184 443 OFFCURVE",
"176 454 CURVE",
"172 459 OFFCURVE",
"166 462 OFFCURVE",
"157 462 CURVE SMOOTH",
"141 462 OFFCURVE",
"133 449 OFFCURVE",
"130 437 CURVE SMOOTH",
"128 430 OFFCURVE",
"127 421 OFFCURVE",
"128 412 CURVE",
"128 262 LINE",
"127 243 OFFCURVE",
"130 231 OFFCURVE",
"139 221 CURVE",
"143 216 OFFCURVE",
"149 213 OFFCURVE",
"157 213 CURVE SMOOTH",
"174 213 OFFCURVE",
"181 225 OFFCURVE",
"185 237 CURVE",
"187 244 OFFCURVE",
"188 253 OFFCURVE",
"188 262 CURVE SMOOTH"
);
},
{
closed = 1;
nodes = (
"247 -65 OFFCURVE",
"246 -58 OFFCURVE",
"239 -51 CURVE",
"231 -44 OFFCURVE",
"218 -39 OFFCURVE",
"193 -35 CURVE SMOOTH",
"141 -25 LINE",
"120 -37 OFFCURVE",
"104 -52 OFFCURVE",
"104 -73 CURVE SMOOTH",
"104 -94 OFFCURVE",
"123 -111 OFFCURVE",
"170 -111 CURVE SMOOTH",
"187 -111 OFFCURVE",
"206 -108 OFFCURVE",
"221 -102 CURVE SMOOTH",
"236 -96 OFFCURVE",
"247 -87 OFFCURVE",
"247 -74 CURVE SMOOTH"
);
},
{
closed = 1;
nodes = (
"118 793 LINE",
"173 923 LINE",
"223 923 LINE",
"188 793 LINE",
"223 793 LINE",
"223 682 LINE",
"118 682 LINE"
);
}
);
width = 342;
}
);
unicode = 0123;
},
{
glyphname = gdotaccent;
lastChange = "2012-05-22 22:56:21 +0000";
layers = (
{
layerId = "1AB499B8-18A8-432D-A211-B6882CCB886D";
name = Regular;
paths = (
{
closed = 1;
nodes = (
"287 264 LINE",
"284 213 OFFCURVE",
"266 177 OFFCURVE",
"231 150 CURVE SMOOTH",
"213 136 OFFCURVE",
"188 129 OFFCURVE",
"157 129 CURVE SMOOTH",
"154 129 OFFCURVE",
"151 129 OFFCURVE",
"148 129 CURVE SMOOTH",
"145 129 OFFCURVE",
"141 129 OFFCURVE",
"138 130 CURVE",
"129 122 OFFCURVE",
"124 114 OFFCURVE",
"124 105 CURVE SMOOTH",
"124 93 OFFCURVE",
"134 86 OFFCURVE",
"149 82 CURVE",
"164 77 OFFCURVE",
"182 74 OFFCURVE",
"201 71 CURVE SMOOTH",
"233 67 OFFCURVE",
"267 59 OFFCURVE",
"295 40 CURVE SMOOTH",
"322 21 OFFCURVE",
"341 -8 OFFCURVE",
"341 -56 CURVE SMOOTH",
"341 -109 OFFCURVE",
"318 -145 OFFCURVE",
"286 -166 CURVE SMOOTH",
"253 -187 OFFCURVE",
"209 -196 OFFCURVE",
"168 -196 CURVE SMOOTH",
"120 -195 OFFCURVE",
"79 -188 OFFCURVE",
"51 -172 CURVE SMOOTH",
"22 -156 OFFCURVE",
"6 -130 OFFCURVE",
"6 -90 CURVE SMOOTH",
"6 -71 OFFCURVE",
"16 -55 OFFCURVE",
"31 -41 CURVE SMOOTH",
"46 -27 OFFCURVE",
"66 -16 OFFCURVE",
"85 -7 CURVE",
"52 2 OFFCURVE",
"24 23 OFFCURVE",
"24 66 CURVE SMOOTH",
"24 82 OFFCURVE",
"33 98 OFFCURVE",
"45 113 CURVE SMOOTH",
"57 128 OFFCURVE",
"72 140 OFFCURVE",
"87 148 CURVE",
"58 167 OFFCURVE",
"44 197 OFFCURVE",
"37 222 CURVE SMOOTH",
"33 237 OFFCURVE",
"30 252 OFFCURVE",
"29 267 CURVE",
"29 416 LINE",
"33 467 OFFCURVE",
"49 504 OFFCURVE",
"84 533 CURVE SMOOTH",
"101 548 OFFCURVE",
"126 555 OFFCURVE",
"157 555 CURVE SMOOTH",
"208 555 OFFCURVE",
"239 532 OFFCURVE",
"258 505 CURVE",
"265 512 OFFCURVE",
"277 524 OFFCURVE",
"293 535 CURVE SMOOTH",
"308 546 OFFCURVE",
"325 555 OFFCURVE",
"341 555 CURVE",
"341 465 LINE",
"314 465 OFFCURVE",
"294 460 OFFCURVE",
"282 453 CURVE",
"283 448 OFFCURVE",
"284 443 OFFCURVE",
"285 440 CURVE",
"285 436 OFFCURVE",
"285 432 OFFCURVE",
"286 429 CURVE SMOOTH",
"287 426 OFFCURVE",
"287 422 OFFCURVE",
"287 419 CURVE SMOOTH"
);
},
{
closed = 1;
nodes = (
"188 412 LINE SMOOTH",
"188 431 OFFCURVE",
"184 443 OFFCURVE",
"176 454 CURVE",
"172 459 OFFCURVE",
"166 462 OFFCURVE",
"157 462 CURVE SMOOTH",
"141 462 OFFCURVE",
"133 449 OFFCURVE",
"130 437 CURVE SMOOTH",
"128 430 OFFCURVE",
"127 421 OFFCURVE",
"128 412 CURVE",
"128 262 LINE",
"127 243 OFFCURVE",
"130 231 OFFCURVE",
"139 221 CURVE",
"143 216 OFFCURVE",
"149 213 OFFCURVE",
"157 213 CURVE SMOOTH",
"174 213 OFFCURVE",
"181 225 OFFCURVE",
"185 237 CURVE",
"187 244 OFFCURVE",
"188 253 OFFCURVE",
"188 262 CURVE SMOOTH"
);
},
{
closed = 1;
nodes = (
"247 -65 OFFCURVE",
"246 -58 OFFCURVE",
"239 -51 CURVE",
"231 -44 OFFCURVE",
"218 -39 OFFCURVE",
"193 -35 CURVE SMOOTH",
"141 -25 LINE",
"120 -37 OFFCURVE",
"104 -52 OFFCURVE",
"104 -73 CURVE SMOOTH",
"104 -94 OFFCURVE",
"123 -111 OFFCURVE",
"170 -111 CURVE SMOOTH",
"187 -111 OFFCURVE",
"206 -108 OFFCURVE",
"221 -102 CURVE SMOOTH",
"236 -96 OFFCURVE",
"247 -87 OFFCURVE",
"247 -74 CURVE SMOOTH"
);
},
{
closed = 1;
nodes = (
"122 735 LINE",
"223 735 LINE",
"223 634 LINE",
"122 634 LINE"
);
}
);
width = 342;
}
);
unicode = 0121;
},
{
glyphname = h;
lastChange = "2012-05-22 22:56:21 +0000";
layers = (
{
anchors = (
{
name = center;
position = "{169, 274}";
},
{
name = top;
position = "{169, 547}";
}
);
layerId = "1AB499B8-18A8-432D-A211-B6882CCB886D";
name = Regular;
paths = (
{
closed = 1;
nodes = (
"163 457 OFFCURVE",
"157 451 OFFCURVE",
"150 444 CURVE",
"147 440 OFFCURVE",
"144 436 OFFCURVE",
"141 431 CURVE",
"141 0 LINE",
"40 0 LINE",
"40 735 LINE",
"141 735 LINE",
"141 501 LINE",
"143 502 OFFCURVE",
"147 506 OFFCURVE",
"153 512 CURVE SMOOTH",
"164 523 OFFCURVE",
"179 538 OFFCURVE",
"197 548 CURVE SMOOTH",
"206 553 OFFCURVE",
"214 555 OFFCURVE",
"223 555 CURVE SMOOTH",
"250 555 OFFCURVE",
"269 539 OFFCURVE",
"281 519 CURVE SMOOTH",
"293 498 OFFCURVE",
"299 471 OFFCURVE",
"299 448 CURVE SMOOTH",
"299 0 LINE",
"198 0 LINE",
"198 433 LINE SMOOTH",
"198 454 OFFCURVE",
"186 457 OFFCURVE",
"174 457 CURVE SMOOTH"
);
}
);
width = 337;
}
);
rightKerningGroup = b;
unicode = 0068;
},
{
glyphname = hbar;
lastChange = "2012-05-22 22:56:21 +0000";
layers = (
{
layerId = "1AB499B8-18A8-432D-A211-B6882CCB886D";
name = Regular;
paths = (
{
closed = 1;
nodes = (
"163 457 OFFCURVE",
"157 451 OFFCURVE",
"150 444 CURVE",
"147 440 OFFCURVE",
"144 436 OFFCURVE",
"141 431 CURVE",
"141 0 LINE",
"40 0 LINE",
"40 735 LINE",
"141 735 LINE",
"141 501 LINE",
"143 502 OFFCURVE",
"147 506 OFFCURVE",
"153 512 CURVE SMOOTH",
"164 523 OFFCURVE",
"179 538 OFFCURVE",
"197 548 CURVE SMOOTH",
"206 553 OFFCURVE",
"214 555 OFFCURVE",
"223 555 CURVE SMOOTH",
"250 555 OFFCURVE",
"269 539 OFFCURVE",
"281 519 CURVE SMOOTH",
"293 498 OFFCURVE",
"299 471 OFFCURVE",
"299 448 CURVE SMOOTH",
"299 0 LINE",
"198 0 LINE",
"198 433 LINE SMOOTH",
"198 454 OFFCURVE",
"186 457 OFFCURVE",
"174 457 CURVE SMOOTH"
);
},
{
closed = 1;
nodes = (
"2 691 LINE",
"196 691 LINE",
"196 612 LINE",
"2 612 LINE"
);
}
);
width = 337;
}
);
unicode = 0127;
},
{
glyphname = hcircumflex;
lastChange = "2012-05-22 22:56:21 +0000";
layers = (
{
layerId = "1AB499B8-18A8-432D-A211-B6882CCB886D";
name = Regular;
paths = (
{
closed = 1;
nodes = (
"163 457 OFFCURVE",
"157 451 OFFCURVE",
"150 444 CURVE",
"147 440 OFFCURVE",
"144 436 OFFCURVE",
"141 431 CURVE",
"141 0 LINE",
"40 0 LINE",
"40 735 LINE",
"141 735 LINE",
"141 501 LINE",
"143 502 OFFCURVE",
"147 506 OFFCURVE",
"153 512 CURVE SMOOTH",
"164 523 OFFCURVE",
"179 538 OFFCURVE",
"197 548 CURVE SMOOTH",
"206 553 OFFCURVE",
"214 555 OFFCURVE",
"223 555 CURVE SMOOTH",
"250 555 OFFCURVE",
"269 539 OFFCURVE",
"281 519 CURVE SMOOTH",
"293 498 OFFCURVE",
"299 471 OFFCURVE",
"299 448 CURVE SMOOTH",
"299 0 LINE",
"198 0 LINE",
"198 433 LINE SMOOTH",
"198 454 OFFCURVE",
"186 457 OFFCURVE",
"174 457 CURVE SMOOTH"
);
},
{
closed = 1;
nodes = (
"223 727 LINE",
"292 637 LINE",
"200 637 LINE",
"169 672 LINE",
"139 637 LINE",
"47 637 LINE",
"116 727 LINE"
);
}
);
width = 337;
}
);
unicode = 0125;
},
{
glyphname = i;
lastChange = "2012-05-22 22:56:21 +0000";
layers = (
{
layerId = "1AB499B8-18A8-432D-A211-B6882CCB886D";
name = Regular;
paths = (
{
closed = 1;
nodes = (
"40 0 LINE",
"40 547 LINE",
"141 547 LINE",
"141 0 LINE"
);
},
{
closed = 1;
nodes = (
"40 735 LINE",
"141 735 LINE",
"141 634 LINE",
"40 634 LINE"
);
}
);
width = 181;
}
);
leftKerningGroup = l;
rightKerningGroup = l;
unicode = 0069;
},
{
glyphname = dotlessi;
lastChange = "2012-05-22 22:56:21 +0000";
layers = (
{
anchors = (
{
name = ogonek;
position = "{163, 10}";
},
{
name = top;
position = "{91, 547}";
}
);
layerId = "1AB499B8-18A8-432D-A211-B6882CCB886D";
name = Regular;
paths = (
{
closed = 1;
nodes = (
"40 0 LINE",
"40 547 LINE",
"141 547 LINE",
"141 0 LINE"
);
}
);
width = 181;
}
);
unicode = 0131;
},
{
glyphname = iacute;
lastChange = "2012-05-22 22:56:21 +0000";
layers = (
{
layerId = "1AB499B8-18A8-432D-A211-B6882CCB886D";
name = Regular;
paths = (
{
closed = 1;
nodes = (
"40 0 LINE",
"40 547 LINE",
"141 547 LINE",
"141 0 LINE"
);
},
{
closed = 1;
nodes = (
"197 727 LINE",
"118 637 LINE",
"40 637 LINE",
"92 727 LINE"
);
}
);
width = 181;
}
);
leftKerningGroup = l;
rightKerningGroup = l;
unicode = 00ED;
},
{
glyphname = ibreve;
lastChange = "2012-05-22 22:56:21 +0000";
layers = (
{
layerId = "1AB499B8-18A8-432D-A211-B6882CCB886D";
name = Regular;
paths = (
{
closed = 1;
nodes = (
"40 0 LINE",
"40 547 LINE",
"141 547 LINE",
"141 0 LINE"
);
},
{
closed = 1;
nodes = (
"202 683 LINE",
"185 666 OFFCURVE",
"165 652 OFFCURVE",
"138 643 CURVE",
"125 638 OFFCURVE",
"109 636 OFFCURVE",
"92 636 CURVE SMOOTH",
"57 636 OFFCURVE",
"30 647 OFFCURVE",
"11 659 CURVE SMOOTH",
"0 666 OFFCURVE",
"-10 674 OFFCURVE",
"-18 683 CURVE",
"36 729 LINE",
"43 720 OFFCURVE",
"54 713 OFFCURVE",
"68 709 CURVE SMOOTH",
"75 707 OFFCURVE",
"83 706 OFFCURVE",
"92 706 CURVE SMOOTH",
"111 706 OFFCURVE",
"124 710 OFFCURVE",
"135 717 CURVE",
"141 720 OFFCURVE",
"146 724 OFFCURVE",
"150 729 CURVE"
);
}
);
width = 181;
}
);
unicode = 012D;
},
{
glyphname = icircumflex;
lastChange = "2012-05-22 22:56:21 +0000";
layers = (
{
layerId = "1AB499B8-18A8-432D-A211-B6882CCB886D";
name = Regular;
paths = (
{
closed = 1;
nodes = (
"40 0 LINE",
"40 547 LINE",
"141 547 LINE",
"141 0 LINE"
);
},
{
closed = 1;
nodes = (
"144 727 LINE",
"213 637 LINE",
"121 637 LINE",
"90 672 LINE",
"60 637 LINE",
"-32 637 LINE",
"37 727 LINE"
);
}
);
width = 181;
}
);
leftKerningGroup = icircumflex;
rightKerningGroup = icircumflex;
unicode = 00EE;
},
{
glyphname = idieresis;
lastChange = "2012-05-22 22:56:21 +0000";
layers = (
{
layerId = "1AB499B8-18A8-432D-A211-B6882CCB886D";
name = Regular;
paths = (
{
closed = 1;
nodes = (
"40 0 LINE",
"40 547 LINE",
"141 547 LINE",
"141 0 LINE"
);
},
{
closed = 1;
nodes = (
"-26 735 LINE",
"67 735 LINE",
"67 637 LINE",
"-26 637 LINE"
);
},
{
closed = 1;
nodes = (
"115 735 LINE",
"208 735 LINE",
"208 637 LINE",
"115 637 LINE"
);
}
);
width = 182;
}
);
leftKerningGroup = icircumflex;
rightKerningGroup = icircumflex;
unicode = 00EF;
},
{
glyphname = igrave;
lastChange = "2012-05-22 22:56:21 +0000";
layers = (
{
layerId = "1AB499B8-18A8-432D-A211-B6882CCB886D";
name = Regular;
paths = (
{
closed = 1;
nodes = (
"40 0 LINE",
"40 547 LINE",
"141 547 LINE",
"141 0 LINE"
);
},
{
closed = 1;
nodes = (
"89 727 LINE",
"141 637 LINE",
"63 637 LINE",
"-16 727 LINE"
);
}
);
width = 181;
}
);
leftKerningGroup = l;
rightKerningGroup = l;
unicode = 00EC;
},
{
glyphname = ij;
lastChange = "2012-05-22 22:56:21 +0000";
layers = (
{
layerId = "1AB499B8-18A8-432D-A211-B6882CCB886D";
name = Regular;
paths = (
{
closed = 1;
nodes = (
"40 0 LINE",
"40 547 LINE",
"141 547 LINE",
"141 0 LINE"
);
},
{
closed = 1;
nodes = (
"40 735 LINE",
"141 735 LINE",
"141 634 LINE",
"40 634 LINE"
);
},
{
closed = 1;
nodes = (
"218 735 LINE",
"319 735 LINE",
"319 634 LINE",
"218 634 LINE"
);
},
{
closed = 1;
nodes = (
"319 547 LINE",
"319 -14 LINE SMOOTH",
"319 -42 OFFCURVE",
"319 -86 OFFCURVE",
"305 -122 CURVE SMOOTH",
"291 -159 OFFCURVE",
"260 -188 OFFCURVE",
"203 -188 CURVE SMOOTH",
"187 -188 OFFCURVE",
"176 -187 OFFCURVE",
"169 -185 CURVE SMOOTH",
"165 -184 OFFCURVE",
"162 -183 OFFCURVE",
"159 -182 CURVE",
"159 -89 LINE",
"162 -90 OFFCURVE",
"165 -90 OFFCURVE",
"168 -91 CURVE",
"175 -92 OFFCURVE",
"181 -93 OFFCURVE",
"187 -93 CURVE SMOOTH",
"204 -93 OFFCURVE",
"212 -79 OFFCURVE",
"216 -62 CURVE",
"217 -54 OFFCURVE",
"218 -45 OFFCURVE",
"218 -36 CURVE SMOOTH",
"218 -27 OFFCURVE",
"218 -19 OFFCURVE",
"218 -13 CURVE SMOOTH",
"218 547 LINE"
);
}
);
width = 359;
}
);
unicode = 0133;
},
{
glyphname = imacron;
lastChange = "2012-05-22 22:56:21 +0000";
layers = (
{
layerId = "1AB499B8-18A8-432D-A211-B6882CCB886D";
name = Regular;
paths = (
{
closed = 1;
nodes = (
"40 0 LINE",
"40 547 LINE",
"141 547 LINE",
"141 0 LINE"
);
},
{
closed = 1;
nodes = (
"-5 721 LINE",
"189 721 LINE",
"189 642 LINE",
"-5 642 LINE"
);
}
);
width = 181;
}
);
unicode = 012B;
},
{
glyphname = iogonek;
lastChange = "2012-05-22 22:56:21 +0000";
layers = (
{
layerId = "1AB499B8-18A8-432D-A211-B6882CCB886D";
name = Regular;
paths = (
{
closed = 1;
nodes = (
"40 0 LINE",
"40 547 LINE",
"141 547 LINE",
"141 0 LINE"
);
},
{
closed = 1;
nodes = (
"40 735 LINE",
"141 735 LINE",
"141 634 LINE",
"40 634 LINE"
);
},
{
closed = 1;
nodes = (
"11 -75 OFFCURVE",
"27 -50 OFFCURVE",
"44 -31 CURVE",
"53 -20 OFFCURVE",
"64 -9 OFFCURVE",
"77 0 CURVE",
"125 0 LINE",
"108 -15 OFFCURVE",
"96 -30 OFFCURVE",
"87 -50 CURVE",
"82 -60 OFFCURVE",
"80 -71 OFFCURVE",
"80 -83 CURVE SMOOTH",
"80 -112 OFFCURVE",
"107 -121 OFFCURVE",
"130 -121 CURVE SMOOTH",
"147 -121 OFFCURVE",
"160 -117 OFFCURVE",
"172 -112 CURVE",
"164 -179 LINE",
"143 -186 OFFCURVE",
"130 -188 OFFCURVE",
"113 -188 CURVE SMOOTH",
"48 -188 OFFCURVE",
"11 -148 OFFCURVE",
"11 -103 CURVE SMOOTH"
);
}
);
width = 181;
}
);
unicode = 012F;
},
{
glyphname = itilde;
lastChange = "2012-05-22 22:56:21 +0000";
layers = (
{
layerId = "1AB499B8-18A8-432D-A211-B6882CCB886D";
name = Regular;
paths = (
{
closed = 1;
nodes = (
"40 0 LINE",
"40 547 LINE",
"141 547 LINE",
"141 0 LINE"
);
},
{
closed = 1;
nodes = (
"33 653 OFFCURVE",
"22 649 OFFCURVE",
"11 645 CURVE",
"5 642 OFFCURVE",
"0 640 OFFCURVE",
"-5 637 CURVE",
"-5 711 LINE",
"4 718 OFFCURVE",
"16 723 OFFCURVE",
"28 727 CURVE SMOOTH",
"34 729 OFFCURVE",
"41 730 OFFCURVE",
"48 730 CURVE SMOOTH",
"63 730 OFFCURVE",
"78 727 OFFCURVE",
"92 722 CURVE",
"106 716 OFFCURVE",
"121 712 OFFCURVE",
"136 711 CURVE",
"151 711 OFFCURVE",
"162 715 OFFCURVE",
"173 719 CURVE",
"179 722 OFFCURVE",
"184 724 OFFCURVE",
"189 727 CURVE",
"189 653 LINE",
"180 645 OFFCURVE",
"168 640 OFFCURVE",
"156 637 CURVE",
"150 635 OFFCURVE",
"143 634 OFFCURVE",
"136 634 CURVE SMOOTH",
"121 634 OFFCURVE",
"106 637 OFFCURVE",
"93 643 CURVE SMOOTH",
"79 649 OFFCURVE",
"64 652 OFFCURVE",
"48 653 CURVE"
);
}
);
width = 181;
}
);
unicode = 0129;
},
{
glyphname = j;
lastChange = "2012-05-22 22:56:21 +0000";
layers = (
{
layerId = "1AB499B8-18A8-432D-A211-B6882CCB886D";
name = Regular;
paths = (
{
closed = 1;
nodes = (
"37 735 LINE",
"138 735 LINE",
"138 634 LINE",
"37 634 LINE"
);
},
{
closed = 1;
nodes = (
"138 547 LINE",
"138 -14 LINE SMOOTH",
"138 -42 OFFCURVE",
"138 -86 OFFCURVE",
"124 -122 CURVE SMOOTH",
"110 -159 OFFCURVE",
"79 -188 OFFCURVE",
"22 -188 CURVE SMOOTH",
"6 -188 OFFCURVE",
"-5 -187 OFFCURVE",
"-12 -185 CURVE SMOOTH",
"-16 -184 OFFCURVE",
"-19 -183 OFFCURVE",
"-22 -182 CURVE",
"-22 -89 LINE",
"-19 -90 OFFCURVE",
"-16 -90 OFFCURVE",
"-13 -91 CURVE",
"-6 -92 OFFCURVE",
"0 -93 OFFCURVE",
"6 -93 CURVE SMOOTH",
"23 -93 OFFCURVE",
"31 -79 OFFCURVE",
"35 -62 CURVE",
"36 -54 OFFCURVE",
"37 -45 OFFCURVE",
"37 -36 CURVE SMOOTH",
"37 -27 OFFCURVE",
"37 -19 OFFCURVE",
"37 -13 CURVE SMOOTH",
"37 547 LINE"
);
}
);
width = 178;
}
);
unicode = 006A;
},
{
glyphname = jcircumflex;
lastChange = "2012-05-22 22:56:21 +0000";
layers = (
{
layerId = "1AB499B8-18A8-432D-A211-B6882CCB886D";
name = Regular;
paths = (
{
closed = 1;
nodes = (
"37 735 LINE",
"138 735 LINE",
"138 634 LINE",
"37 634 LINE"
);
},
{
closed = 1;
nodes = (
"138 547 LINE",
"138 -14 LINE SMOOTH",
"138 -42 OFFCURVE",
"138 -86 OFFCURVE",
"124 -122 CURVE SMOOTH",
"110 -159 OFFCURVE",
"79 -188 OFFCURVE",
"22 -188 CURVE SMOOTH",
"6 -188 OFFCURVE",
"-5 -187 OFFCURVE",
"-12 -185 CURVE SMOOTH",
"-16 -184 OFFCURVE",
"-19 -183 OFFCURVE",
"-22 -182 CURVE",
"-22 -89 LINE",
"-19 -90 OFFCURVE",
"-16 -90 OFFCURVE",
"-13 -91 CURVE",
"-6 -92 OFFCURVE",
"0 -93 OFFCURVE",
"6 -93 CURVE SMOOTH",
"23 -93 OFFCURVE",
"31 -79 OFFCURVE",
"35 -62 CURVE",
"36 -54 OFFCURVE",
"37 -45 OFFCURVE",
"37 -36 CURVE SMOOTH",
"37 -27 OFFCURVE",
"37 -19 OFFCURVE",
"37 -13 CURVE SMOOTH",
"37 547 LINE"
);
},
{
closed = 1;
nodes = (
"144 735 LINE",
"213 645 LINE",
"121 645 LINE",
"90 680 LINE",
"60 645 LINE",
"-32 645 LINE",
"37 735 LINE"
);
}
);
width = 178;
}
);
unicode = 0135;
},
{
glyphname = k;
lastChange = "2012-05-22 22:56:21 +0000";
layers = (
{
anchors = (
{
name = bottom;
position = "{157, 0}";
}
);
layerId = "1AB499B8-18A8-432D-A211-B6882CCB886D";
name = Regular;
paths = (
{
closed = 1;
nodes = (
"141 735 LINE",
"141 404 LINE",
"141 386 LINE",
"146 386 LINE",
"152 404 LINE",
"201 547 LINE",
"292 547 LINE",
"219 369 LINE",
"311 0 LINE",
"214 0 LINE",
"164 221 LINE",
"162 229 LINE",
"157 229 LINE",
"154 221 LINE",
"141 189 LINE",
"141 0 LINE",
"40 0 LINE",
"40 735 LINE"
);
}
);
width = 313;
}
);
unicode = 006B;
},
{
glyphname = kcommaaccent;
lastChange = "2012-05-22 22:56:21 +0000";
layers = (
{
layerId = "1AB499B8-18A8-432D-A211-B6882CCB886D";
name = Regular;
paths = (
{
closed = 1;
nodes = (
"141 735 LINE",
"141 404 LINE",
"141 386 LINE",
"146 386 LINE",
"152 404 LINE",
"201 547 LINE",
"292 547 LINE",
"219 369 LINE",
"311 0 LINE",
"214 0 LINE",
"164 221 LINE",
"162 229 LINE",
"157 229 LINE",
"154 221 LINE",
"141 189 LINE",
"141 0 LINE",
"40 0 LINE",
"40 735 LINE"
);
},
{
closed = 1;
nodes = (
"215 -123 LINE",
"193 -188 LINE",
"142 -188 LINE",
"162 -123 LINE",
"131 -123 LINE",
"131 -54 LINE",
"215 -54 LINE"
);
}
);
width = 313;
}
);
unicode = 0137;
},
{
glyphname = kgreenlandic;
lastChange = "2012-05-22 22:56:21 +0000";
layers = (
{
layerId = "1AB499B8-18A8-432D-A211-B6882CCB886D";
name = Regular;
paths = (
{
closed = 1;
nodes = (
"141 735 LINE",
"141 404 LINE",
"141 386 LINE",
"146 386 LINE",
"152 404 LINE",
"201 547 LINE",
"292 547 LINE",
"219 369 LINE",
"311 0 LINE",
"214 0 LINE",
"164 221 LINE",
"162 229 LINE",
"157 229 LINE",
"154 221 LINE",
"141 189 LINE",
"141 0 LINE",
"40 0 LINE",
"40 735 LINE"
);
}
);
width = 313;
}
);
unicode = 0138;
},
{
glyphname = l;
lastChange = "2012-05-22 22:56:21 +0000";
layers = (
{
anchors = (
{
name = bottom;
position = "{91, 0}";
},
{
name = top;
position = "{91, 547}";
},
{
name = topright;
position = "{161, 547}";
}
);
layerId = "1AB499B8-18A8-432D-A211-B6882CCB886D";
name = Regular;
paths = (
{
closed = 1;
nodes = (
"40 0 LINE",
"40 735 LINE",
"141 735 LINE",
"141 0 LINE"
);
}
);
width = 181;
}
);
leftKerningGroup = l;
rightKerningGroup = l;
unicode = 006C;
},
{
glyphname = lacute;
lastChange = "2012-05-22 22:56:21 +0000";
layers = (
{
layerId = "1AB499B8-18A8-432D-A211-B6882CCB886D";
name = Regular;
paths = (
{
closed = 1;
nodes = (
"40 0 LINE",
"40 735 LINE",
"141 735 LINE",
"141 0 LINE"
);
},
{
closed = 1;
nodes = (
"170 838 LINE",
"91 748 LINE",
"13 748 LINE",
"65 838 LINE"
);
}
);
width = 181;
}
);
unicode = 013A;
},
{
glyphname = lcaron;
lastChange = "2012-05-22 22:56:21 +0000";
layers = (
{
layerId = "1AB499B8-18A8-432D-A211-B6882CCB886D";
name = Regular;
paths = (
{
closed = 1;
nodes = (
"40 0 LINE",
"40 735 LINE",
"141 735 LINE",
"141 0 LINE"
);
},
{
closed = 1;
nodes = (
"308 624 LINE",
"253 494 LINE",
"203 494 LINE",
"238 624 LINE",
"203 624 LINE",
"203 735 LINE",
"308 735 LINE"
);
}
);
width = 332;
}
);
unicode = 013E;
},
